{
.formatVersion = 3;
classes = (
{
code = "space C Cacute Ccaron Ccedilla Cdotaccent J uni013B uni0145 Scedilla uni0162 c cacute ccaron ccedilla ccircumflex cdotaccent i ij uni0237 uni006A0301 jcircumflex uni013C uni0146 scedilla t tcaron uni021B uni1E6D uni1E6F u uacute ubreve ucircumflex udieresis uni1EE5 ugrave uni1EE7 uhorn uni1EE9 uni1EF1 uni1EEB uni1EED uni1EEF uhungarumlaut umacron uogonek uring utilde fi fl pi two three four five six seven eight nine zero.ss01 one.ss01 two.tf three.tf four.tf five.tf six.tf seven.tf eight.tf nine.tf zero.ss01.tf one.ss01.tf onehalf onequarter space.tf period comma colon semicolon numbersign period.tf comma.tf colon.tf semicolon.tf numbersign.tf florin florin.tf cent currency dollar sterling yen Euro.ss01 cent.tf currency.tf dollar.tf sterling.tf yen.tf Euro.ss01.tf uni00B5 ijacute";
name = aalt;
},
{
code = "space.tf C.ss01 Cacute.ss01 Ccaron.ss01 Ccedilla.ss01 Cdotaccent.ss01 uni004A0301 uni013B.loclMAH uni0145.loclMAH uni0218 uni021A c.ss01 cacute.ss01 ccaron.ss01 ccedilla.ss01 ccircumflex.ss01 cdotaccent.ss01 i.loclTRK ij.ss01 uni0237.ss01 uni006A0301.ss01 jcircumflex.ss01 uni013C.loclMAH uni0146.loclMAH uni0219 t.ss01 tcaron.ss01 uni021B.ss01 uni1E6D.ss01 uni1E6F.ss01 u.ss01 uacute.ss01 ubreve.ss01 ucircumflex.ss01 udieresis.ss01 uni1EE5.ss01 ugrave.ss01 uni1EE7.ss01 uhorn.ss01 uni1EE9.ss01 uni1EF1.ss01 uni1EEB.ss01 uni1EED.ss01 uni1EEF.ss01 uhungarumlaut.ss01 umacron.ss01 uogonek.ss01 uring.ss01 utilde.ss01 fi.ss02 fl.ss02 pi.ss01 two.tf three.tf four.tf five.tf six.tf seven.tf eight.tf nine.tf zero.ss01.tf one.ss01.tf two three four five six seven eight nine zero.ss01 one.ss01 onehalf.ss01 onequarter.ss01 space period.tf comma.tf colon.tf semicolon.tf numbersign.tf period comma colon semicolon numbersign florin.tf florin cent.tf currency.tf dollar.tf sterling.tf yen.tf Euro.ss01.tf cent currency dollar sterling yen Euro.ss01 uni00B5.ss01 ijacute.ss01";
name = aalt2;
},
{

glyphs = (
{
glyphname = A;
layers = (
{
hints = (
{
horizontal = 1;
place = (0,21);
target = up;
type = BottomGhost;
},
{
horizontal = 1;
place = (133,121);
type = Stem;
},
{
horizontal = 1;
place = (700,-20);
target = down;
type = TopGhost;
},
{
place = (-19,692);
type = Stem;
}
);
layerId = "C557D8BE-4A15-4F65-8734-97D132B34265";
shapes = (
{
closed = 1;
nodes = (
(19,0,l),
(120,0,l),
(170,143,l),
(509,143,l),
(558,0,l),
(659,0,l),
(385,697,l),
(295,697,l)
);
},
{
closed = 1;
nodes = (
(199,219,l),
(289,461,ls),
(299,488,o),
(309,516,o),
(315,544,cs),
(340,650,l),
(364,543,ls),
(371,515,o),
(380,488,o),
(390,461,cs),
(480,219,l)
);
}
);
width = 654;
}
);
leftKerningGroup = A2;
rightKerningGroup = A;
unicode = 65;
},
{
glyphname = Aacute;
layers = (
{
hints = (
{
horizontal = 1;
place = (0,21);
target = up;
type = BottomGhost;
},
{
horizontal = 1;
place = (133,121);
type = Stem;
},
{
horizontal = 1;
place = (700,-20);
target = down;
type = TopGhost;
},
{
horizontal = 1;
place = (746,174);
type = Stem;
},
{
place = (-19,692);
type = Stem;
}
);
layerId = "C557D8BE-4A15-4F65-8734-97D132B34265";
shapes = (
{
closed = 1;
nodes = (
(321,800,l),
(371,800,l),
(436,934,l),
(353,934,l)
);
},
{
closed = 1;
nodes = (
(19,0,l),
(120,0,l),
(170,143,l),
(509,143,l),
(558,0,l),
(659,0,l),
(385,697,l),
(295,697,l)
);
},
{
closed = 1;
nodes = (
(199,219,l),
(289,461,ls),
(299,488,o),
(309,516,o),
(315,544,cs),
(340,650,l),
(364,543,ls),
(371,515,o),
(380,488,o),
(390,461,cs),
(480,219,l)
);
}
);
width = 654;
}
);
leftKerningGroup = A2;
rightKerningGroup = A;
unicode = 193;
},
{
glyphname = Abreve;
layers = (
{
hints = (
{
horizontal = 1;
place = (0,21);
target = up;
type = BottomGhost;
},
{
horizontal = 1;
place = (133,121);
type = Stem;
},
{
horizontal = 1;
place = (700,-20);
target = down;
type = TopGhost;
},
{
horizontal = 1;
place = (737,83);
type = Stem;
},
{
horizontal = 1;
place = (737,139);
type = Stem;
},
{
place = (167,107);
type = Stem;
},
{
place = (380,107);
type = Stem;
}
);
layerId = "C557D8BE-4A15-4F65-8734-97D132B34265";
shapes = (
{
closed = 1;
nodes = (
(201,887,l),
(214,822,o),
(273,790,o),
(339,790,cs),
(406,790,o),
(464,822,o),
(478,887,c),
(418,887,l),
(409,850,o),
(377,827,o),
(339,827,cs),
(302,827,o),
(271,850,o),
(261,887,c)
);
},
{
closed = 1;
nodes = (
(19,0,l),
(120,0,l),
(170,143,l),
(509,143,l),
(558,0,l),
(659,0,l),
(385,697,l),
(295,697,l)
);
},
{
closed = 1;
nodes = (
(199,219,l),
(289,461,ls),
(299,488,o),
(309,516,o),
(315,544,cs),
(340,650,l),
(364,543,ls),
(371,515,o),
(380,488,o),
(390,461,cs),
(480,219,l)
);
}
);
width = 654;
}
);
leftKerningGroup = A2;
rightKerningGroup = A;
unicode = 258;
},
{
glyphname = uni1EAE;
layers = (
{
hints = (
{
horizontal = 1;
place = (0,21);
target = up;
type = BottomGhost;
},
{
horizontal = 1;
place = (133,121);
type = Stem;
},
{
horizontal = 1;
place = (700,-20);
target = down;
type = TopGhost;
},
{
horizontal = 1;
place = (737,83);
type = Stem;
},
{
horizontal = 1;
place = (737,139);
type = Stem;
},
{
horizontal = 1;
place = (906,174);
type = Stem;
},
{
place = (167,107);
type = Stem;
},
{
place = (380,107);
type = Stem;
}
);
layerId = "C557D8BE-4A15-4F65-8734-97D132B34265";
shapes = (
{
closed = 1;
nodes = (
(321,972,l),
(371,972,l),
(436,1105,l),
(353,1105,l)
);
},
{
closed = 1;
nodes = (
(201,887,l),
(214,822,o),
(273,790,o),
(339,790,cs),
(406,790,o),
(464,822,o),
(478,887,c),
(418,887,l),
(409,850,o),
(377,827,o),
(339,827,cs),
(302,827,o),
(271,850,o),
(261,887,c)
);
},
{
closed = 1;
nodes = (
(19,0,l),
(120,0,l),
(170,143,l),
(509,143,l),
(558,0,l),
(659,0,l),
(385,697,l),
(295,697,l)
);
},
{
closed = 1;
nodes = (
(199,219,l),
(289,461,ls),
(299,488,o),
(309,516,o),
(315,544,cs),
(340,650,l),
(364,543,ls),
(371,515,o),
(380,488,o),
(390,461,cs),
(480,219,l)
);
}
);
width = 654;
}
);
leftKerningGroup = A2;
rightKerningGroup = A;
unicode = 7854;
},
{
glyphname = uni1EB6;
layers = (
{
hints = (
{
horizontal = 1;
place = (-213,159);
type = Stem;
},
{
horizontal = 1;
place = (0,21);
target = up;
type = BottomGhost;
},
{
horizontal = 1;
place = (133,121);
type = Stem;
},
{
horizontal = 1;
place = (700,-20);
target = down;
type = TopGhost;
},
{
horizontal = 1;
place = (737,83);
type = Stem;
},
{
horizontal = 1;
place = (737,139);
type = Stem;
},
{
place = (167,107);
type = Stem;
},
{
place = (252,162);
type = Stem;
},
{
place = (380,107);
type = Stem;
}
);
layerId = "C557D8BE-4A15-4F65-8734-97D132B34265";
shapes = (
{
closed = 1;
nodes = (
(287,-203,o),
(312,-228,o),
(345,-228,cs),
(380,-228,o),
(404,-204,o),
(404,-169,cs),
(404,-136,o),
(379,-111,o),
(345,-111,cs),
(313,-111,o),
(287,-137,o),
(287,-169,cs)
);
},
{
closed = 1;
nodes = (
(201,887,l),
(214,822,o),
(273,790,o),
(339,790,cs),
(406,790,o),
(464,822,o),
(478,887,c),
(418,887,l),
(409,850,o),
(377,827,o),
(339,827,cs),
(302,827,o),
(271,850,o),
(261,887,c)
);
},
{
closed = 1;
nodes = (
(19,0,l),
(120,0,l),
(170,143,l),
(509,143,l),
(558,0,l),
(659,0,l),
(385,697,l),
(295,697,l)
);
},
{
closed = 1;
nodes = (
(199,219,l),
(289,461,ls),
(299,488,o),
(309,516,o),
(315,544,cs),
(340,650,l),
(364,543,ls),
(371,515,o),
(380,488,o),
(390,461,cs),
(480,219,l)
);
}
);
width = 654;
}
);
leftKerningGroup = A2;
rightKerningGroup = A;
unicode = 7862;
},
{
glyphname = uni1EB0;
layers = (
{
hints = (
{
horizontal = 1;
place = (0,21);
target = up;
type = BottomGhost;
},
{
horizontal = 1;
place = (133,121);
type = Stem;
},
{
horizontal = 1;
place = (700,-20);
target = down;
type = TopGhost;
},
{
horizontal = 1;
place = (737,83);
type = Stem;
},
{
horizontal = 1;
place = (737,139);
type = Stem;
},
{
horizontal = 1;
place = (906,174);
type = Stem;
},
{
place = (167,107);
type = Stem;
},
{
place = (380,107);
type = Stem;
}
);
layerId = "C557D8BE-4A15-4F65-8734-97D132B34265";
shapes = (
{
closed = 1;
nodes = (
(201,887,l),
(214,822,o),
(273,790,o),
(339,790,cs),
(406,790,o),
(464,822,o),
(478,887,c),
(418,887,l),
(409,850,o),
(377,827,o),
(339,827,cs),
(302,827,o),
(271,850,o),
(261,887,c)
);
},
{
closed = 1;
nodes = (
(309,972,l),
(361,972,l),
(335,1105,l),
(236,1105,l)
);
},
{
closed = 1;
nodes = (
(19,0,l),
(120,0,l),
(170,143,l),
(509,143,l),
(558,0,l),
(659,0,l),
(385,697,l),
(295,697,l)
);
},
{
closed = 1;
nodes = (
(199,219,l),
(289,461,ls),
(299,488,o),
(309,516,o),
(315,544,cs),
(340,650,l),
(364,543,ls),
(371,515,o),
(380,488,o),
(390,461,cs),
(480,219,l)
);
}
);
width = 654;
}
);
leftKerningGroup = A2;
rightKerningGroup = A;
unicode = 7856;
},
{
glyphname = uni1EB2;
layers = (
{
hints = (
{
horizontal = 1;
place = (0,21);
target = up;
type = BottomGhost;
},
{
horizontal = 1;
place = (133,121);
type = Stem;
},
{
horizontal = 1;
place = (700,-20);
target = down;
type = TopGhost;
},
{
horizontal = 1;
place = (737,83);
type = Stem;
},
{
horizontal = 1;
place = (737,139);
type = Stem;
},
{
horizontal = 1;
place = (897,75);
type = Stem;
},
{
horizontal = 1;
place = (999,108);
type = Stem;
},
{
horizontal = 1;
place = (1029,78);
type = Stem;
},
{
place = (167,107);
type = Stem;
},
{
place = (208,84);
type = Stem;
},
{
place = (349,87);
type = Stem;
},
{
place = (380,107);
type = Stem;
}
);
layerId = "C557D8BE-4A15-4F65-8734-97D132B34265";
shapes = (
{
closed = 1;
nodes = (
(312,966,l),
(320,963,o),
(329,962,o),
(337,962,cs),
(393,962,o),
(426,995,o),
(426,1051,cs),
(426,1104,o),
(386,1135,o),
(334,1135,cs),
(293,1135,o),
(257,1110,o),
(245,1072,c),
(283,1072,l),
(292,1092,o),
(311,1103,o),
(333,1103,cs),
(362,1103,o),
(388,1078,o),
(388,1048,cs),
(388,1010,o),
(361,990,o),
(327,990,cs),
(325,990,o),
(322,990,o),
(319,990,c)
);
},
{
closed = 1;
nodes = (
(201,887,l),
(214,822,o),
(273,790,o),
(339,790,cs),
(406,790,o),
(464,822,o),
(478,887,c),
(418,887,l),
(409,850,o),
(377,827,o),
(339,827,cs),
(302,827,o),
(271,850,o),
(261,887,c)
);
},
{
closed = 1;
nodes = (
(19,0,l),
(120,0,l),
(170,143,l),
(509,143,l),
(558,0,l),
(659,0,l),
(385,697,l),
(295,697,l)
);
},
{
closed = 1;
nodes = (
(199,219,l),
(289,461,ls),
(299,488,o),
(309,516,o),
(315,544,cs),
(340,650,l),
(364,543,ls),
(371,515,o),
(380,488,o),
(390,461,cs),
(480,219,l)
);
}
);
width = 654;
}
);
leftKerningGroup = A2;
rightKerningGroup = A;
unicode = 7858;
},
{
glyphname = uni1EB4;
layers = (
{
hints = (
{
horizontal = 1;
place = (0,21);
target = up;
type = BottomGhost;
},
{
horizontal = 1;
place = (133,121);
type = Stem;
},
{
horizontal = 1;
place = (700,-20);
target = down;
type = TopGhost;
},
{
horizontal = 1;
place = (737,83);
type = Stem;
},
{
horizontal = 1;
place = (737,139);
type = Stem;
},
{
horizontal = 1;
place = (897,92);
type = Stem;
},
{
horizontal = 1;
place = (897,143);
type = Stem;
},
{
horizontal = 1;
place = (961,90);
type = Stem;
},
{
place = (125,86);
type = Stem;
},
{
place = (167,44);
type = Stem;
},
{
place = (167,107);
type = Stem;
},
{
place = (380,107);
type = Stem;
},
{
place = (442,87);
type = Stem;
}
);
layerId = "C557D8BE-4A15-4F65-8734-97D132B34265";
shapes = (
{
closed = 1;
nodes = (
(197,977,l),
(206,1009,o),
(231,1031,o),
(266,1031,cs),
(284,1031,o),
(298,1026,o),
(310,1020,c),
(316,1015,o),
(322,1012,o),
(328,1007,cs),
(333,1003,o),
(338,999,o),
(344,995,cs),
(365,978,o),
(387,962,o),
(423,962,cs),
(486,962,o),
(516,1002,o),
(521,1062,c),
(482,1062,l),
(476,1033,o),
(456,1007,o),
(422,1007,cs),
(408,1007,o),
(396,1012,o),
(384,1019,c),
(373,1026,o),
(361,1034,o),
(350,1042,cs),
(327,1059,o),
(303,1075,o),
(268,1075,cs),
(208,1075,o),
(167,1034,o),
(157,977,c)
);
},
{
closed = 1;
nodes = (
(201,887,l),
(214,822,o),
(273,790,o),
(339,790,cs),
(406,790,o),
(464,822,o),
(478,887,c),
(418,887,l),
(409,850,o),
(377,827,o),
(339,827,cs),
(302,827,o),
(271,850,o),
(261,887,c)
);
},
{
closed = 1;
nodes = (
(19,0,l),
(120,0,l),
(170,143,l),
(509,143,l),
(558,0,l),
(659,0,l),
(385,697,l),
(295,697,l)
);
},
{
closed = 1;
nodes = (
(199,219,l),
(289,461,ls),
(299,488,o),
(309,516,o),
(315,544,cs),
(340,650,l),
(364,543,ls),
(371,515,o),
(380,488,o),
(390,461,cs),
(480,219,l)
);
}
);
width = 654;
}
);
leftKerningGroup = A2;
rightKerningGroup = A;
unicode = 7860;
},
{
glyphname = Acircumflex;
layers = (
{
hints = (
{
horizontal = 1;
place = (0,21);
target = up;
type = BottomGhost;
},
{
horizontal = 1;
place = (133,121);
type = Stem;
},
{
horizontal = 1;
place = (700,-20);
target = down;
type = TopGhost;
},
{
horizontal = 1;
place = (746,174);
type = Stem;
},
{
place = (-19,692);
type = Stem;
}
);
layerId = "C557D8BE-4A15-4F65-8734-97D132B34265";
shapes = (
{
closed = 1;
nodes = (
(223,800,l),
(285,800,l),
(339,924,l),
(394,800,l),
(453,800,l),
(381,934,l),
(298,934,l)
);
},
{
closed = 1;
nodes = (
(19,0,l),
(120,0,l),
(170,143,l),
(509,143,l),
(558,0,l),
(659,0,l),
(385,697,l),
(295,697,l)
);
},
{
closed = 1;
nodes = (
(199,219,l),
(289,461,ls),
(299,488,o),
(309,516,o),
(315,544,cs),
(340,650,l),
(364,543,ls),
(371,515,o),
(380,488,o),
(390,461,cs),
(480,219,l)
);
}
);
width = 654;
}
);
leftKerningGroup = A2;
rightKerningGroup = A;
unicode = 194;
},
{
glyphname = uni1EA4;
layers = (
{
hints = (
{
horizontal = 1;
place = (0,21);
target = up;
type = BottomGhost;
},
{
horizontal = 1;
place = (133,121);
type = Stem;
},
{
horizontal = 1;
place = (700,-20);
target = down;
type = TopGhost;
},
{
horizontal = 1;
place = (746,174);
type = Stem;
},
{
horizontal = 1;
place = (848,72);
type = Stem;
},
{
horizontal = 1;
place = (848,174);
type = Stem;
},
{
place = (-19,692);
type = Stem;
}
);
layerId = "C557D8BE-4A15-4F65-8734-97D132B34265";
shapes = (
{
closed = 1;
nodes = (
(481,909,l),
(530,909,l),
(596,1043,l),
(513,1043,l)
);
},
{
closed = 1;
nodes = (
(223,800,l),
(285,800,l),
(339,924,l),
(394,800,l),
(453,800,l),
(381,934,l),
(298,934,l)
);
},
{
closed = 1;
nodes = (
(19,0,l),
(120,0,l),
(170,143,l),
(509,143,l),
(558,0,l),
(659,0,l),
(385,697,l),
(295,697,l)
);
},
{
closed = 1;
nodes = (
(199,219,l),
(289,461,ls),
(299,488,o),
(309,516,o),
(315,544,cs),
(340,650,l),
(364,543,ls),
(371,515,o),
(380,488,o),
(390,461,cs),
(480,219,l)
);
}
);
width = 654;
}
);
leftKerningGroup = A2;
rightKerningGroup = A;
unicode = 7844;
},
{
glyphname = uni1EAC;
layers = (
{
hints = (
{
horizontal = 1;
place = (-213,159);
type = Stem;
},
{
horizontal = 1;
place = (0,21);
target = up;
type = BottomGhost;
},
{
horizontal = 1;
place = (133,121);
type = Stem;
},
{
horizontal = 1;
place = (700,-20);
target = down;
type = TopGhost;
},
{
horizontal = 1;
place = (746,174);
type = Stem;
},
{
place = (252,162);
type = Stem;
}
);
layerId = "C557D8BE-4A15-4F65-8734-97D132B34265";
shapes = (
{
closed = 1;
nodes = (
(287,-203,o),
(312,-228,o),
(345,-228,cs),
(380,-228,o),
(404,-204,o),
(404,-169,cs),
(404,-136,o),
(379,-111,o),
(345,-111,cs),
(313,-111,o),
(287,-137,o),
(287,-169,cs)
);
},
{
closed = 1;
nodes = (
(223,800,l),
(285,800,l),
(339,924,l),
(394,800,l),
(453,800,l),
(381,934,l),
(298,934,l)
);
},
{
closed = 1;
nodes = (
(19,0,l),
(120,0,l),
(170,143,l),
(509,143,l),
(558,0,l),
(659,0,l),
(385,697,l),
(295,697,l)
);
},
{
closed = 1;
nodes = (
(199,219,l),
(289,461,ls),
(299,488,o),
(309,516,o),
(315,544,cs),
(340,650,l),
(364,543,ls),
(371,515,o),
(380,488,o),
(390,461,cs),
(480,219,l)
);
}
);
width = 654;
}
);
leftKerningGroup = A2;
rightKerningGroup = A;
unicode = 7852;
},
{
glyphname = uni1EA6;
layers = (
{
hints = (
{
horizontal = 1;
place = (0,21);
target = up;
type = BottomGhost;
},
{
horizontal = 1;
place = (133,121);
type = Stem;
},
{
horizontal = 1;
place = (700,-20);
target = down;
type = TopGhost;
},
{
horizontal = 1;
place = (746,174);
type = Stem;
},
{
horizontal = 1;
place = (848,72);
type = Stem;
},
{
horizontal = 1;
place = (848,174);
type = Stem;
},
{
place = (-19,692);
type = Stem;
}
);
layerId = "C557D8BE-4A15-4F65-8734-97D132B34265";
shapes = (
{
closed = 1;
nodes = (
(223,800,l),
(285,800,l),
(339,924,l),
(394,800,l),
(453,800,l),
(381,934,l),
(298,934,l)
);
},
{
closed = 1;
nodes = (
(149,909,l),
(202,909,l),
(176,1043,l),
(77,1043,l)
);
},
{
closed = 1;
nodes = (
(19,0,l),
(120,0,l),
(170,143,l),
(509,143,l),
(558,0,l),
(659,0,l),
(385,697,l),
(295,697,l)
);
},
{
closed = 1;
nodes = (
(199,219,l),
(289,461,ls),
(299,488,o),
(309,516,o),
(315,544,cs),
(340,650,l),
(364,543,ls),
(371,515,o),
(380,488,o),
(390,461,cs),
(480,219,l)
);
}
);
width = 654;
}
);
leftKerningGroup = A2;
rightKerningGroup = A;
unicode = 7846;
},
{
glyphname = uni1EA8;
layers = (
{
hints = (
{
horizontal = 1;
place = (0,21);
target = up;
type = BottomGhost;
},
{
horizontal = 1;
place = (133,121);
type = Stem;
},
{
horizontal = 1;
place = (700,-20);
target = down;
type = TopGhost;
},
{
horizontal = 1;
place = (746,174);
type = Stem;
},
{
horizontal = 1;
place = (929,75);
type = Stem;
},
{
horizontal = 1;
place = (1031,108);
type = Stem;
},
{
horizontal = 1;
place = (1061,78);
type = Stem;
},
{
place = (208,84);
type = Stem;
},
{
place = (349,87);
type = Stem;
}
);
layerId = "C557D8BE-4A15-4F65-8734-97D132B34265";
shapes = (
{
closed = 1;
nodes = (
(312,999,l),
(320,997,o),
(329,996,o),
(337,996,cs),
(393,996,o),
(426,1030,o),
(426,1086,cs),
(426,1139,o),
(386,1168,o),
(334,1168,cs),
(293,1168,o),
(256,1145,o),
(245,1105,c),
(283,1105,l),
(292,1126,o),
(310,1138,o),
(333,1138,cs),
(362,1138,o),
(388,1112,o),
(388,1083,cs),
(388,1045,o),
(362,1024,o),
(327,1024,cs),
(325,1024,o),
(322,1024,o),
(319,1024,c)
);
},
{
closed = 1;
nodes = (
(223,800,l),
(285,800,l),
(339,924,l),
(394,800,l),
(453,800,l),
(381,934,l),
(298,934,l)
);
},
{
closed = 1;
nodes = (
(19,0,l),
(120,0,l),
(170,143,l),
(509,143,l),
(558,0,l),
(659,0,l),
(385,697,l),
(295,697,l)
);
},
{
closed = 1;
nodes = (
(199,219,l),
(289,461,ls),
(299,488,o),
(309,516,o),
(315,544,cs),
(340,650,l),
(364,543,ls),
(371,515,o),
(380,488,o),
(390,461,cs),
(480,219,l)
);
}
);
width = 654;
}
);
leftKerningGroup = A2;
rightKerningGroup = A;
unicode = 7848;
},
{
glyphname = uni1EAA;
layers = (
{
hints = (
{
horizontal = 1;
place = (0,21);
target = up;
type = BottomGhost;
},
{
horizontal = 1;
place = (133,121);
type = Stem;
},
{
horizontal = 1;
place = (700,-20);
target = down;
type = TopGhost;
},
{
horizontal = 1;
place = (746,174);
type = Stem;
},
{
horizontal = 1;
place = (929,92);
type = Stem;
},
{
horizontal = 1;
place = (929,143);
type = Stem;
},
{
horizontal = 1;
place = (993,90);
type = Stem;
},
{
place = (125,86);
type = Stem;
},
{
place = (442,87);
type = Stem;
}
);
layerId = "C557D8BE-4A15-4F65-8734-97D132B34265";
shapes = (
{
closed = 1;
nodes = (
(197,1011,l),
(206,1044,o),
(231,1065,o),
(266,1065,cs),
(284,1065,o),
(297,1060,o),
(310,1054,c),
(316,1050,o),
(322,1046,o),
(327,1042,cs),
(333,1038,o),
(338,1034,o),
(344,1030,cs),
(366,1012,o),
(389,996,o),
(423,996,cs),
(487,996,o),
(516,1037,o),
(521,1097,c),
(482,1097,l),
(477,1067,o),
(456,1042,o),
(422,1042,cs),
(408,1042,o),
(396,1047,o),
(384,1053,cs),
(373,1059,o),
(362,1068,o),
(350,1077,cs),
(328,1093,o),
(304,1108,o),
(268,1108,cs),
(208,1108,o),
(167,1068,o),
(157,1011,c)
);
},
{
closed = 1;
nodes = (
(223,800,l),
(285,800,l),
(339,924,l),
(394,800,l),
(453,800,l),
(381,934,l),
(298,934,l)
);
},
{
closed = 1;
nodes = (
(19,0,l),
(120,0,l),
(170,143,l),
(509,143,l),
(558,0,l),
(659,0,l),
(385,697,l),
(295,697,l)
);
},
{
closed = 1;
nodes = (
(199,219,l),
(289,461,ls),
(299,488,o),
(309,516,o),
(315,544,cs),
(340,650,l),
(364,543,ls),
(371,515,o),
(380,488,o),
(390,461,cs),
(480,219,l)
);
}
);
width = 654;
}
);
leftKerningGroup = A2;
rightKerningGroup = A;
unicode = 7850;
},
{
glyphname = Adieresis;
layers = (
{
hints = (
{
horizontal = 1;
place = (0,21);
target = up;
type = BottomGhost;
},
{
horizontal = 1;
place = (133,121);
type = Stem;
},
{
horizontal = 1;
place = (700,-20);
target = down;
type = TopGhost;
},
{
horizontal = 1;
place = (743,159);
type = Stem;
},
{
place = (140,162);
type = Stem;
},
{
place = (352,162);
type = Stem;
}
);
layerId = "C557D8BE-4A15-4F65-8734-97D132B34265";
shapes = (
{
closed = 1;
nodes = (
(391,823,o),
(416,797,o),
(449,797,cs),
(484,797,o),
(507,822,o),
(507,856,cs),
(507,890,o),
(483,915,o),
(449,915,cs),
(417,915,o),
(391,889,o),
(391,856,cs)
);
},
{
closed = 1;
nodes = (
(263,797,o),
(288,822,o),
(288,856,cs),
(288,890,o),
(262,915,o),
(229,915,cs),
(197,915,o),
(172,889,o),
(172,856,cs),
(172,823,o),
(196,797,o),
(229,797,cs)
);
},
{
closed = 1;
nodes = (
(19,0,l),
(120,0,l),
(170,143,l),
(509,143,l),
(558,0,l),
(659,0,l),
(385,697,l),
(295,697,l)
);
},
{
closed = 1;
nodes = (
(199,219,l),
(289,461,ls),
(299,488,o),
(309,516,o),
(315,544,cs),
(340,650,l),
(364,543,ls),
(371,515,o),
(380,488,o),
(390,461,cs),
(480,219,l)
);
}
);
width = 654;
}
);
leftKerningGroup = A2;
rightKerningGroup = A;
unicode = 196;
},
{
glyphname = uni1EA0;
layers = (
{
hints = (
{
horizontal = 1;
place = (-213,159);
type = Stem;
},
{
horizontal = 1;
place = (0,21);
target = up;
type = BottomGhost;
},
{
horizontal = 1;
place = (133,121);
type = Stem;
},
{
horizontal = 1;
place = (700,-20);
target = down;
type = TopGhost;
},
{
place = (252,162);
type = Stem;
}
);
layerId = "C557D8BE-4A15-4F65-8734-97D132B34265";
shapes = (
{
closed = 1;
nodes = (
(287,-203,o),
(312,-228,o),
(345,-228,cs),
(380,-228,o),
(404,-204,o),
(404,-169,cs),
(404,-136,o),
(379,-111,o),
(345,-111,cs),
(313,-111,o),
(287,-137,o),
(287,-169,cs)
);
},
{
closed = 1;
nodes = (
(19,0,l),
(120,0,l),
(170,143,l),
(509,143,l),
(558,0,l),
(659,0,l),
(385,697,l),
(295,697,l)
);
},
{
closed = 1;
nodes = (
(199,219,l),
(289,461,ls),
(299,488,o),
(309,516,o),
(315,544,cs),
(340,650,l),
(364,543,ls),
(371,515,o),
(380,488,o),
(390,461,cs),
(480,219,l)
);
}
);
width = 654;
}
);
leftKerningGroup = A2;
rightKerningGroup = A;
unicode = 7840;
},
{
glyphname = Agrave;
layers = (
{
hints = (
{
horizontal = 1;
place = (0,21);
target = up;
type = BottomGhost;
},
{
horizontal = 1;
place = (133,121);
type = Stem;
},
{
horizontal = 1;
place = (700,-20);
target = down;
type = TopGhost;
},
{
horizontal = 1;
place = (746,174);
type = Stem;
},
{
place = (-19,692);
type = Stem;
}
);
layerId = "C557D8BE-4A15-4F65-8734-97D132B34265";
shapes = (
{
closed = 1;
nodes = (
(309,800,l),
(361,800,l),
(335,934,l),
(236,934,l)
);
},
{
closed = 1;
nodes = (
(19,0,l),
(120,0,l),
(170,143,l),
(509,143,l),
(558,0,l),
(659,0,l),
(385,697,l),
(295,697,l)
);
},
{
closed = 1;
nodes = (
(199,219,l),
(289,461,ls),
(299,488,o),
(309,516,o),
(315,544,cs),
(340,650,l),
(364,543,ls),
(371,515,o),
(380,488,o),
(390,461,cs),
(480,219,l)
);
}
);
width = 654;
}
);
leftKerningGroup = A2;
rightKerningGroup = A;
unicode = 192;
},
{
glyphname = uni1EA2;
layers = (
{
hints = (
{
horizontal = 1;
place = (0,21);
target = up;
type = BottomGhost;
},
{
horizontal = 1;
place = (133,121);
type = Stem;
},
{
horizontal = 1;
place = (700,-20);
target = down;
type = TopGhost;
},
{
horizontal = 1;
place = (737,75);
type = Stem;
},
{
horizontal = 1;
place = (839,108);
type = Stem;
},
{
horizontal = 1;
place = (869,78);
type = Stem;
},
{
place = (208,84);
type = Stem;
},
{
place = (349,87);
type = Stem;
}
);
layerId = "C557D8BE-4A15-4F65-8734-97D132B34265";
shapes = (
{
closed = 1;
nodes = (
(312,793,l),
(320,791,o),
(329,790,o),
(337,790,cs),
(393,790,o),
(426,824,o),
(426,880,cs),
(426,933,o),
(386,962,o),
(334,962,cs),
(293,962,o),
(257,939,o),
(245,900,c),
(283,900,l),
(293,920,o),
(311,932,o),
(333,932,cs),
(362,932,o),
(388,906,o),
(388,877,cs),
(388,839,o),
(362,818,o),
(327,818,cs),
(325,818,o),
(322,818,o),
(319,818,c)
);
},
{
closed = 1;
nodes = (
(19,0,l),
(120,0,l),
(170,143,l),
(509,143,l),
(558,0,l),
(659,0,l),
(385,697,l),
(295,697,l)
);
},
{
closed = 1;
nodes = (
(199,219,l),
(289,461,ls),
(299,488,o),
(309,516,o),
(315,544,cs),
(340,650,l),
(364,543,ls),
(371,515,o),
(380,488,o),
(390,461,cs),
(480,219,l)
);
}
);
width = 654;
}
);
leftKerningGroup = A2;
rightKerningGroup = A;
unicode = 7842;
},
{
glyphname = Amacron;
layers = (
{
hints = (
{
horizontal = 1;
place = (0,21);
target = up;
type = BottomGhost;
},
{
horizontal = 1;
place = (133,121);
type = Stem;
},
{
horizontal = 1;
place = (700,-20);
target = down;
type = TopGhost;
},
{
horizontal = 1;
place = (778,90);
type = Stem;
},
{
place = (-19,692);
type = Stem;
},
{
place = (175,306);
type = Stem;
}
);
layerId = "C557D8BE-4A15-4F65-8734-97D132B34265";
shapes = (
{
closed = 1;
nodes = (
(207,834,l),
(473,834,l),
(473,878,l),
(207,878,l)
);
},
{
closed = 1;
nodes = (
(19,0,l),
(120,0,l),
(170,143,l),
(509,143,l),
(558,0,l),
(659,0,l),
(385,697,l),
(295,697,l)
);
},
{
closed = 1;
nodes = (
(199,219,l),
(289,461,ls),
(299,488,o),
(309,516,o),
(315,544,cs),
(340,650,l),
(364,543,ls),
(371,515,o),
(380,488,o),
(390,461,cs),
(480,219,l)
);
}
);
width = 654;
}
);
leftKerningGroup = A2;
rightKerningGroup = A;
unicode = 256;
},
{
glyphname = Aogonek;
layers = (
{
hints = (
{
horizontal = 1;
place = (-213,94);
type = Stem;
},
{
horizontal = 1;
place = (-202,21);
target = up;
type = BottomGhost;
},
{
horizontal = 1;
place = (0,21);
target = up;
type = BottomGhost;
},
{
horizontal = 1;
place = (133,121);
type = Stem;
},
{
horizontal = 1;
place = (700,-20);
target = down;
type = TopGhost;
},
{
place = (450,94);
type = Stem;
}
);
layerId = "C557D8BE-4A15-4F65-8734-97D132B34265";
shapes = (
{
closed = 1;
nodes = (
(19,0,l),
(120,0,l),
(170,143,l),
(509,143,l),
(570,-36,l),
(567,-39,l),
(557,-48,o),
(547,-55,o),
(538,-62,cs),
(529,-69,o),
(521,-76,o),
(515,-85,c),
(502,-99,o),
(493,-116,o),
(493,-145,cs),
(493,-203,o),
(535,-228,o),
(591,-228,cs),
(607,-228,o),
(622,-226,o),
(637,-224,c),
(625,-180,l),
(586,-186,o),
(538,-162,o),
(538,-115,cs),
(538,-86,o),
(556,-60,o),
(578,-44,cs),
(637,0,l),
(659,0,l),
(385,697,l),
(295,697,l)
);
},
{
closed = 1;
nodes = (
(199,219,l),
(289,461,ls),
(299,488,o),
(309,516,o),
(315,544,cs),
(340,650,l),
(364,543,ls),
(371,515,o),
(380,488,o),
(390,461,cs),
(480,219,l)
);
}
);
width = 654;
}
);
leftKerningGroup = A2;
rightKerningGroup = A;
unicode = 260;
},
{
glyphname = Aring;
layers = (
{
hints = (
{
horizontal = 1;
place = (0,21);
target = up;
type = BottomGhost;
},
{
horizontal = 1;
place = (133,121);
type = Stem;
},
{
horizontal = 1;
place = (700,-20);
target = down;
type = TopGhost;
},
{
horizontal = 1;
place = (737,67);
type = Stem;
},
{
horizontal = 1;
place = (879,68);
type = Stem;
},
{
place = (220,69);
type = Stem;
},
{
place = (363,71);
type = Stem;
}
);
layerId = "C557D8BE-4A15-4F65-8734-97D132B34265";
shapes = (
{
closed = 1;
nodes = (
(387,790,o),
(424,829,o),
(424,877,cs),
(424,924,o),
(386,962,o),
(339,962,cs),
(293,962,o),
(254,924,o),
(254,877,cs),
(254,830,o),
(293,790,o),
(339,790,cs)
);
},
{
closed = 1;
nodes = (
(303,810,o),
(275,841,o),
(275,877,cs),
(275,911,o),
(304,943,o),
(339,943,cs),
(376,943,o),
(402,911,o),
(402,877,cs),
(402,842,o),
(377,810,o),
(339,810,cs)
);
},
{
closed = 1;
nodes = (
(19,0,l),
(120,0,l),
(170,143,l),
(509,143,l),
(558,0,l),
(659,0,l),
(385,697,l),
(295,697,l)
);
},
{
closed = 1;
nodes = (
(199,219,l),
(289,461,ls),
(299,488,o),
(309,516,o),
(315,544,cs),
(340,650,l),
(364,543,ls),
(371,515,o),
(380,488,o),
(390,461,cs),
(480,219,l)
);
}
);
width = 654;
}
);
leftKerningGroup = A2;
rightKerningGroup = A;
unicode = 197;
},
{
glyphname = Atilde;
layers = (
{
hints = (
{
horizontal = 1;
place = (0,21);
target = up;
type = BottomGhost;
},
{
horizontal = 1;
place = (133,121);
type = Stem;
},
{
horizontal = 1;
place = (700,-20);
target = down;
type = TopGhost;
},
{
horizontal = 1;
place = (737,92);
type = Stem;
},
{
horizontal = 1;
place = (737,143);
type = Stem;
},
{
horizontal = 1;
place = (801,90);
type = Stem;
},
{
place = (125,86);
type = Stem;
},
{
place = (442,87);
type = Stem;
}
);
layerId = "C557D8BE-4A15-4F65-8734-97D132B34265";
shapes = (
{
closed = 1;
nodes = (
(197,805,l),
(206,838,o),
(231,859,o),
(266,859,cs),
(284,859,o),
(298,854,o),
(310,848,c),
(316,844,o),
(322,840,o),
(328,836,cs),
(333,832,o),
(339,828,o),
(344,824,cs),
(366,806,o),
(389,790,o),
(423,790,cs),
(487,790,o),
(516,831,o),
(521,891,c),
(482,891,l),
(477,862,o),
(456,836,o),
(422,836,cs),
(408,836,o),
(396,841,o),
(384,847,cs),
(373,853,o),
(362,863,o),
(350,871,cs),
(328,887,o),
(304,902,o),
(268,902,cs),
(208,902,o),
(167,863,o),
(157,805,c)
);
},
{
closed = 1;
nodes = (
(19,0,l),
(120,0,l),
(170,143,l),
(509,143,l),
(558,0,l),
(659,0,l),
(385,697,l),
(295,697,l)
);
},
{
closed = 1;
nodes = (
(199,219,l),
(289,461,ls),
(299,488,o),
(309,516,o),
(315,544,cs),
(340,650,l),
(364,543,ls),
(371,515,o),
(380,488,o),
(390,461,cs),
(480,219,l)
);
}
);
width = 654;
}
);
leftKerningGroup = A2;
rightKerningGroup = A;
unicode = 195;
},
{
glyphname = AE;
layers = (
{
hints = (
{
horizontal = 1;
place = (0,126);
type = Stem;
},
{
horizontal = 1;
place = (139,110);
type = Stem;
},
{
horizontal = 1;
place = (295,122);
type = Stem;
},
{
horizontal = 1;
place = (572,128);
type = Stem;
},
{
horizontal = 1;
place = (574,126);
type = Stem;
},
{
place = (520,140);
type = Stem;
}
);
layerId = "C557D8BE-4A15-4F65-8734-97D132B34265";
shapes = (
{
closed = 1;
nodes = (
(18,0,l),
(123,0,l),
(213,149,l),
(565,149,l),
(565,0,l),
(940,0,l),
(940,83,l),
(658,83,l),
(658,316,l),
(933,316,l),
(933,395,l),
(658,395,l),
(658,616,l),
(938,616,l),
(938,697,l),
(474,697,l)
);
},
{
closed = 1;
nodes = (
(246,214,l),
(410,466,ls),
(425,489,o),
(441,513,o),
(456,536,cs),
(472,560,o),
(485,584,o),
(497,610,c),
(498,614,l),
(565,614,l),
(565,214,l)
);
}
);
width = 971;
}
);
leftKerningGroup = AE;
rightKerningGroup = E;
unicode = 198;
},
{
glyphname = uni01E2;
layers = (
{
hints = (
{
horizontal = 1;
place = (0,126);
type = Stem;
},
{
horizontal = 1;
place = (139,110);
type = Stem;
},
{
horizontal = 1;
place = (295,122);
type = Stem;
},
{
horizontal = 1;
place = (572,128);
type = Stem;
},
{
horizontal = 1;
place = (574,126);
type = Stem;
},
{
horizontal = 1;
place = (778,90);
type = Stem;
},
{
place = (438,306);
type = Stem;
},
{
place = (520,140);
type = Stem;
}
);
layerId = "C557D8BE-4A15-4F65-8734-97D132B34265";
shapes = (
{
closed = 1;
nodes = (
(481,834,l),
(746,834,l),
(746,878,l),
(481,878,l)
);
},
{
closed = 1;
nodes = (
(18,0,l),
(123,0,l),
(213,149,l),
(565,149,l),
(565,0,l),
(940,0,l),
(940,83,l),
(658,83,l),
(658,316,l),
(933,316,l),
(933,395,l),
(658,395,l),
(658,616,l),
(938,616,l),
(938,697,l),
(474,697,l)
);
},
{
closed = 1;
nodes = (
(246,214,l),
(410,466,ls),
(425,489,o),
(441,513,o),
(456,536,cs),
(472,560,o),
(485,584,o),
(497,610,c),
(498,614,l),
(565,614,l),
(565,214,l)
);
}
);
width = 971;
}
);
leftKerningGroup = AE;
rightKerningGroup = E;
unicode = 482;
},
{
glyphname = B;
layers = (
{
hints = (
{
horizontal = 1;
place = (0,126);
type = Stem;
},
{
horizontal = 1;
place = (297,114);
type = Stem;
},
{
horizontal = 1;
place = (575,125);
type = Stem;
},
{
place = (50,140);
type = Stem;
},
{
place = (378,142);
type = Stem;
},
{
place = (417,142);
type = Stem;
}
);
layerId = "C557D8BE-4A15-4F65-8734-97D132B34265";
shapes = (
{
closed = 1;
nodes = (
(75,0,l),
(320,0,ls),
(437,0,o),
(552,51,o),
(552,180,cs),
(552,249,o),
(529,285,o),
(495,309,cs),
(478,320,o),
(457,329,o),
(433,337,cs),
(408,345,o),
(382,351,o),
(354,358,c),
(333,364,l),
(354,372,ls),
(375,380,o),
(395,387,o),
(414,396,c),
(434,404,o),
(451,412,o),
(465,423,cs),
(493,445,o),
(511,474,o),
(511,527,cs),
(511,651,o),
(406,697,o),
(294,697,cs),
(75,697,l)
);
},
{
closed = 1;
nodes = (
(169,387,l),
(169,617,l),
(281,617,ls),
(352,617,o),
(415,588,o),
(415,504,cs),
(415,415,o),
(357,387,o),
(281,387,cs)
);
},
{
closed = 1;
nodes = (
(169,83,l),
(169,318,l),
(306,318,ls),
(375,318,o),
(456,293,o),
(456,204,cs),
(456,111,o),
(382,83,o),
(306,83,cs)
);
}
);
width = 574;
}
);
leftKerningGroup = B;
unicode = 66;
},
{
glyphname = C;
layers = (
{
hints = (
{
horizontal = 1;
place = (-13,130);
type = Stem;
},
{
horizontal = 1;
place = (583,130);
type = Stem;
},
{
place = (25,145);
type = Stem;
}
);
layerId = "C557D8BE-4A15-4F65-8734-97D132B34265";
shapes = (
{
closed = 1;
nodes = (
(573,136,l),
(527,93,o),
(469,72,o),
(407,72,cs),
(250,72,o),
(149,196,o),
(149,348,cs),
(149,496,o),
(247,625,o),
(402,625,cs),
(464,625,o),
(521,605,o),
(567,563,c),
(631,622,l),
(569,689,o),
(493,712,o),
(402,712,cs),
(196,712,o),
(50,554,o),
(50,348,cs),
(50,147,o),
(203,-14,o),
(402,-14,cs),
(490,-14,o),
(579,13,o),
(641,76,c)
);
}
);
width = 662;
}
);
leftKerningGroup = C2;
rightKerningGroup = C;
unicode = 67;
},
{
glyphname = Cacute;
layers = (
{
hints = (
{
horizontal = 1;
place = (-13,130);
type = Stem;
},
{
horizontal = 1;
place = (583,130);
type = Stem;
},
{
horizontal = 1;
place = (746,174);
type = Stem;
},
{
place = (25,145);
type = Stem;
}
);
layerId = "C557D8BE-4A15-4F65-8734-97D132B34265";
shapes = (
{
closed = 1;
nodes = (
(573,136,l),
(527,93,o),
(469,72,o),
(407,72,cs),
(250,72,o),
(149,196,o),
(149,348,cs),
(149,496,o),
(247,625,o),
(402,625,cs),
(464,625,o),
(521,605,o),
(567,563,c),
(631,622,l),
(569,689,o),
(493,712,o),
(402,712,cs),
(196,712,o),
(50,554,o),
(50,348,cs),
(50,147,o),
(203,-14,o),
(402,-14,cs),
(490,-14,o),
(579,13,o),
(641,76,c)
);
},
{
closed = 1;
nodes = (
(385,800,l),
(434,800,l),
(499,934,l),
(418,934,l)
);
}
);
width = 662;
}
);
leftKerningGroup = C2;
rightKerningGroup = C;
unicode = 262;
},
{
glyphname = Ccaron;
layers = (
{
hints = (
{
horizontal = 1;
place = (-13,130);
type = Stem;
},
{
horizontal = 1;
place = (583,130);
type = Stem;
},
{
horizontal = 1;
place = (746,174);
type = Stem;
},
{
place = (25,145);
type = Stem;
}
);
layerId = "C557D8BE-4A15-4F65-8734-97D132B34265";
shapes = (
{
closed = 1;
nodes = (
(573,136,l),
(527,93,o),
(469,72,o),
(407,72,cs),
(250,72,o),
(149,196,o),
(149,348,cs),
(149,496,o),
(247,625,o),
(402,625,cs),
(464,625,o),
(521,605,o),
(567,563,c),
(631,622,l),
(569,689,o),
(493,712,o),
(402,712,cs),
(196,712,o),
(50,554,o),
(50,348,cs),
(50,147,o),
(203,-14,o),
(402,-14,cs),
(490,-14,o),
(579,13,o),
(641,76,c)
);
},
{
closed = 1;
nodes = (
(361,800,l),
(445,800,l),
(518,934,l),
(458,934,l),
(402,810,l),
(348,934,l),
(286,934,l)
);
}
);
width = 662;
}
);
leftKerningGroup = C2;
rightKerningGroup = C;
unicode = 268;
},
{
glyphname = Ccedilla;
layers = (
{
hints = (
{
horizontal = 1;
place = (-213,73);
type = Stem;
},
{
horizontal = 1;
place = (-13,130);
type = Stem;
},
{
horizontal = 1;
place = (583,130);
type = Stem;
},
{
place = (25,145);
type = Stem;
},
{
place = (392,79);
type = Stem;
}
);
layerId = "C557D8BE-4A15-4F65-8734-97D132B34265";
shapes = (
{
closed = 1;
nodes = (
(322,-214,l),
(341,-226,o),
(357,-228,o),
(382,-228,cs),
(428,-228,o),
(461,-201,o),
(461,-155,cs),
(461,-116,o),
(442,-99,o),
(406,-93,c),
(396,-91,l),
(430,-13,l),
(434,-13,l),
(511,-8,o),
(586,21,o),
(641,76,c),
(573,136,l),
(527,93,o),
(469,72,o),
(407,72,cs),
(250,72,o),
(149,196,o),
(149,348,cs),
(149,496,o),
(247,625,o),
(402,625,cs),
(464,625,o),
(521,605,o),
(567,563,c),
(631,622,l),
(569,689,o),
(493,712,o),
(402,712,cs),
(196,712,o),
(50,554,o),
(50,348,cs),
(50,151,o),
(193,-5,o),
(388,-14,c),
(397,-14,o),
(407,-15,o),
(416,-15,cs),
(426,-15,l),
(391,-97,l),
(414,-103,o),
(431,-122,o),
(431,-147,cs),
(431,-180,o),
(406,-203,o),
(373,-203,cs),
(361,-203,o),
(349,-200,o),
(338,-195,c)
);
}
);
width = 662;
}
);
leftKerningGroup = C2;
rightKerningGroup = C;
unicode = 199;
},
{
glyphname = Ccircumflex;
layers = (
{
hints = (
{
horizontal = 1;
place = (-13,130);
type = Stem;
},
{
horizontal = 1;
place = (583,130);
type = Stem;
},
{
horizontal = 1;
place = (746,174);
type = Stem;
},
{
place = (25,145);
type = Stem;
}
);
layerId = "C557D8BE-4A15-4F65-8734-97D132B34265";
shapes = (
{
closed = 1;
nodes = (
(573,136,l),
(527,93,o),
(469,72,o),
(407,72,cs),
(250,72,o),
(149,196,o),
(149,348,cs),
(149,496,o),
(247,625,o),
(402,625,cs),
(464,625,o),
(521,605,o),
(567,563,c),
(631,622,l),
(569,689,o),
(493,712,o),
(402,712,cs),
(196,712,o),
(50,554,o),
(50,348,cs),
(50,147,o),
(203,-14,o),
(402,-14,cs),
(490,-14,o),
(579,13,o),
(641,76,c)
);
},
{
closed = 1;
nodes = (
(286,800,l),
(348,800,l),
(402,924,l),
(458,800,l),
(518,800,l),
(445,934,l),
(361,934,l)
);
}
);
width = 662;
}
);
leftKerningGroup = C2;
rightKerningGroup = C;
unicode = 264;
},
{
glyphname = Cdotaccent;
layers = (
{
hints = (
{
horizontal = 1;
place = (-13,130);
type = Stem;
},
{
horizontal = 1;
place = (583,130);
type = Stem;
},
{
horizontal = 1;
place = (743,159);
type = Stem;
},
{
place = (25,145);
type = Stem;
},
{
place = (309,162);
type = Stem;
}
);
layerId = "C557D8BE-4A15-4F65-8734-97D132B34265";
shapes = (
{
closed = 1;
nodes = (
(573,136,l),
(527,93,o),
(469,72,o),
(407,72,cs),
(250,72,o),
(149,196,o),
(149,348,cs),
(149,496,o),
(247,625,o),
(402,625,cs),
(464,625,o),
(521,605,o),
(567,563,c),
(631,622,l),
(569,689,o),
(493,712,o),
(402,712,cs),
(196,712,o),
(50,554,o),
(50,348,cs),
(50,147,o),
(203,-14,o),
(402,-14,cs),
(490,-14,o),
(579,13,o),
(641,76,c)
);
},
{
closed = 1;
nodes = (
(437,797,o),
(461,822,o),
(461,856,cs),
(461,890,o),
(436,915,o),
(402,915,cs),
(370,915,o),
(345,889,o),
(345,856,cs),
(345,824,o),
(370,797,o),
(402,797,cs)
);
}
);
width = 662;
}
);
leftKerningGroup = C2;
rightKerningGroup = C;
unicode = 266;
},
{
glyphname = D;
layers = (
{
hints = (
{
horizontal = 1;
place = (0,126);
type = Stem;
},
{
horizontal = 1;
place = (574,126);
type = Stem;
},
{
place = (50,140);
type = Stem;
},
{
place = (514,145);
type = Stem;
}
);
layerId = "C557D8BE-4A15-4F65-8734-97D132B34265";
shapes = (
{
closed = 1;
nodes = (
(75,0,l),
(308,0,ls),
(526,0,o),
(655,127,o),
(655,348,cs),
(655,568,o),
(526,697,o),
(308,697,cs),
(75,697,l)
);
},
{
closed = 1;
nodes = (
(169,83,l),
(169,616,l),
(291,616,ls),
(459,616,o),
(557,517,o),
(557,348,cs),
(557,177,o),
(459,83,o),
(291,83,cs)
);
}
);
width = 684;
}
);
leftKerningGroup = B;
rightKerningGroup = D;
unicode = 68;
},
{
glyphname = Eth;
layers = (
{
hints = (
{
horizontal = 1;
place = (0,126);
type = Stem;
},
{
horizontal = 1;
place = (291,118);
type = Stem;
},
{
horizontal = 1;
place = (574,126);
type = Stem;
},
{
place = (98,140);
type = Stem;
},
{
place = (562,145);
type = Stem;
}
);
layerId = "C557D8BE-4A15-4F65-8734-97D132B34265";
shapes = (
{
closed = 1;
nodes = (
(127,0,l),
(360,0,ls),
(577,0,o),
(707,127,o),
(707,348,cs),
(707,568,o),
(578,697,o),
(360,697,cs),
(127,697,l),
(127,385,l),
(29,385,l),
(29,312,l),
(127,312,l)
);
},
{
closed = 1;
nodes = (
(221,83,l),
(221,312,l),
(370,312,l),
(370,385,l),
(221,385,l),
(221,616,l),
(342,616,ls),
(511,616,o),
(608,518,o),
(608,348,cs),
(608,176,o),
(510,83,o),
(342,83,cs)
);
}
);
width = 732;
}
);
leftKerningGroup = Eth;
rightKerningGroup = D;
unicode = 208;
},
{
glyphname = Dcaron;
layers = (
{
hints = (
{
horizontal = 1;
place = (0,126);
type = Stem;
},
{
horizontal = 1;
place = (574,126);
type = Stem;
},
{
horizontal = 1;
place = (746,174);
type = Stem;
},
{
place = (50,140);
type = Stem;
},
{
place = (514,145);
type = Stem;
}
);
layerId = "C557D8BE-4A15-4F65-8734-97D132B34265";
shapes = (
{
closed = 1;
nodes = (
(295,800,l),
(378,800,l),
(451,934,l),
(391,934,l),
(337,810,l),
(282,934,l),
(220,934,l)
);
},
{
closed = 1;
nodes = (
(75,0,l),
(308,0,ls),
(526,0,o),
(655,127,o),
(655,348,cs),
(655,568,o),
(526,697,o),
(308,697,cs),
(75,697,l)
);
},
{
closed = 1;
nodes = (
(169,83,l),
(169,616,l),
(291,616,ls),
(459,616,o),
(557,517,o),
(557,348,cs),
(557,177,o),
(459,83,o),
(291,83,cs)
);
}
);
width = 684;
}
);
leftKerningGroup = B;
rightKerningGroup = D;
unicode = 270;
},
{
glyphname = Dcroat;
layers = (
{
hints = (
{
horizontal = 1;
place = (0,126);
type = Stem;
},
{
horizontal = 1;
place = (291,118);
type = Stem;
},
{
horizontal = 1;
place = (574,126);
type = Stem;
},
{
place = (98,140);
type = Stem;
},
{
place = (562,145);
type = Stem;
}
);
layerId = "C557D8BE-4A15-4F65-8734-97D132B34265";
shapes = (
{
closed = 1;
nodes = (
(127,0,l),
(360,0,ls),
(577,0,o),
(707,127,o),
(707,348,cs),
(707,568,o),
(578,697,o),
(360,697,cs),
(127,697,l),
(127,385,l),
(29,385,l),
(29,312,l),
(127,312,l)
);
},
{
closed = 1;
nodes = (
(221,83,l),
(221,312,l),
(370,312,l),
(370,385,l),
(221,385,l),
(221,616,l),
(342,616,ls),
(511,616,o),
(608,518,o),
(608,348,cs),
(608,176,o),
(510,83,o),
(342,83,cs)
);
}
);
width = 732;
}
);
leftKerningGroup = Eth;
rightKerningGroup = D;
unicode = 272;
},
{
glyphname = uni1E0C;
layers = (
{
hints = (
{
horizontal = 1;
place = (-213,159);
type = Stem;
},
{
horizontal = 1;
place = (0,126);
type = Stem;
},
{
horizontal = 1;
place = (574,126);
type = Stem;
},
{
place = (50,140);
type = Stem;
},
{
place = (228,162);
type = Stem;
},
{
place = (514,145);
type = Stem;
}
);
layerId = "C557D8BE-4A15-4F65-8734-97D132B34265";
shapes = (
{
closed = 1;
nodes = (
(260,-203,o),
(285,-228,o),
(318,-228,cs),
(353,-228,o),
(376,-204,o),
(376,-169,cs),
(376,-136,o),
(352,-111,o),
(318,-111,cs),
(286,-111,o),
(260,-137,o),
(260,-169,cs)
);
},
{
closed = 1;
nodes = (
(75,0,l),
(308,0,ls),
(526,0,o),
(655,127,o),
(655,348,cs),
(655,568,o),
(526,697,o),
(308,697,cs),
(75,697,l)
);
},
{
closed = 1;
nodes = (
(169,83,l),
(169,616,l),
(291,616,ls),
(459,616,o),
(557,517,o),
(557,348,cs),
(557,177,o),
(459,83,o),
(291,83,cs)
);
}
);
width = 684;
}
);
leftKerningGroup = B;
rightKerningGroup = D;
unicode = 7692;
},
{
glyphname = E;
layers = (
{
hints = (
{
horizontal = 1;
place = (0,126);
type = Stem;
},
{
horizontal = 1;
place = (295,122);
type = Stem;
},
{
horizontal = 1;
place = (574,126);
type = Stem;
},
{
place = (50,140);
type = Stem;
}
);
layerId = "C557D8BE-4A15-4F65-8734-97D132B34265";
shapes = (
{
closed = 1;
nodes = (
(75,0,l),
(451,0,l),
(451,83,l),
(169,83,l),
(169,316,l),
(444,316,l),
(444,395,l),
(169,395,l),
(169,616,l),
(449,616,l),
(449,697,l),
(75,697,l)
);
}
);
width = 501;
}
);
leftKerningGroup = B;
rightKerningGroup = E;
unicode = 69;
},
{
glyphname = Eacute;
layers = (
{
hints = (
{
horizontal = 1;
place = (0,126);
type = Stem;
},
{
horizontal = 1;
place = (295,122);
type = Stem;
},
{
horizontal = 1;
place = (574,126);
type = Stem;
},
{
horizontal = 1;
place = (746,174);
type = Stem;
},
{
place = (50,140);
type = Stem;
}
);
layerId = "C557D8BE-4A15-4F65-8734-97D132B34265";
shapes = (
{
closed = 1;
nodes = (
(75,0,l),
(451,0,l),
(451,83,l),
(169,83,l),
(169,316,l),
(444,316,l),
(444,395,l),
(169,395,l),
(169,616,l),
(449,616,l),
(449,697,l),
(75,697,l)
);
},
{
closed = 1;
nodes = (
(250,800,l),
(298,800,l),
(364,934,l),
(282,934,l)
);
}
);
width = 501;
}
);
leftKerningGroup = B;
rightKerningGroup = E;
unicode = 201;
},
{
glyphname = Ecaron;
layers = (
{
hints = (
{
horizontal = 1;
place = (0,126);
type = Stem;
},
{
horizontal = 1;
place = (295,122);
type = Stem;
},
{
horizontal = 1;
place = (574,126);
type = Stem;
},
{
horizontal = 1;
place = (746,174);
type = Stem;
},
{
place = (50,140);
type = Stem;
}
);
layerId = "C557D8BE-4A15-4F65-8734-97D132B34265";
shapes = (
{
closed = 1;
nodes = (
(75,0,l),
(451,0,l),
(451,83,l),
(169,83,l),
(169,316,l),
(444,316,l),
(444,395,l),
(169,395,l),
(169,616,l),
(449,616,l),
(449,697,l),
(75,697,l)
);
},
{
closed = 1;
nodes = (
(226,800,l),
(309,800,l),
(382,934,l),
(322,934,l),
(267,810,l),
(212,934,l),
(151,934,l)
);
}
);
width = 501;
}
);
leftKerningGroup = B;
rightKerningGroup = E;
unicode = 282;
},
{
glyphname = Ecircumflex;
layers = (
{
hints = (
{
horizontal = 1;
place = (0,126);
type = Stem;
},
{
horizontal = 1;
place = (295,122);
type = Stem;
},
{
horizontal = 1;
place = (574,126);
type = Stem;
},
{
horizontal = 1;
place = (746,174);
type = Stem;
},
{
place = (50,140);
type = Stem;
}
);
layerId = "C557D8BE-4A15-4F65-8734-97D132B34265";
shapes = (
{
closed = 1;
nodes = (
(75,0,l),
(451,0,l),
(451,83,l),
(169,83,l),
(169,316,l),
(444,316,l),
(444,395,l),
(169,395,l),
(169,616,l),
(449,616,l),
(449,697,l),
(75,697,l)
);
},
{
closed = 1;
nodes = (
(151,800,l),
(212,800,l),
(267,924,l),
(322,800,l),
(382,800,l),
(309,934,l),
(226,934,l)
);
}
);
width = 501;
}
);
leftKerningGroup = B;
rightKerningGroup = E;
unicode = 202;
},
{
glyphname = uni1EBE;
layers = (
{
hints = (
{
horizontal = 1;
place = (0,126);
type = Stem;
},
{
horizontal = 1;
place = (295,122);
type = Stem;
},
{
horizontal = 1;
place = (574,126);
type = Stem;
},
{
horizontal = 1;
place = (746,174);
type = Stem;
},
{
horizontal = 1;
place = (848,72);
type = Stem;
},
{
horizontal = 1;
place = (848,174);
type = Stem;
},
{
place = (50,140);
type = Stem;
}
);
layerId = "C557D8BE-4A15-4F65-8734-97D132B34265";
shapes = (
{
closed = 1;
nodes = (
(75,0,l),
(451,0,l),
(451,83,l),
(169,83,l),
(169,316,l),
(444,316,l),
(444,395,l),
(169,395,l),
(169,616,l),
(449,616,l),
(449,697,l),
(75,697,l)
);
},
{
closed = 1;
nodes = (
(151,800,l),
(212,800,l),
(267,924,l),
(322,800,l),
(382,800,l),
(309,934,l),
(226,934,l)
);
},
{
closed = 1;
nodes = (
(412,909,l),
(461,909,l),
(526,1043,l),
(445,1043,l)
);
}
);
width = 501;
}
);
leftKerningGroup = B;
rightKerningGroup = E;
unicode = 7870;
},
{
glyphname = uni1EC6;
layers = (
{
hints = (
{
horizontal = 1;
place = (-213,159);
type = Stem;
},
{
horizontal = 1;
place = (0,126);
type = Stem;
},
{
horizontal = 1;
place = (295,122);
type = Stem;
},
{
horizontal = 1;
place = (574,126);
type = Stem;
},
{
horizontal = 1;
place = (746,174);
type = Stem;
},
{
place = (50,140);
type = Stem;
},
{
place = (189,162);
type = Stem;
}
);
layerId = "C557D8BE-4A15-4F65-8734-97D132B34265";
shapes = (
{
closed = 1;
nodes = (
(75,0,l),
(451,0,l),
(451,83,l),
(169,83,l),
(169,316,l),
(444,316,l),
(444,395,l),
(169,395,l),
(169,616,l),
(449,616,l),
(449,697,l),
(75,697,l)
);
},
{
closed = 1;
nodes = (
(151,800,l),
(212,800,l),
(267,924,l),
(322,800,l),
(382,800,l),
(309,934,l),
(226,934,l)
);
},
{
closed = 1;
nodes = (
(219,-203,o),
(245,-228,o),
(278,-228,cs),
(312,-228,o),
(336,-204,o),
(336,-169,cs),
(336,-136,o),
(311,-111,o),
(278,-111,cs),
(246,-111,o),
(219,-137,o),
(219,-169,cs)
);
}
);
width = 501;
}
);
leftKerningGroup = B;
rightKerningGroup = E;
unicode = 7878;
},
{
glyphname = uni1EC0;
layers = (
{
hints = (
{
horizontal = 1;
place = (0,126);
type = Stem;
},
{
horizontal = 1;
place = (295,122);
type = Stem;
},
{
horizontal = 1;
place = (574,126);
type = Stem;
},
{
horizontal = 1;
place = (746,174);
type = Stem;
},
{
horizontal = 1;
place = (848,72);
type = Stem;
},
{
horizontal = 1;
place = (848,174);
type = Stem;
},
{
place = (50,140);
type = Stem;
}
);
layerId = "C557D8BE-4A15-4F65-8734-97D132B34265";
shapes = (
{
closed = 1;
nodes = (
(79,0,l),
(453,0,l),
(453,83,l),
(172,83,l),
(172,316,l),
(446,316,l),
(446,395,l),
(172,395,l),
(172,616,l),
(451,616,l),
(451,697,l),
(79,697,l)
);
},
{
closed = 1;
nodes = (
(82,909,l),
(133,909,l),
(108,1043,l),
(9,1043,l)
);
},
{
closed = 1;
nodes = (
(154,800,l),
(215,800,l),
(271,924,l),
(325,800,l),
(385,800,l),
(312,934,l),
(229,934,l)
);
}
);
width = 501;
}
);
leftKerningGroup = B;
rightKerningGroup = E;
unicode = 7872;
},
{
glyphname = uni1EC2;
layers = (
{
hints = (
{
horizontal = 1;
place = (0,126);
type = Stem;
},
{
horizontal = 1;
place = (295,122);
type = Stem;
},
{
horizontal = 1;
place = (574,126);
type = Stem;
},
{
horizontal = 1;
place = (746,174);
type = Stem;
},
{
horizontal = 1;
place = (929,75);
type = Stem;
},
{
horizontal = 1;
place = (1031,108);
type = Stem;
},
{
horizontal = 1;
place = (1061,78);
type = Stem;
},
{
place = (50,140);
type = Stem;
},
{
place = (141,84);
type = Stem;
},
{
place = (282,87);
type = Stem;
}
);
layerId = "C557D8BE-4A15-4F65-8734-97D132B34265";
shapes = (
{
closed = 1;
nodes = (
(75,0,l),
(451,0,l),
(451,83,l),
(169,83,l),
(169,316,l),
(444,316,l),
(444,395,l),
(169,395,l),
(169,616,l),
(449,616,l),
(449,697,l),
(75,697,l)
);
},
{
closed = 1;
nodes = (
(151,800,l),
(212,800,l),
(267,924,l),
(322,800,l),
(382,800,l),
(309,934,l),
(226,934,l)
);
},
{
closed = 1;
nodes = (
(241,999,l),
(249,997,o),
(257,996,o),
(265,996,cs),
(320,996,o),
(355,1029,o),
(355,1086,cs),
(355,1139,o),
(313,1168,o),
(262,1168,cs),
(220,1168,o),
(184,1145,o),
(174,1105,c),
(210,1105,l),
(219,1125,o),
(239,1138,o),
(261,1138,cs),
(291,1138,o),
(315,1113,o),
(315,1083,cs),
(315,1045,o),
(290,1024,o),
(255,1024,cs),
(253,1024,o),
(250,1024,o),
(248,1024,c)
);
}
);
width = 501;
}
);
leftKerningGroup = B;
rightKerningGroup = E;
unicode = 7874;
},
{
glyphname = uni1EC4;
layers = (
{
hints = (
{
horizontal = 1;
place = (0,126);
type = Stem;
},
{
horizontal = 1;
place = (295,122);
type = Stem;
},
{
horizontal = 1;
place = (574,126);
type = Stem;
},
{
horizontal = 1;
place = (746,174);
type = Stem;
},
{
horizontal = 1;
place = (929,92);
type = Stem;
},
{
horizontal = 1;
place = (929,143);
type = Stem;
},
{
horizontal = 1;
place = (993,90);
type = Stem;
},
{
place = (50,140);
type = Stem;
},
{
place = (58,86);
type = Stem;
},
{
place = (375,87);
type = Stem;
}
);
layerId = "C557D8BE-4A15-4F65-8734-97D132B34265";
shapes = (
{
closed = 1;
nodes = (
(75,0,l),
(451,0,l),
(451,83,l),
(169,83,l),
(169,316,l),
(444,316,l),
(444,395,l),
(169,395,l),
(169,616,l),
(449,616,l),
(449,697,l),
(75,697,l)
);
},
{
closed = 1;
nodes = (
(125,1011,l),
(134,1044,o),
(160,1065,o),
(195,1065,cs),
(211,1065,o),
(226,1060,o),
(238,1054,c),
(244,1050,o),
(250,1046,o),
(256,1042,cs),
(261,1038,o),
(267,1034,o),
(273,1030,cs),
(295,1012,o),
(317,996,o),
(352,996,cs),
(414,996,o),
(444,1038,o),
(449,1097,c),
(410,1097,l),
(405,1067,o),
(385,1042,o),
(351,1042,cs),
(337,1042,o),
(323,1047,o),
(312,1053,cs),
(306,1056,o),
(301,1060,o),
(295,1064,cs),
(290,1068,o),
(284,1073,o),
(279,1077,cs),
(257,1093,o),
(233,1108,o),
(196,1108,cs),
(137,1108,o),
(95,1070,o),
(86,1011,c)
);
},
{
closed = 1;
nodes = (
(151,800,l),
(212,800,l),
(267,924,l),
(322,800,l),
(382,800,l),
(309,934,l),
(226,934,l)
);
}
);
width = 501;
}
);
leftKerningGroup = B;
rightKerningGroup = E;
unicode = 7876;
},
{
glyphname = Edieresis;
layers = (
{
hints = (
{
horizontal = 1;
place = (0,126);
type = Stem;
},
{
horizontal = 1;
place = (295,122);
type = Stem;
},
{
horizontal = 1;
place = (574,126);
type = Stem;
},
{
horizontal = 1;
place = (743,159);
type = Stem;
},
{
place = (50,140);
type = Stem;
},
{
place = (73,162);
type = Stem;
},
{
place = (285,162);
type = Stem;
}
);
layerId = "C557D8BE-4A15-4F65-8734-97D132B34265";
shapes = (
{
closed = 1;
nodes = (
(75,0,l),
(451,0,l),
(451,83,l),
(169,83,l),
(169,316,l),
(444,316,l),
(444,395,l),
(169,395,l),
(169,616,l),
(449,616,l),
(449,697,l),
(75,697,l)
);
},
{
closed = 1;
nodes = (
(99,823,o),
(125,797,o),
(158,797,cs),
(192,797,o),
(215,822,o),
(215,856,cs),
(215,890,o),
(191,915,o),
(158,915,cs),
(126,915,o),
(99,889,o),
(99,856,cs)
);
},
{
closed = 1;
nodes = (
(411,797,o),
(436,822,o),
(436,856,cs),
(436,890,o),
(410,915,o),
(377,915,cs),
(345,915,o),
(319,889,o),
(319,856,cs),
(319,823,o),
(344,797,o),
(377,797,cs)
);
}
);
width = 501;
}
);
leftKerningGroup = B;
rightKerningGroup = E;
unicode = 203;
},
{
glyphname = Edotaccent;
layers = (
{
hints = (
{
horizontal = 1;
place = (0,126);
type = Stem;
},
{
horizontal = 1;
place = (295,122);
type = Stem;
},
{
horizontal = 1;
place = (574,126);
type = Stem;
},
{
horizontal = 1;
place = (743,159);
type = Stem;
},
{
place = (50,140);
type = Stem;
},
{
place = (179,162);
type = Stem;
}
);
layerId = "C557D8BE-4A15-4F65-8734-97D132B34265";
shapes = (
{
closed = 1;
nodes = (
(75,0,l),
(451,0,l),
(451,83,l),
(169,83,l),
(169,316,l),
(444,316,l),
(444,395,l),
(169,395,l),
(169,616,l),
(449,616,l),
(449,697,l),
(75,697,l)
);
},
{
closed = 1;
nodes = (
(301,797,o),
(325,822,o),
(325,856,cs),
(325,890,o),
(300,915,o),
(267,915,cs),
(235,915,o),
(209,889,o),
(209,856,cs),
(209,824,o),
(235,797,o),
(267,797,cs)
);
}
);
width = 501;
}
);
leftKerningGroup = B;
rightKerningGroup = E;
unicode = 278;
},
{
glyphname = uni1EB8;
layers = (
{
hints = (
{
horizontal = 1;
place = (-213,159);
type = Stem;
},
{
horizontal = 1;
place = (0,126);
type = Stem;
},
{
horizontal = 1;
place = (295,122);
type = Stem;
},
{
horizontal = 1;
place = (574,126);
type = Stem;
},
{
place = (50,140);
type = Stem;
},
{
place = (189,162);
type = Stem;
}
);
layerId = "C557D8BE-4A15-4F65-8734-97D132B34265";
shapes = (
{
closed = 1;
nodes = (
(75,0,l),
(451,0,l),
(451,83,l),
(169,83,l),
(169,316,l),
(444,316,l),
(444,395,l),
(169,395,l),
(169,616,l),
(449,616,l),
(449,697,l),
(75,697,l)
);
},
{
closed = 1;
nodes = (
(219,-203,o),
(245,-228,o),
(278,-228,cs),
(312,-228,o),
(336,-204,o),
(336,-169,cs),
(336,-136,o),
(311,-111,o),
(278,-111,cs),
(246,-111,o),
(219,-137,o),
(219,-169,cs)
);
}
);
width = 501;
}
);
leftKerningGroup = B;
rightKerningGroup = E;
unicode = 7864;
},
{
glyphname = Egrave;
layers = (
{
hints = (
{
horizontal = 1;
place = (0,126);
type = Stem;
},
{
horizontal = 1;
place = (295,122);
type = Stem;
},
{
horizontal = 1;
place = (574,126);
type = Stem;
},
{
horizontal = 1;
place = (746,174);
type = Stem;
},
{
place = (50,140);
type = Stem;
}
);
layerId = "C557D8BE-4A15-4F65-8734-97D132B34265";
shapes = (
{
closed = 1;
nodes = (
(75,0,l),
(451,0,l),
(451,83,l),
(169,83,l),
(169,316,l),
(444,316,l),
(444,395,l),
(169,395,l),
(169,616,l),
(449,616,l),
(449,697,l),
(75,697,l)
);
},
{
closed = 1;
nodes = (
(238,800,l),
(289,800,l),
(263,934,l),
(165,934,l)
);
}
);
width = 501;
}
);
leftKerningGroup = B;
rightKerningGroup = E;
unicode = 200;
},
{
glyphname = uni1EBA;
layers = (
{
hints = (
{
horizontal = 1;
place = (0,126);
type = Stem;
},
{
horizontal = 1;
place = (295,122);
type = Stem;
},
{
horizontal = 1;
place = (574,126);
type = Stem;
},
{
horizontal = 1;
place = (737,75);
type = Stem;
},
{
horizontal = 1;
place = (839,108);
type = Stem;
},
{
horizontal = 1;
place = (869,78);
type = Stem;
},
{
place = (50,140);
type = Stem;
},
{
place = (141,84);
type = Stem;
},
{
place = (282,87);
type = Stem;
}
);
layerId = "C557D8BE-4A15-4F65-8734-97D132B34265";
shapes = (
{
closed = 1;
nodes = (
(75,0,l),
(451,0,l),
(451,83,l),
(169,83,l),
(169,316,l),
(444,316,l),
(444,395,l),
(169,395,l),
(169,616,l),
(449,616,l),
(449,697,l),
(75,697,l)
);
},
{
closed = 1;
nodes = (
(241,793,l),
(249,791,o),
(257,790,o),
(265,790,cs),
(320,790,o),
(355,823,o),
(355,880,cs),
(355,933,o),
(313,962,o),
(262,962,cs),
(220,962,o),
(185,939,o),
(174,900,c),
(210,900,l),
(220,920,o),
(240,932,o),
(261,932,cs),
(291,932,o),
(315,907,o),
(315,877,cs),
(315,839,o),
(290,818,o),
(255,818,cs),
(253,818,o),
(250,818,o),
(248,818,c)
);
}
);
width = 501;
}
);
leftKerningGroup = B;
rightKerningGroup = E;
unicode = 7866;
},
{
glyphname = Emacron;
layers = (
{
hints = (
{
horizontal = 1;
place = (0,126);
type = Stem;
},
{
horizontal = 1;
place = (295,122);
type = Stem;
},
{
horizontal = 1;
place = (574,126);
type = Stem;
},
{
horizontal = 1;
place = (778,90);
type = Stem;
},
{
place = (50,140);
type = Stem;
},
{
place = (108,306);
type = Stem;
}
);
layerId = "C557D8BE-4A15-4F65-8734-97D132B34265";
shapes = (
{
closed = 1;
nodes = (
(75,0,l),
(451,0,l),
(451,83,l),
(169,83,l),
(169,316,l),
(444,316,l),
(444,395,l),
(169,395,l),
(169,616,l),
(449,616,l),
(449,697,l),
(75,697,l)
);
},
{
closed = 1;
nodes = (
(136,834,l),
(401,834,l),
(401,878,l),
(136,878,l)
);
}
);
width = 501;
}
);
leftKerningGroup = B;
rightKerningGroup = E;
unicode = 274;
},
{
glyphname = Eogonek;
layers = (
{
hints = (
{
horizontal = 1;
place = (-213,94);
type = Stem;
},
{
horizontal = 1;
place = (-202,21);
target = up;
type = BottomGhost;
},
{
horizontal = 1;
place = (0,126);
type = Stem;
},
{
horizontal = 1;
place = (295,122);
type = Stem;
},
{
horizontal = 1;
place = (574,126);
type = Stem;
},
{
place = (50,140);
type = Stem;
},
{
place = (288,94);
type = Stem;
},
{
place = (288,174);
type = Stem;
}
);
layerId = "C557D8BE-4A15-4F65-8734-97D132B34265";
shapes = (
{
closed = 1;
nodes = (
(75,0,l),
(447,0,l),
(385,-49,ls),
(376,-56,o),
(368,-62,o),
(360,-69,cs),
(352,-75,o),
(346,-83,o),
(340,-90,cs),
(330,-104,o),
(322,-120,o),
(322,-145,cs),
(322,-203,o),
(365,-228,o),
(420,-228,cs),
(437,-228,o),
(452,-226,o),
(467,-224,c),
(455,-180,l),
(415,-186,o),
(368,-162,o),
(368,-115,cs),
(368,-89,o),
(381,-68,o),
(398,-52,cs),
(407,-44,o),
(416,-37,o),
(426,-31,c),
(435,-24,o),
(443,-19,o),
(451,-14,c),
(451,83,l),
(169,83,l),
(169,316,l),
(444,316,l),
(444,395,l),
(169,395,l),
(169,616,l),
(449,616,l),
(449,697,l),
(75,697,l)
);
}
);
width = 501;
}
);
leftKerningGroup = B;
rightKerningGroup = E;
unicode = 280;
},
{
glyphname = uni1EBC;
layers = (
{
hints = (
{
horizontal = 1;
place = (0,126);
type = Stem;
},
{
horizontal = 1;
place = (295,122);
type = Stem;
},
{
horizontal = 1;
place = (574,126);
type = Stem;
},
{
horizontal = 1;
place = (737,92);
type = Stem;
},
{
horizontal = 1;
place = (737,143);
type = Stem;
},
{
horizontal = 1;
place = (801,90);
type = Stem;
},
{
place = (50,94);
type = Stem;
},
{
place = (50,140);
type = Stem;
},
{
place = (58,86);
type = Stem;
},
{
place = (375,87);
type = Stem;
}
);
layerId = "C557D8BE-4A15-4F65-8734-97D132B34265";
shapes = (
{
closed = 1;
nodes = (
(75,0,l),
(451,0,l),
(451,83,l),
(169,83,l),
(169,316,l),
(444,316,l),
(444,395,l),
(169,395,l),
(169,616,l),
(449,616,l),
(449,697,l),
(75,697,l)
);
},
{
closed = 1;
nodes = (
(125,805,l),
(134,838,o),
(160,859,o),
(195,859,cs),
(211,859,o),
(226,854,o),
(238,848,c),
(244,844,o),
(250,840,o),
(256,836,cs),
(262,832,o),
(267,828,o),
(273,824,cs),
(295,806,o),
(317,790,o),
(352,790,cs),
(414,790,o),
(444,832,o),
(449,891,c),
(410,891,l),
(405,862,o),
(385,836,o),
(351,836,cs),
(337,836,o),
(323,841,o),
(312,847,cs),
(306,850,o),
(301,854,o),
(295,858,c),
(290,863,o),
(284,867,o),
(279,871,cs),
(257,887,o),
(233,902,o),
(196,902,cs),
(137,902,o),
(95,864,o),
(86,805,c)
);
}
);
width = 501;
}
);
leftKerningGroup = B;
rightKerningGroup = E;
unicode = 7868;
},
{
glyphname = F;
layers = (
{
hints = (
{
horizontal = 1;
place = (0,21);
target = up;
type = BottomGhost;
},
{
horizontal = 1;
place = (286,124);
type = Stem;
},
{
horizontal = 1;
place = (574,126);
type = Stem;
},
{
place = (50,140);
type = Stem;
}
);
layerId = "C557D8BE-4A15-4F65-8734-97D132B34265";
shapes = (
{
closed = 1;
nodes = (
(75,0,l),
(169,0,l),
(169,307,l),
(445,307,l),
(445,386,l),
(169,386,l),
(169,616,l),
(450,616,l),
(450,697,l),
(75,697,l)
);
}
);
width = 496;
}
);
leftKerningGroup = B;
unicode = 70;
},
{
glyphname = G;
layers = (
{
hints = (
{
horizontal = 1;
place = (-13,128);
type = Stem;
},
{
horizontal = 1;
place = (275,125);
type = Stem;
},
{
horizontal = 1;
place = (583,130);
type = Stem;
},
{
place = (25,145);
type = Stem;
}
);
layerId = "C557D8BE-4A15-4F65-8734-97D132B34265";
shapes = (
{
closed = 1;
nodes = (
(394,294,l),
(637,296,l),
(636,288,ls),
(621,148,o),
(546,70,o),
(402,70,cs),
(247,70,o),
(149,200,o),
(149,348,cs),
(149,496,o),
(247,625,o),
(402,625,cs),
(463,625,o),
(522,606,o),
(567,564,c),
(633,623,l),
(571,689,o),
(492,712,o),
(402,712,cs),
(201,712,o),
(50,550,o),
(50,348,cs),
(50,147,o),
(203,-14,o),
(402,-14,cs),
(600,-14,o),
(727,120,o),
(727,319,cs),
(727,338,o),
(726,357,o),
(725,376,c),
(394,376,l)
);
}
);
width = 752;
}
);
leftKerningGroup = C2;
rightKerningGroup = G;
unicode = 71;
},
{
glyphname = Gbreve;
layers = (
{
hints = (
{
horizontal = 1;
place = (-13,128);
type = Stem;
},
{
horizontal = 1;
place = (275,125);
type = Stem;
},
{
horizontal = 1;
place = (583,130);
type = Stem;
},
{
horizontal = 1;
place = (737,83);
type = Stem;
},
{
horizontal = 1;
place = (737,139);
type = Stem;
},
{
place = (25,145);
type = Stem;
},
{
place = (230,107);
type = Stem;
},
{
place = (443,107);
type = Stem;
}
);
layerId = "C557D8BE-4A15-4F65-8734-97D132B34265";
shapes = (
{
closed = 1;
nodes = (
(394,294,l),
(637,296,l),
(636,288,ls),
(621,148,o),
(546,70,o),
(402,70,cs),
(247,70,o),
(149,200,o),
(149,348,cs),
(149,496,o),
(247,625,o),
(402,625,cs),
(463,625,o),
(522,606,o),
(567,564,c),
(633,623,l),
(571,689,o),
(492,712,o),
(402,712,cs),
(201,712,o),
(50,550,o),
(50,348,cs),
(50,147,o),
(203,-14,o),
(402,-14,cs),
(600,-14,o),
(727,120,o),
(727,319,cs),
(727,338,o),
(726,357,o),
(725,376,c),
(394,376,l)
);
},
{
closed = 1;
nodes = (
(265,887,l),
(277,822,o),
(337,790,o),
(402,790,cs),
(468,790,o),
(529,821,o),
(541,887,c),
(481,887,l),
(472,850,o),
(440,827,o),
(402,827,cs),
(365,827,o),
(335,851,o),
(326,887,c)
);
}
);
width = 752;
}
);
leftKerningGroup = C2;
rightKerningGroup = G;
unicode = 286;
},
{
glyphname = Gcircumflex;
layers = (
{
hints = (
{
horizontal = 1;
place = (-13,128);
type = Stem;
},
{
horizontal = 1;
place = (275,125);
type = Stem;
},
{
horizontal = 1;
place = (583,130);
type = Stem;
},
{
horizontal = 1;
place = (746,174);
type = Stem;
},
{
place = (25,145);
type = Stem;
}
);
layerId = "C557D8BE-4A15-4F65-8734-97D132B34265";
shapes = (
{
closed = 1;
nodes = (
(394,294,l),
(637,296,l),
(636,288,ls),
(621,148,o),
(546,70,o),
(402,70,cs),
(247,70,o),
(149,200,o),
(149,348,cs),
(149,496,o),
(247,625,o),
(402,625,cs),
(463,625,o),
(522,606,o),
(567,564,c),
(633,623,l),
(571,689,o),
(492,712,o),
(402,712,cs),
(201,712,o),
(50,550,o),
(50,348,cs),
(50,147,o),
(203,-14,o),
(402,-14,cs),
(600,-14,o),
(727,120,o),
(727,319,cs),
(727,338,o),
(726,357,o),
(725,376,c),
(394,376,l)
);
},
{
closed = 1;
nodes = (
(286,800,l),
(348,800,l),
(402,924,l),
(458,800,l),
(518,800,l),
(445,934,l),
(361,934,l)
);
}
);
width = 752;
}
);
leftKerningGroup = C2;
rightKerningGroup = G;
unicode = 284;
},
{
glyphname = uni0122;
layers = (
{
hints = (
{
horizontal = 1;
place = (-200,155);
type = Stem;
},
{
horizontal = 1;
place = (-13,128);
type = Stem;
},
{
horizontal = 1;
place = (275,125);
type = Stem;
},
{
horizontal = 1;
place = (583,130);
type = Stem;
},
{
place = (25,145);
type = Stem;
}
);
layerId = "C557D8BE-4A15-4F65-8734-97D132B34265";
shapes = (
{
closed = 1;
nodes = (
(394,294,l),
(637,296,l),
(636,288,ls),
(621,148,o),
(546,70,o),
(402,70,cs),
(247,70,o),
(149,200,o),
(149,348,cs),
(149,496,o),
(247,625,o),
(402,625,cs),
(463,625,o),
(522,606,o),
(567,564,c),
(633,623,l),
(571,689,o),
(492,712,o),
(402,712,cs),
(201,712,o),
(50,550,o),
(50,348,cs),
(50,147,o),
(203,-14,o),
(402,-14,cs),
(600,-14,o),
(727,120,o),
(727,319,cs),
(727,338,o),
(726,357,o),
(725,376,c),
(394,376,l)
);
},
{
closed = 1;
nodes = (
(328,-214,l),
(358,-214,l),
(427,-101,l),
(352,-101,l)
);
}
);
width = 752;
}
);
leftKerningGroup = C2;
rightKerningGroup = G;
unicode = 290;
},
{
glyphname = Gdotaccent;
layers = (
{
hints = (
{
horizontal = 1;
place = (-13,128);
type = Stem;
},
{
horizontal = 1;
place = (275,125);
type = Stem;
},
{
horizontal = 1;
place = (583,130);
type = Stem;
},
{
horizontal = 1;
place = (743,159);
type = Stem;
},
{
place = (25,145);
type = Stem;
},
{
place = (309,162);
type = Stem;
}
);
layerId = "C557D8BE-4A15-4F65-8734-97D132B34265";
shapes = (
{
closed = 1;
nodes = (
(394,294,l),
(637,296,l),
(636,288,ls),
(621,148,o),
(546,70,o),
(402,70,cs),
(247,70,o),
(149,200,o),
(149,348,cs),
(149,496,o),
(247,625,o),
(402,625,cs),
(463,625,o),
(522,606,o),
(567,564,c),
(633,623,l),
(571,689,o),
(492,712,o),
(402,712,cs),
(201,712,o),
(50,550,o),
(50,348,cs),
(50,147,o),
(203,-14,o),
(402,-14,cs),
(600,-14,o),
(727,120,o),
(727,319,cs),
(727,338,o),
(726,357,o),
(725,376,c),
(394,376,l)
);
},
{
closed = 1;
nodes = (
(437,797,o),
(461,822,o),
(461,856,cs),
(461,890,o),
(436,915,o),
(402,915,cs),
(370,915,o),
(345,889,o),
(345,856,cs),
(345,824,o),
(370,797,o),
(402,797,cs)
);
}
);
width = 752;
}
);
leftKerningGroup = C2;
rightKerningGroup = G;
unicode = 288;
},
{
glyphname = uni1E20;
layers = (
{
hints = (
{
horizontal = 1;
place = (-13,128);
type = Stem;
},
{
horizontal = 1;
place = (275,125);
type = Stem;
},
{
horizontal = 1;
place = (583,130);
type = Stem;
},
{
horizontal = 1;
place = (778,90);
type = Stem;
},
{
place = (25,145);
type = Stem;
},
{
place = (238,306);
type = Stem;
}
);
layerId = "C557D8BE-4A15-4F65-8734-97D132B34265";
shapes = (
{
closed = 1;
nodes = (
(394,294,l),
(637,296,l),
(636,288,ls),
(621,148,o),
(546,70,o),
(402,70,cs),
(247,70,o),
(149,200,o),
(149,348,cs),
(149,496,o),
(247,625,o),
(402,625,cs),
(463,625,o),
(522,606,o),
(567,564,c),
(633,623,l),
(571,689,o),
(492,712,o),
(402,712,cs),
(201,712,o),
(50,550,o),
(50,348,cs),
(50,147,o),
(203,-14,o),
(402,-14,cs),
(600,-14,o),
(727,120,o),
(727,319,cs),
(727,338,o),
(726,357,o),
(725,376,c),
(394,376,l)
);
},
{
closed = 1;
nodes = (
(271,834,l),
(537,834,l),
(537,878,l),
(271,878,l)
);
}
);
width = 752;
}
);
leftKerningGroup = C2;
rightKerningGroup = G;
unicode = 7712;
},
{
glyphname = H;
layers = (
{
hints = (
{
horizontal = 1;
place = (0,21);
target = up;
type = BottomGhost;
},
{
horizontal = 1;
place = (292,126);
type = Stem;
},
{
horizontal = 1;
place = (700,-20);
target = down;
type = TopGhost;
},
{
place = (50,140);
type = Stem;
},
{
place = (480,140);
type = Stem;
}
);
layerId = "C557D8BE-4A15-4F65-8734-97D132B34265";
shapes = (
{
closed = 1;
nodes = (
(75,0,l),
(169,0,l),
(169,313,l),
(521,313,l),
(521,0,l),
(614,0,l),
(614,697,l),
(521,697,l),
(521,396,l),
(169,396,l),
(169,697,l),
(75,697,l)
);
}
);
width = 670;
}
);
leftKerningGroup = B;
rightKerningGroup = H;
unicode = 72;
},
{
glyphname = Hbar;
layers = (
{
hints = (
{
horizontal = 1;
place = (0,21);
target = up;
type = BottomGhost;
},
{
horizontal = 1;
place = (292,126);
type = Stem;
},
{
horizontal = 1;
place = (511,94);
type = Stem;
},
{
horizontal = 1;
place = (511,189);
type = Stem;
},
{
place = (50,140);
type = Stem;
},
{
place = (480,140);
type = Stem;
}
);
layerId = "C557D8BE-4A15-4F65-8734-97D132B34265";
shapes = (
{
closed = 1;
nodes = (
(78,0,l),
(170,0,l),
(170,313,l),
(523,313,l),
(523,0,l),
(617,0,l),
(617,549,l),
(664,549,l),
(664,596,l),
(617,596,l),
(617,697,l),
(523,697,l),
(523,596,l),
(170,596,l),
(170,697,l),
(78,697,l),
(78,596,l),
(29,596,l),
(29,549,l),
(78,549,l)
);
},
{
closed = 1;
nodes = (
(170,396,l),
(170,549,l),
(523,549,l),
(523,396,l)
);
}
);
width = 670;
}
);
leftKerningGroup = B;
rightKerningGroup = H;
unicode = 294;
},
{
glyphname = uni1E2A;
layers = (
{
hints = (
{
horizontal = 1;
place = (-221,83);
type = Stem;
},
{
horizontal = 1;
place = (-221,139);
type = Stem;
},
{
horizontal = 1;
place = (0,21);
target = up;
type = BottomGhost;
},
{
horizontal = 1;
place = (292,126);
type = Stem;
},
{
horizontal = 1;
place = (700,-20);
target = down;
type = TopGhost;
},
{
place = (50,140);
type = Stem;
},
{
place = (175,107);
type = Stem;
},
{
place = (388,107);
type = Stem;
},
{
place = (480,140);
type = Stem;
}
);
layerId = "C557D8BE-4A15-4F65-8734-97D132B34265";
shapes = (
{
closed = 1;
nodes = (
(75,0,l),
(169,0,l),
(169,313,l),
(521,313,l),
(521,0,l),
(614,0,l),
(614,697,l),
(521,697,l),
(521,396,l),
(169,396,l),
(169,697,l),
(75,697,l)
);
},
{
closed = 1;
nodes = (
(207,-141,l),
(219,-206,o),
(279,-237,o),
(345,-237,cs),
(410,-237,o),
(470,-207,o),
(483,-141,c),
(423,-141,l),
(414,-177,o),
(382,-201,o),
(345,-201,cs),
(307,-201,o),
(277,-177,o),
(268,-141,c)
);
}
);
width = 670;
}
);
leftKerningGroup = B;
rightKerningGroup = H;
unicode = 7722;
},
{
glyphname = Hcircumflex;
layers = (
{
hints = (
{
horizontal = 1;
place = (0,21);
target = up;
type = BottomGhost;
},
{
horizontal = 1;
place = (292,126);
type = Stem;
},
{
horizontal = 1;
place = (700,-20);
target = down;
type = TopGhost;
},
{
horizontal = 1;
place = (746,174);
type = Stem;
},
{
place = (50,140);
type = Stem;
},
{
place = (480,140);
type = Stem;
}
);
layerId = "C557D8BE-4A15-4F65-8734-97D132B34265";
shapes = (
{
closed = 1;
nodes = (
(75,0,l),
(169,0,l),
(169,313,l),
(521,313,l),
(521,0,l),
(614,0,l),
(614,697,l),
(521,697,l),
(521,396,l),
(169,396,l),
(169,697,l),
(75,697,l)
);
},
{
closed = 1;
nodes = (
(229,800,l),
(290,800,l),
(345,924,l),
(400,800,l),
(460,800,l),
(387,934,l),
(303,934,l)
);
}
);
width = 670;
}
);
leftKerningGroup = B;
rightKerningGroup = H;
unicode = 292;
},
{
glyphname = uni1E24;
layers = (
{
hints = (
{
horizontal = 1;
place = (-213,159);
type = Stem;
},
{
horizontal = 1;
place = (0,21);
target = up;
type = BottomGhost;
},
{
horizontal = 1;
place = (292,126);
type = Stem;
},
{
horizontal = 1;
place = (700,-20);
target = down;
type = TopGhost;
},
{
place = (50,140);
type = Stem;
},
{
place = (254,162);
type = Stem;
},
{
place = (480,140);
type = Stem;
}
);
layerId = "C557D8BE-4A15-4F65-8734-97D132B34265";
shapes = (
{
closed = 1;
nodes = (
(75,0,l),
(169,0,l),
(169,313,l),
(521,313,l),
(521,0,l),
(614,0,l),
(614,697,l),
(521,697,l),
(521,396,l),
(169,396,l),
(169,697,l),
(75,697,l)
);
},
{
closed = 1;
nodes = (
(379,-228,o),
(403,-204,o),
(403,-169,cs),
(403,-136,o),
(378,-111,o),
(345,-111,cs),
(312,-111,o),
(287,-137,o),
(287,-169,cs),
(287,-203,o),
(311,-228,o),
(345,-228,cs)
);
}
);
width = 670;
}
);
leftKerningGroup = B;
rightKerningGroup = H;
unicode = 7716;
},
{
glyphname = I;
layers = (
{
hints = (
{
horizontal = 1;
place = (0,21);
target = up;
type = BottomGhost;
},
{
horizontal = 1;
place = (700,-20);
target = down;
type = TopGhost;
},
{
place = (50,140);
type = Stem;
}
);
layerId = "C557D8BE-4A15-4F65-8734-97D132B34265";
shapes = (
{
closed = 1;
nodes = (
(75,0,l),
(169,0,l),
(169,697,l),
(75,697,l)
);
}
);
width = 240;
}
);
leftKerningGroup = B;
rightKerningGroup = H;
unicode = 73;
},
{
glyphname = IJ;
layers = (
{
hints = (
{
horizontal = 1;
place = (-11,126);
type = Stem;
},
{
horizontal = 1;
place = (0,21);
target = up;
type = BottomGhost;
},
{
horizontal = 1;
place = (700,-20);
target = down;
type = TopGhost;
},
{
place = (50,140);
type = Stem;
},
{
place = (441,140);
type = Stem;
}
);
layerId = "C557D8BE-4A15-4F65-8734-97D132B34265";
shapes = (
{
closed = 1;
nodes = (
(75,0,l),
(169,0,l),
(169,697,l),
(75,697,l)
);
},
{
closed = 1;
nodes = (
(283,3,l),
(314,-8,o),
(358,-12,o),
(390,-12,cs),
(508,-12,o),
(574,54,o),
(574,173,cs),
(574,697,l),
(481,697,l),
(481,178,ls),
(481,109,o),
(437,70,o),
(370,70,cs),
(352,70,o),
(334,72,o),
(316,79,c)
);
}
);
width = 626;
}
);
leftKerningGroup = B;
rightKerningGroup = J;
unicode = 306;
},
{
glyphname = Iacute;
layers = (
{
hints = (
{
horizontal = 1;
place = (0,21);
target = up;
type = BottomGhost;
},
{
horizontal = 1;
place = (700,-20);
target = down;
type = TopGhost;
},
{
horizontal = 1;
place = (746,174);
type = Stem;
},
{
place = (50,140);
type = Stem;
}
);
layerId = "C557D8BE-4A15-4F65-8734-97D132B34265";
shapes = (
{
closed = 1;
nodes = (
(75,0,l),
(169,0,l),
(169,697,l),
(75,697,l)
);
},
{
closed = 1;
nodes = (
(104,800,l),
(154,800,l),
(219,934,l),
(137,934,l)
);
}
);
width = 240;
}
);
leftKerningGroup = B;
rightKerningGroup = H;
unicode = 205;
},
{
glyphname = Icircumflex;
layers = (
{
hints = (
{
horizontal = 1;
place = (0,21);
target = up;
type = BottomGhost;
},
{
horizontal = 1;
place = (700,-20);
target = down;
type = TopGhost;
},
{
horizontal = 1;
place = (746,174);
type = Stem;
},
{
place = (50,140);
type = Stem;
}
);
layerId = "C557D8BE-4A15-4F65-8734-97D132B34265";
shapes = (
{
closed = 1;
nodes = (
(79,0,l),
(172,0,l),
(172,697,l),
(79,697,l)
);
},
{
closed = 1;
nodes = (
(9,800,l),
(71,800,l),
(125,924,l),
(180,800,l),
(239,800,l),
(167,934,l),
(84,934,l)
);
}
);
width = 240;
}
);
leftKerningGroup = B;
rightKerningGroup = H;
unicode = 206;
},
{
glyphname = Idieresis;
layers = (
{
hints = (
{
horizontal = 1;
place = (0,21);
target = up;
type = BottomGhost;
},
{
horizontal = 1;
place = (700,-20);
target = down;
type = TopGhost;
},
{
horizontal = 1;
place = (743,159);
type = Stem;
},
{
place = (-67,162);
type = Stem;
},
{
place = (50,45);
type = Stem;
},
{
place = (50,140);
type = Stem;
},
{
place = (145,45);
type = Stem;
},
{
place = (145,162);
type = Stem;
}
);
layerId = "C557D8BE-4A15-4F65-8734-97D132B34265";
shapes = (
{
closed = 1;
nodes = (
(80,0,l),
(173,0,l),
(173,697,l),
(80,697,l)
);
},
{
closed = 1;
nodes = (
(-42,823,o),
(-17,797,o),
(17,797,cs),
(51,797,o),
(75,822,o),
(75,856,cs),
(75,890,o),
(50,915,o),
(17,915,cs),
(-16,915,o),
(-42,889,o),
(-42,856,cs)
);
},
{
closed = 1;
nodes = (
(178,823,o),
(203,797,o),
(237,797,cs),
(271,797,o),
(294,822,o),
(294,856,cs),
(294,890,o),
(270,915,o),
(237,915,cs),
(204,915,o),
(178,889,o),
(178,856,cs)
);
}
);
width = 240;
}
);
leftKerningGroup = B;
rightKerningGroup = H;
unicode = 207;
},
{
glyphname = Idotaccent;
layers = (
{
hints = (
{
horizontal = 1;
place = (0,21);
target = up;
type = BottomGhost;
},
{
horizontal = 1;
place = (700,-20);
target = down;
type = TopGhost;
},
{
horizontal = 1;
place = (743,159);
type = Stem;
},
{
place = (50,140);
type = Stem;
}
);
layerId = "C557D8BE-4A15-4F65-8734-97D132B34265";
shapes = (
{
closed = 1;
nodes = (
(76,0,l),
(169,0,l),
(169,697,l),
(76,697,l)
);
},
{
closed = 1;
nodes = (
(64,823,o),
(89,797,o),
(123,797,cs),
(157,797,o),
(181,822,o),
(181,856,cs),
(181,890,o),
(156,915,o),
(123,915,cs),
(90,915,o),
(64,889,o),
(64,856,cs)
);
}
);
width = 240;
}
);
leftKerningGroup = B;
rightKerningGroup = H;
unicode = 304;
},
{
glyphname = uni1ECA;
layers = (
{
hints = (
{
horizontal = 1;
place = (-213,159);
type = Stem;
},
{
horizontal = 1;
place = (0,21);
target = up;
type = BottomGhost;
},
{
horizontal = 1;
place = (700,-20);
target = down;
type = TopGhost;
},
{
place = (50,140);
type = Stem;
}
);
layerId = "C557D8BE-4A15-4F65-8734-97D132B34265";
shapes = (
{
closed = 1;
nodes = (
(76,0,l),
(169,0,l),
(169,697,l),
(76,697,l)
);
},
{
closed = 1;
nodes = (
(64,-203,o),
(89,-228,o),
(123,-228,cs),
(157,-228,o),
(181,-204,o),
(181,-169,cs),
(181,-136,o),
(156,-111,o),
(123,-111,cs),
(90,-111,o),
(64,-137,o),
(64,-169,cs)
);
}
);
width = 240;
}
);
leftKerningGroup = B;
rightKerningGroup = H;
unicode = 7882;
},
{
glyphname = Igrave;
layers = (
{
hints = (
{
horizontal = 1;
place = (0,21);
target = up;
type = BottomGhost;
},
{
horizontal = 1;
place = (700,-20);
target = down;
type = TopGhost;
},
{
horizontal = 1;
place = (746,174);
type = Stem;
},
{
place = (50,140);
type = Stem;
}
);
layerId = "C557D8BE-4A15-4F65-8734-97D132B34265";
shapes = (
{
closed = 1;
nodes = (
(78,0,l),
(172,0,l),
(172,697,l),
(78,697,l)
);
},
{
closed = 1;
nodes = (
(95,800,l),
(146,800,l),
(121,934,l),
(22,934,l)
);
}
);
width = 240;
}
);
leftKerningGroup = B;
rightKerningGroup = H;
unicode = 204;
},
{
glyphname = uni1EC8;
layers = (
{
hints = (
{
horizontal = 1;
place = (0,21);
target = up;
type = BottomGhost;
},
{
horizontal = 1;
place = (700,-20);
target = down;
type = TopGhost;
},
{
horizontal = 1;
place = (737,75);
type = Stem;
},
{
horizontal = 1;
place = (839,108);
type = Stem;
},
{
horizontal = 1;
place = (869,78);
type = Stem;
},
{
place = (1,84);
type = Stem;
},
{
place = (50,140);
type = Stem;
},
{
place = (142,87);
type = Stem;
}
);
layerId = "C557D8BE-4A15-4F65-8734-97D132B34265";
shapes = (
{
closed = 1;
nodes = (
(78,0,l),
(170,0,l),
(170,697,l),
(78,697,l)
);
},
{
closed = 1;
nodes = (
(97,793,l),
(105,791,o),
(114,790,o),
(122,790,cs),
(178,790,o),
(211,823,o),
(211,880,cs),
(211,933,o),
(170,962,o),
(119,962,cs),
(78,962,o),
(42,939,o),
(31,900,c),
(67,900,l),
(78,920,o),
(96,932,o),
(118,932,cs),
(148,932,o),
(172,907,o),
(172,877,cs),
(172,839,o),
(147,818,o),
(112,818,cs),
(109,818,o),
(107,818,o),
(104,818,c)
);
}
);
width = 240;
}
);
leftKerningGroup = B;
rightKerningGroup = H;
unicode = 7880;
},
{
glyphname = Imacron;
layers = (
{
hints = (
{
horizontal = 1;
place = (0,21);
target = up;
type = BottomGhost;
},
{
horizontal = 1;
place = (700,-20);
target = down;
type = TopGhost;
},
{
horizontal = 1;
place = (778,90);
type = Stem;
},
{
place = (50,140);
type = Stem;
}
);
layerId = "C557D8BE-4A15-4F65-8734-97D132B34265";
shapes = (
{
closed = 1;
nodes = (
(79,0,l),
(172,0,l),
(172,697,l),
(79,697,l)
);
},
{
closed = 1;
nodes = (
(-7,834,l),
(259,834,l),
(259,878,l),
(-7,878,l)
);
}
);
width = 240;
}
);
leftKerningGroup = B;
rightKerningGroup = H;
unicode = 298;
},
{
glyphname = Iogonek;
layers = (
{
hints = (
{
horizontal = 1;
place = (-213,94);
type = Stem;
},
{
horizontal = 1;
place = (-202,21);
target = up;
type = BottomGhost;
},
{
horizontal = 1;
place = (0,21);
target = up;
type = BottomGhost;
},
{
horizontal = 1;
place = (700,-20);
target = down;
type = TopGhost;
},
{
place = (34,85);
type = Stem;
},
{
place = (50,69);
type = Stem;
},
{
place = (50,140);
type = Stem;
}
);
layerId = "C557D8BE-4A15-4F65-8734-97D132B34265";
shapes = (
{
closed = 1;
nodes = (
(175,-180,l),
(173,-180,o),
(171,-180,o),
(169,-180,cs),
(132,-180,o),
(96,-158,o),
(96,-115,cs),
(96,-89,o),
(108,-69,o),
(124,-53,cs),
(131,-45,o),
(139,-38,o),
(148,-32,c),
(155,-25,o),
(163,-19,o),
(170,-13,c),
(170,-2,l),
(157,-12,l),
(146,-22,o),
(134,-32,o),
(123,-41,cs),
(111,-50,o),
(100,-60,o),
(90,-70,c),
(72,-91,o),
(59,-114,o),
(59,-145,cs),
(59,-199,o),
(93,-228,o),
(146,-228,cs),
(159,-228,o),
(172,-227,o),
(185,-224,c)
);
},
{
closed = 1;
nodes = (
(76,0,l),
(170,0,l),
(170,697,l),
(76,697,l)
);
}
);
width = 240;
}
);
leftKerningGroup = B;
rightKerningGroup = H;
unicode = 302;
},
{
glyphname = Itilde;
layers = (
{
hints = (
{
horizontal = 1;
place = (0,21);
target = up;
type = BottomGhost;
},
{
horizontal = 1;
place = (700,-20);
target = down;
type = TopGhost;
},
{
horizontal = 1;
place = (737,92);
type = Stem;
},
{
horizontal = 1;
place = (737,143);
type = Stem;
},
{
horizontal = 1;
place = (801,90);
type = Stem;
},
{
place = (-82,86);
type = Stem;
},
{
place = (50,140);
type = Stem;
},
{
place = (235,87);
type = Stem;
}
);
layerId = "C557D8BE-4A15-4F65-8734-97D132B34265";
shapes = (
{
closed = 1;
nodes = (
(80,0,l),
(174,0,l),
(174,697,l),
(80,697,l)
);
},
{
closed = 1;
nodes = (
(-16,805,l),
(-6,837,o),
(20,859,o),
(54,859,cs),
(71,859,o),
(85,854,o),
(98,848,c),
(104,844,o),
(110,840,o),
(116,836,cs),
(121,832,o),
(127,828,o),
(132,824,cs),
(154,806,o),
(176,790,o),
(211,790,cs),
(274,790,o),
(304,831,o),
(309,891,c),
(270,891,l),
(264,862,o),
(243,836,o),
(210,836,cs),
(196,836,o),
(183,841,o),
(171,847,cs),
(160,853,o),
(150,863,o),
(138,871,cs),
(116,887,o),
(91,902,o),
(55,902,cs),
(-4,902,o),
(-45,863,o),
(-55,805,c)
);
}
);
width = 240;
}
);
leftKerningGroup = B;
rightKerningGroup = H;
unicode = 296;
},
{
glyphname = J;
layers = (
{
hints = (
{
horizontal = 1;
place = (-11,126);
type = Stem;
},
{
horizontal = 1;
place = (700,-20);
target = down;
type = TopGhost;
},
{
place = (201,140);
type = Stem;
}
);
layerId = "C557D8BE-4A15-4F65-8734-97D132B34265";
shapes = (
{
closed = 1;
nodes = (
(36,3,l),
(67,-8,o),
(111,-12,o),
(143,-12,cs),
(261,-12,o),
(327,54,o),
(327,173,cs),
(327,697,l),
(234,697,l),
(234,178,ls),
(234,108,o),
(190,70,o),
(123,70,cs),
(105,70,o),
(87,72,o),
(69,79,c)
);
}
);
width = 386;
}
);
rightKerningGroup = J;
unicode = 74;
},
{
glyphname = uni004A0301;
layers = (
{
hints = (
{
horizontal = 1;
place = (-11,126);
type = Stem;
},
{
horizontal = 1;
place = (700,-20);
target = down;
type = TopGhost;
},
{
horizontal = 1;
place = (746,174);
type = Stem;
},
{
place = (201,140);
type = Stem;
}
);
layerId = "C557D8BE-4A15-4F65-8734-97D132B34265";
shapes = (
{
closed = 1;
nodes = (
(36,3,l),
(67,-8,o),
(111,-12,o),
(143,-12,cs),
(261,-12,o),
(327,54,o),
(327,173,cs),
(327,697,l),
(234,697,l),
(234,178,ls),
(234,108,o),
(190,70,o),
(123,70,cs),
(105,70,o),
(87,72,o),
(69,79,c)
);
},
{
closed = 1;
nodes = (
(262,800,l),
(312,800,l),
(377,934,l),
(295,934,l)
);
}
);
width = 386;
}
);
leftKerningGroup = Jcircumflex;
rightKerningGroup = J;
},
{
glyphname = Jcircumflex;
layers = (
{
hints = (
{
horizontal = 1;
place = (-11,126);
type = Stem;
},
{
horizontal = 1;
place = (700,-20);
target = down;
type = TopGhost;
},
{
horizontal = 1;
place = (746,174);
type = Stem;
},
{
place = (201,140);
type = Stem;
}
);
layerId = "C557D8BE-4A15-4F65-8734-97D132B34265";
shapes = (
{
closed = 1;
nodes = (
(36,3,l),
(67,-8,o),
(111,-12,o),
(143,-12,cs),
(261,-12,o),
(327,54,o),
(327,173,cs),
(327,697,l),
(234,697,l),
(234,178,ls),
(234,108,o),
(190,70,o),
(123,70,cs),
(105,70,o),
(87,72,o),
(69,79,c)
);
},
{
closed = 1;
nodes = (
(164,800,l),
(226,800,l),
(280,924,l),
(335,800,l),
(395,800,l),
(322,934,l),
(239,934,l)
);
}
);
width = 386;
}
);
leftKerningGroup = Jcircumflex;
rightKerningGroup = J;
unicode = 308;
},
{
glyphname = K;
layers = (
{
hints = (
{
horizontal = 1;
place = (0,21);
target = up;
type = BottomGhost;
},
{
horizontal = 1;
place = (700,-20);
target = down;
type = TopGhost;
},
{
place = (50,140);
type = Stem;
}
);
layerId = "C557D8BE-4A15-4F65-8734-97D132B34265";
shapes = (
{
closed = 1;
nodes = (
(458,0,l),
(579,0,l),
(296,372,l),
(556,697,l),
(435,697,l),
(187,359,l)
);
},
{
closed = 1;
nodes = (
(75,0,l),
(169,0,l),
(169,697,l),
(75,697,l)
);
}
);
width = 588;
}
);
leftKerningGroup = B;
rightKerningGroup = K;
unicode = 75;
},
{
glyphname = uni0136;
layers = (
{
hints = (
{
horizontal = 1;
place = (-200,155);
type = Stem;
},
{
horizontal = 1;
place = (0,21);
target = up;
type = BottomGhost;
},
{
horizontal = 1;
place = (700,-20);
target = down;
type = TopGhost;
},
{
place = (50,140);
type = Stem;
}
);
layerId = "C557D8BE-4A15-4F65-8734-97D132B34265";
shapes = (
{
closed = 1;
nodes = (
(458,0,l),
(579,0,l),
(296,372,l),
(556,697,l),
(435,697,l),
(187,359,l)
);
},
{
closed = 1;
nodes = (
(75,0,l),
(169,0,l),
(169,697,l),
(75,697,l)
);
},
{
closed = 1;
nodes = (
(237,-214,l),
(268,-214,l),
(337,-101,l),
(261,-101,l)
);
}
);
width = 588;
}
);
leftKerningGroup = B;
rightKerningGroup = K;
unicode = 310;
},
{
glyphname = uni1E34;
layers = (
{
hints = (
{
horizontal = 1;
place = (-181,90);
type = Stem;
},
{
horizontal = 1;
place = (0,21);
target = up;
type = BottomGhost;
},
{
horizontal = 1;
place = (700,-20);
target = down;
type = TopGhost;
},
{
place = (50,140);
type = Stem;
},
{
place = (150,40);
type = Stem;
}
);
layerId = "C557D8BE-4A15-4F65-8734-97D132B34265";
shapes = (
{
closed = 1;
nodes = (
(458,0,l),
(579,0,l),
(296,372,l),
(556,697,l),
(435,697,l),
(187,359,l)
);
},
{
closed = 1;
nodes = (
(75,0,l),
(169,0,l),
(169,697,l),
(75,697,l)
);
},
{
closed = 1;
nodes = (
(179,-194,l),
(445,-194,l),
(445,-151,l),
(179,-151,l)
);
}
);
width = 588;
}
);
leftKerningGroup = B;
rightKerningGroup = K;
unicode = 7732;
},
{
glyphname = L;
layers = (
{
anchors = (
{
name = t.uni030C.alt;
position = "{278, 700}";
}
);
hints = (
{
horizontal = 1;
place = (0,126);
type = Stem;
},
{
horizontal = 1;
place = (700,-20);
target = down;
type = TopGhost;
},
{
place = (50,140);
type = Stem;
}
);
layerId = "C557D8BE-4A15-4F65-8734-97D132B34265";
shapes = (
{
closed = 1;
nodes = (
(75,0,l),
(440,0,l),
(440,83,l),
(169,83,l),
(169,697,l),
(75,697,l)
);
}
);
width = 476;
}
);
leftKerningGroup = B;
rightKerningGroup = L;
unicode = 76;
},
{
glyphname = Lacute;
layers = (
{
anchors = (
{
name = t.uni030C.alt;
position = "{278, 700}";
}
);
hints = (
{
horizontal = 1;
place = (0,126);
type = Stem;
},
{
horizontal = 1;
place = (700,-20);
target = down;
type = TopGhost;
},
{
horizontal = 1;
place = (746,174);
type = Stem;
},
{
place = (50,140);
type = Stem;
}
);
layerId = "C557D8BE-4A15-4F65-8734-97D132B34265";
shapes = (
{
closed = 1;
nodes = (
(75,0,l),
(440,0,l),
(440,83,l),
(169,83,l),
(169,697,l),
(75,697,l)
);
},
{
closed = 1;
nodes = (
(100,800,l),
(150,800,l),
(214,934,l),
(133,934,l)
);
}
);
width = 476;
}
);
leftKerningGroup = B;
rightKerningGroup = L;
unicode = 313;
},
{
glyphname = Lcaron;
layers = (
{
anchors = (
{
name = t.uni030C.alt;
position = "{278, 700}";
}
);
hints = (
{
horizontal = 1;
place = (0,126);
type = Stem;
},
{
horizontal = 1;
place = (496,204);
type = Stem;
},
{
place = (50,140);
type = Stem;
}
);
layerId = "C557D8BE-4A15-4F65-8734-97D132B34265";
shapes = (
{
closed = 1;
nodes = (
(75,0,l),
(440,0,l),
(440,83,l),
(169,83,l),
(169,697,l),
(75,697,l)
);
},
{
closed = 1;
nodes = (
(292,532,l),
(341,532,l),
(416,697,l),
(332,697,l)
);
}
);
width = 476;
}
);
leftKerningGroup = B;
unicode = 317;
},
{
glyphname = uni013B;
layers = (
{
anchors = (
{
name = t.uni030C.alt;
position = "{278, 700}";
}
);
hints = (
{
horizontal = 1;
place = (-200,155);
type = Stem;
},
{
horizontal = 1;
place = (0,126);
type = Stem;
},
{
horizontal = 1;
place = (700,-20);
target = down;
type = TopGhost;
},
{
place = (50,140);
type = Stem;
}
);
layerId = "C557D8BE-4A15-4F65-8734-97D132B34265";
shapes = (
{
closed = 1;
nodes = (
(75,0,l),
(440,0,l),
(440,83,l),
(169,83,l),
(169,697,l),
(75,697,l)
);
},
{
closed = 1;
nodes = (
(195,-214,l),
(227,-214,l),
(295,-101,l),
(219,-101,l)
);
}
);
width = 476;
}
);
leftKerningGroup = B;
rightKerningGroup = L;
unicode = 315;
},
{
glyphname = uni1E36;
layers = (
{
anchors = (
{
name = t.uni030C.alt;
position = "{278, 700}";
}
);
hints = (
{
horizontal = 1;
place = (-213,159);
type = Stem;
},
{
horizontal = 1;
place = (0,126);
type = Stem;
},
{
horizontal = 1;
place = (700,-20);
target = down;
type = TopGhost;
},
{
place = (50,140);
type = Stem;
},
{
place = (182,162);
type = Stem;
}
);
layerId = "C557D8BE-4A15-4F65-8734-97D132B34265";
shapes = (
{
closed = 1;
nodes = (
(75,0,l),
(440,0,l),
(440,83,l),
(169,83,l),
(169,697,l),
(75,697,l)
);
},
{
closed = 1;
nodes = (
(212,-203,o),
(238,-228,o),
(271,-228,cs),
(304,-228,o),
(329,-203,o),
(329,-169,cs),
(329,-137,o),
(303,-111,o),
(271,-111,cs),
(239,-111,o),
(212,-137,o),
(212,-169,cs)
);
}
);
width = 476;
}
);
leftKerningGroup = B;
rightKerningGroup = L;
unicode = 7734;
},
{
glyphname = uni1E38;
layers = (
{
anchors = (
{
name = t.uni030C.alt;
position = "{278, 700}";
}
);
hints = (
{
horizontal = 1;
place = (-213,159);
type = Stem;
},
{
horizontal = 1;
place = (0,126);
type = Stem;
},
{
horizontal = 1;
place = (700,-20);
target = down;
type = TopGhost;
},
{
horizontal = 1;
place = (778,90);
type = Stem;
},
{
place = (50,140);
type = Stem;
},
{
place = (182,162);
type = Stem;
}
);
layerId = "C557D8BE-4A15-4F65-8734-97D132B34265";
shapes = (
{
closed = 1;
nodes = (
(79,0,l),
(442,0,l),
(442,83,l),
(172,83,l),
(172,697,l),
(79,697,l)
);
},
{
closed = 1;
nodes = (
(-11,834,l),
(255,834,l),
(255,878,l),
(-11,878,l)
);
},
{
closed = 1;
nodes = (
(215,-203,o),
(241,-228,o),
(274,-228,cs),
(308,-228,o),
(331,-204,o),
(331,-169,cs),
(331,-136,o),
(307,-111,o),
(274,-111,cs),
(242,-111,o),
(215,-137,o),
(215,-169,cs)
);
}
);
width = 476;
}
);
leftKerningGroup = B;
rightKerningGroup = L;
unicode = 7736;
},
{
glyphname = uni1E3A;
layers = (
{
anchors = (
{
name = t.uni030C.alt;
position = "{278, 700}";
}
);
hints = (
{
horizontal = 1;
place = (-181,90);
type = Stem;
},
{
horizontal = 1;
place = (0,126);
type = Stem;
},
{
horizontal = 1;
place = (700,-20);
target = down;
type = TopGhost;
},
{
place = (50,140);
type = Stem;
},
{
place = (110,306);
type = Stem;
}
);
layerId = "C557D8BE-4A15-4F65-8734-97D132B34265";
shapes = (
{
closed = 1;
nodes = (
(75,0,l),
(440,0,l),
(440,83,l),
(169,83,l),
(169,697,l),
(75,697,l)
);
},
{
closed = 1;
nodes = (
(138,-194,l),
(403,-194,l),
(403,-151,l),
(138,-151,l)
);
}
);
width = 476;
}
);
leftKerningGroup = B;
rightKerningGroup = L;
unicode = 7738;
},
{
glyphname = Lslash;
layers = (
{
anchors = (
{
name = t.uni030C.alt;
position = "{278, 700}";
}
);
hints = (
{
horizontal = 1;
place = (0,126);
type = Stem;
},
{
horizontal = 1;
place = (528,-20);
target = down;
type = TopGhost;
},
{
horizontal = 1;
place = (700,-20);
target = down;
type = TopGhost;
},
{
place = (50,140);
type = Stem;
}
);
layerId = "C557D8BE-4A15-4F65-8734-97D132B34265";
shapes = (
{
closed = 1;
nodes = (
(78,0,l),
(442,0,l),
(442,83,l),
(172,83,l),
(172,342,l),
(268,411,l),
(268,487,l),
(172,412,l),
(172,697,l),
(78,697,l),
(78,360,l),
(1,304,l),
(1,234,l),
(78,291,l)
);
}
);
width = 476;
}
);
leftKerningGroup = Lslash;
rightKerningGroup = L;
unicode = 321;
},
{
glyphname = M;
layers = (
{
hints = (
{
horizontal = 1;
place = (0,21);
target = up;
type = BottomGhost;
},
{
horizontal = 1;
place = (700,-20);
target = down;
type = TopGhost;
},
{
place = (50,137);
type = Stem;
},
{
place = (701,137);
type = Stem;
}
);
layerId = "C557D8BE-4A15-4F65-8734-97D132B34265";
shapes = (
{
closed = 1;
nodes = (
(75,0,l),
(166,0,l),
(166,277,ls),
(166,349,o),
(163,420,o),
(156,491,cs),
(140,649,l),
(439,0,l),
(478,0,l),
(777,649,l),
(761,491,ls),
(753,420,o),
(750,350,o),
(750,277,cs),
(750,0,l),
(840,0,l),
(840,697,l),
(707,697,l),
(564,381,ls),
(550,350,o),
(535,317,o),
(520,284,c),
(507,252,o),
(495,219,o),
(486,185,cs),
(462,93,l),
(437,185,l),
(427,218,o),
(415,252,o),
(401,284,cs),
(387,317,o),
(372,349,o),
(358,381,cs),
(214,697,l),
(75,697,l)
);
}
);
width = 888;
}
);
leftKerningGroup = B;
rightKerningGroup = H;
unicode = 77;
},
{
glyphname = uni1E40;
layers = (
{
hints = (
{
horizontal = 1;
place = (0,21);
target = up;
type = BottomGhost;
},
{
horizontal = 1;
place = (700,-20);
target = down;
type = TopGhost;
},
{
horizontal = 1;
place = (743,159);
type = Stem;
},
{
place = (50,137);
type = Stem;
},
{
place = (362,162);
type = Stem;
},
{
place = (701,137);
type = Stem;
}
);
layerId = "C557D8BE-4A15-4F65-8734-97D132B34265";
shapes = (
{
closed = 1;
nodes = (
(75,0,l),
(166,0,l),
(166,277,ls),
(166,349,o),
(163,420,o),
(156,491,cs),
(140,649,l),
(439,0,l),
(478,0,l),
(777,649,l),
(761,491,ls),
(753,420,o),
(750,350,o),
(750,277,cs),
(750,0,l),
(840,0,l),
(840,697,l),
(707,697,l),
(564,381,ls),
(550,350,o),
(535,317,o),
(520,284,c),
(507,252,o),
(495,219,o),
(486,185,cs),
(462,93,l),
(437,185,l),
(427,218,o),
(415,252,o),
(401,284,cs),
(387,317,o),
(372,349,o),
(358,381,cs),
(214,697,l),
(75,697,l)
);
},
{
closed = 1;
nodes = (
(491,797,o),
(515,822,o),
(515,856,cs),
(515,890,o),
(490,915,o),
(457,915,cs),
(424,915,o),
(399,889,o),
(399,856,cs),
(399,823,o),
(423,797,o),
(457,797,cs)
);
}
);
width = 888;
}
);
leftKerningGroup = B;
rightKerningGroup = H;
unicode = 7744;
},
{
glyphname = uni1E42;
layers = (
{
hints = (
{
horizontal = 1;
place = (-213,159);
type = Stem;
},
{
horizontal = 1;
place = (0,21);
target = up;
type = BottomGhost;
},
{
horizontal = 1;
place = (700,-20);
target = down;
type = TopGhost;
},
{
place = (50,137);
type = Stem;
},
{
place = (363,162);
type = Stem;
},
{
place = (701,137);
type = Stem;
}
);
layerId = "C557D8BE-4A15-4F65-8734-97D132B34265";
shapes = (
{
closed = 1;
nodes = (
(75,0,l),
(166,0,l),
(166,277,ls),
(166,349,o),
(163,420,o),
(156,491,cs),
(140,649,l),
(439,0,l),
(478,0,l),
(777,649,l),
(761,491,ls),
(753,420,o),
(750,350,o),
(750,277,cs),
(750,0,l),
(840,0,l),
(840,697,l),
(707,697,l),
(564,381,ls),
(550,350,o),
(535,317,o),
(520,284,c),
(507,252,o),
(495,219,o),
(486,185,cs),
(462,93,l),
(437,185,l),
(427,218,o),
(415,252,o),
(401,284,cs),
(387,317,o),
(372,349,o),
(358,381,cs),
(214,697,l),
(75,697,l)
);
},
{
closed = 1;
nodes = (
(492,-228,o),
(516,-204,o),
(516,-169,cs),
(516,-136,o),
(491,-111,o),
(458,-111,cs),
(425,-111,o),
(400,-137,o),
(400,-169,cs),
(400,-203,o),
(424,-228,o),
(458,-228,cs)
);
}
);
width = 888;
}
);
leftKerningGroup = B;
rightKerningGroup = H;
unicode = 7746;
},
{
glyphname = N;
layers = (
{
hints = (
{
horizontal = 1;
place = (0,21);
target = up;
type = BottomGhost;
},
{
horizontal = 1;
place = (700,-20);
target = down;
type = TopGhost;
},
{
place = (50,130);
type = Stem;
},
{
place = (538,128);
type = Stem;
}
);
layerId = "C557D8BE-4A15-4F65-8734-97D132B34265";
shapes = (
{
closed = 1;
nodes = (
(75,0,l),
(159,0,l),
(159,369,l),
(159,442,o),
(153,491,o),
(144,566,cs),
(140,596,l),
(157,571,l),
(178,537,o),
(198,504,o),
(222,472,cs),
(230,462,o),
(239,453,o),
(247,442,c),
(605,0,l),
(663,0,l),
(663,697,l),
(581,697,l),
(581,346,l),
(581,270,o),
(586,227,o),
(597,150,cs),
(601,119,l),
(584,145,ls),
(550,198,o),
(530,226,o),
(493,273,cs),
(149,697,l),
(75,697,l)
);
}
);
width = 716;
}
);
leftKerningGroup = B;
rightKerningGroup = H;
unicode = 78;
},
{
glyphname = Nacute;
layers = (
{
hints = (
{
horizontal = 1;
place = (0,21);
target = up;
type = BottomGhost;
},
{
horizontal = 1;
place = (700,-20);
target = down;
type = TopGhost;
},
{
horizontal = 1;
place = (746,174);
type = Stem;
},
{
place = (50,130);
type = Stem;
},
{
place = (538,128);
type = Stem;
}
);
layerId = "C557D8BE-4A15-4F65-8734-97D132B34265";
shapes = (
{
closed = 1;
nodes = (
(75,0,l),
(159,0,l),
(159,369,l),
(159,442,o),
(153,491,o),
(144,566,cs),
(140,596,l),
(157,571,l),
(178,537,o),
(198,504,o),
(222,472,cs),
(230,462,o),
(239,453,o),
(247,442,c),
(605,0,l),
(663,0,l),
(663,697,l),
(581,697,l),
(581,346,l),
(581,270,o),
(586,227,o),
(597,150,cs),
(601,119,l),
(584,145,ls),
(550,198,o),
(530,226,o),
(493,273,cs),
(149,697,l),
(75,697,l)
);
},
{
closed = 1;
nodes = (
(370,800,l),
(418,800,l),
(484,934,l),
(402,934,l)
);
}
);
width = 716;
}
);
leftKerningGroup = B;
rightKerningGroup = H;
unicode = 323;
},
{
glyphname = Ncaron;
layers = (
{
hints = (
{
horizontal = 1;
place = (0,21);
target = up;
type = BottomGhost;
},
{
horizontal = 1;
place = (700,-20);
target = down;
type = TopGhost;
},
{
horizontal = 1;
place = (746,174);
type = Stem;
},
{
place = (50,130);
type = Stem;
},
{
place = (538,128);
type = Stem;
}
);
layerId = "C557D8BE-4A15-4F65-8734-97D132B34265";
shapes = (
{
closed = 1;
nodes = (
(75,0,l),
(159,0,l),
(159,369,l),
(159,442,o),
(153,491,o),
(144,566,cs),
(140,596,l),
(157,571,l),
(178,537,o),
(198,504,o),
(222,472,cs),
(230,462,o),
(239,453,o),
(247,442,c),
(605,0,l),
(663,0,l),
(663,697,l),
(581,697,l),
(581,346,l),
(581,270,o),
(586,227,o),
(597,150,cs),
(601,119,l),
(584,145,ls),
(550,198,o),
(530,226,o),
(493,273,cs),
(149,697,l),
(75,697,l)
);
},
{
closed = 1;
nodes = (
(346,800,l),
(430,800,l),
(502,934,l),
(443,934,l),
(387,810,l),
(333,934,l),
(271,934,l)
);
}
);
width = 716;
}
);
leftKerningGroup = B;
rightKerningGroup = H;
unicode = 327;
},
{
glyphname = uni0145;
layers = (
{
hints = (
{
horizontal = 1;
place = (-200,155);
type = Stem;
},
{
horizontal = 1;
place = (0,21);
target = up;
type = BottomGhost;
},
{
horizontal = 1;
place = (700,-20);
target = down;
type = TopGhost;
},
{
place = (50,130);
type = Stem;
},
{
place = (538,128);
type = Stem;
}
);
layerId = "C557D8BE-4A15-4F65-8734-97D132B34265";
shapes = (
{
closed = 1;
nodes = (
(75,0,l),
(159,0,l),
(159,369,l),
(159,442,o),
(153,491,o),
(144,566,cs),
(140,596,l),
(157,571,l),
(178,537,o),
(198,504,o),
(222,472,cs),
(230,462,o),
(239,453,o),
(247,442,c),
(605,0,l),
(663,0,l),
(663,697,l),
(581,697,l),
(581,346,l),
(581,270,o),
(586,227,o),
(597,150,cs),
(601,119,l),
(584,145,ls),
(550,198,o),
(530,226,o),
(493,273,cs),
(149,697,l),
(75,697,l)
);
},
{
closed = 1;
nodes = (
(322,-214,l),
(353,-214,l),
(421,-101,l),
(346,-101,l)
);
}
);
width = 716;
}
);
leftKerningGroup = B;
rightKerningGroup = H;
unicode = 325;
},
{
glyphname = uni1E44;
layers = (
{
hints = (
{
horizontal = 1;
place = (0,21);
target = up;
type = BottomGhost;
},
{
horizontal = 1;
place = (700,-20);
target = down;
type = TopGhost;
},
{
horizontal = 1;
place = (743,159);
type = Stem;
},
{
place = (50,130);
type = Stem;
},
{
place = (295,162);
type = Stem;
},
{
place = (538,128);
type = Stem;
}
);
layerId = "C557D8BE-4A15-4F65-8734-97D132B34265";
shapes = (
{
closed = 1;
nodes = (
(75,0,l),
(159,0,l),
(159,369,l),
(159,442,o),
(153,491,o),
(144,566,cs),
(140,596,l),
(157,571,l),
(178,537,o),
(198,504,o),
(222,472,cs),
(230,462,o),
(239,453,o),
(247,442,c),
(605,0,l),
(663,0,l),
(663,697,l),
(581,697,l),
(581,346,l),
(581,270,o),
(586,227,o),
(597,150,cs),
(601,119,l),
(584,145,ls),
(550,198,o),
(530,226,o),
(493,273,cs),
(149,697,l),
(75,697,l)
);
},
{
closed = 1;
nodes = (
(421,797,o),
(446,822,o),
(446,856,cs),
(446,890,o),
(420,915,o),
(387,915,cs),
(355,915,o),
(330,889,o),
(330,856,cs),
(330,824,o),
(355,797,o),
(387,797,cs)
);
}
);
width = 716;
}
);
leftKerningGroup = B;
rightKerningGroup = H;
unicode = 7748;
},
{
glyphname = uni1E46;
layers = (
{
hints = (
{
horizontal = 1;
place = (-213,159);
type = Stem;
},
{
horizontal = 1;
place = (0,21);
target = up;
type = BottomGhost;
},
{
horizontal = 1;
place = (700,-20);
target = down;
type = TopGhost;
},
{
place = (50,130);
type = Stem;
},
{
place = (304,162);
type = Stem;
},
{
place = (538,128);
type = Stem;
}
);
layerId = "C557D8BE-4A15-4F65-8734-97D132B34265";
shapes = (
{
closed = 1;
nodes = (
(75,0,l),
(159,0,l),
(159,369,l),
(159,442,o),
(153,491,o),
(144,566,cs),
(140,596,l),
(157,571,l),
(178,537,o),
(198,504,o),
(222,472,cs),
(230,462,o),
(239,453,o),
(247,442,c),
(605,0,l),
(663,0,l),
(663,697,l),
(581,697,l),
(581,346,l),
(581,270,o),
(586,227,o),
(597,150,cs),
(601,119,l),
(584,145,ls),
(550,198,o),
(530,226,o),
(493,273,cs),
(149,697,l),
(75,697,l)
);
},
{
closed = 1;
nodes = (
(339,-203,o),
(364,-228,o),
(397,-228,cs),
(432,-228,o),
(455,-204,o),
(455,-169,cs),
(455,-136,o),
(431,-111,o),
(397,-111,cs),
(365,-111,o),
(339,-137,o),
(339,-169,cs)
);
}
);
width = 716;
}
);
leftKerningGroup = B;
rightKerningGroup = H;
unicode = 7750;
},
{
glyphname = uni1E48;
layers = (
{
hints = (
{
horizontal = 1;
place = (-181,90);
type = Stem;
},
{
horizontal = 1;
place = (0,21);
target = up;
type = BottomGhost;
},
{
horizontal = 1;
place = (700,-20);
target = down;
type = TopGhost;
},
{
place = (50,130);
type = Stem;
},
{
place = (232,306);
type = Stem;
},
{
place = (538,128);
type = Stem;
}
);
layerId = "C557D8BE-4A15-4F65-8734-97D132B34265";
shapes = (
{
closed = 1;
nodes = (
(75,0,l),
(159,0,l),
(159,369,l),
(159,442,o),
(153,491,o),
(144,566,cs),
(140,596,l),
(157,571,l),
(178,537,o),
(198,504,o),
(222,472,cs),
(230,462,o),
(239,453,o),
(247,442,c),
(605,0,l),
(663,0,l),
(663,697,l),
(581,697,l),
(581,346,l),
(581,270,o),
(586,227,o),
(597,150,cs),
(601,119,l),
(584,145,ls),
(550,198,o),
(530,226,o),
(493,273,cs),
(149,697,l),
(75,697,l)
);
},
{
closed = 1;
nodes = (
(264,-194,l),
(529,-194,l),
(529,-151,l),
(264,-151,l)
);
}
);
width = 716;
}
);
leftKerningGroup = B;
rightKerningGroup = H;
unicode = 7752;
},
{
glyphname = Ntilde;
layers = (
{
hints = (
{
horizontal = 1;
place = (0,21);
target = up;
type = BottomGhost;
},
{
horizontal = 1;
place = (700,-20);
target = down;
type = TopGhost;
},
{
horizontal = 1;
place = (737,92);
type = Stem;
},
{
horizontal = 1;
place = (737,143);
type = Stem;
},
{
horizontal = 1;
place = (801,90);
type = Stem;
},
{
place = (50,130);
type = Stem;
},
{
place = (174,86);
type = Stem;
},
{
place = (491,87);
type = Stem;
},
{
place = (538,128);
type = Stem;
}
);
layerId = "C557D8BE-4A15-4F65-8734-97D132B34265";
shapes = (
{
closed = 1;
nodes = (
(75,0,l),
(159,0,l),
(159,369,l),
(159,442,o),
(153,491,o),
(144,566,cs),
(140,596,l),
(157,571,l),
(178,537,o),
(198,504,o),
(222,472,cs),
(230,462,o),
(239,453,o),
(247,442,c),
(605,0,l),
(663,0,l),
(663,697,l),
(581,697,l),
(581,346,l),
(581,270,o),
(586,227,o),
(597,150,cs),
(601,119,l),
(584,145,ls),
(550,198,o),
(530,226,o),
(493,273,cs),
(149,697,l),
(75,697,l)
);
},
{
closed = 1;
nodes = (
(245,805,l),
(254,838,o),
(280,859,o),
(315,859,cs),
(332,859,o),
(346,854,o),
(358,848,c),
(364,844,o),
(370,840,o),
(376,836,cs),
(382,832,o),
(387,828,o),
(393,824,cs),
(415,806,o),
(438,790,o),
(472,790,cs),
(535,790,o),
(564,832,o),
(569,891,c),
(530,891,l),
(525,862,o),
(505,836,o),
(471,836,cs),
(457,836,o),
(444,841,o),
(433,847,cs),
(426,850,o),
(421,854,o),
(415,858,c),
(410,863,o),
(404,867,o),
(399,871,cs),
(377,887,o),
(353,902,o),
(316,902,cs),
(257,902,o),
(215,864,o),
(206,805,c)
);
}
);
width = 716;
}
);
leftKerningGroup = B;
rightKerningGroup = H;
unicode = 209;
},
{
glyphname = Eng;
layers = (
{
hints = (
{
horizontal = 1;
place = (-200,120);
type = Stem;
},
{
horizontal = 1;
place = (0,21);
target = up;
type = BottomGhost;
},
{
horizontal = 1;
place = (700,-20);
target = down;
type = TopGhost;
},
{
place = (50,130);
type = Stem;
},
{
place = (538,128);
type = Stem;
},
{
place = (545,121);
type = Stem;
}
);
layerId = "C557D8BE-4A15-4F65-8734-97D132B34265";
shapes = (
{
closed = 1;
nodes = (
(75,0,l),
(159,0,l),
(159,365,ls),
(159,441,o),
(154,487,o),
(144,566,cs),
(140,596,l),
(157,571,l),
(178,537,o),
(198,504,o),
(222,472,cs),
(230,462,o),
(239,453,o),
(247,442,c),
(588,21,l),
(588,-61,ls),
(588,-103,o),
(567,-139,o),
(519,-139,cs),
(503,-139,l),
(503,-214,l),
(523,-214,ls),
(622,-214,o),
(663,-167,o),
(663,-68,cs),
(663,697,l),
(581,697,l),
(581,350,ls),
(581,271,o),
(586,230,o),
(597,150,cs),
(601,119,l),
(584,145,ls),
(563,177,o),
(542,211,o),
(517,243,cs),
(510,253,o),
(501,263,o),
(493,273,cs),
(149,697,l),
(75,697,l)
);
}
);
width = 716;
}
);
leftKerningGroup = B;
rightKerningGroup = H;
unicode = 330;
},
{
glyphname = O;
layers = (
{
anchors = (
{
name = t.uni030C.alt;
position = "{484, 700}";
}
);
hints = (
{
horizontal = 1;
place = (-13,130);
type = Stem;
},
{
horizontal = 1;
place = (583,130);
type = Stem;
},
{
place = (25,145);
type = Stem;
},
{
place = (608,145);
type = Stem;
}
);
layerId = "C557D8BE-4A15-4F65-8734-97D132B34265";
shapes = (
{
closed = 1;
nodes = (
(603,-14,o),
(753,147,o),
(753,348,cs),
(753,548,o),
(603,712,o),
(402,712,cs),
(201,712,o),
(50,550,o),
(50,348,cs),
(50,147,o),
(203,-14,o),
(402,-14,cs)
);
},
{
closed = 1;
nodes = (
(247,72,o),
(149,199,o),
(149,348,cs),
(149,496,o),
(247,625,o),
(402,625,cs),
(559,625,o),
(655,497,o),
(655,348,cs),
(655,199,o),
(558,72,o),
(402,72,cs)
);
}
);
width = 778;
}
);
leftKerningGroup = C2;
rightKerningGroup = D;
unicode = 79;
},
{
glyphname = Oacute;
layers = (
{
anchors = (
{
name = t.uni030C.alt;
position = "{484, 700}";
}
);
hints = (
{
horizontal = 1;
place = (-13,130);
type = Stem;
},
{
horizontal = 1;
place = (583,130);
type = Stem;
},
{
horizontal = 1;
place = (746,174);
type = Stem;
},
{
place = (25,145);
type = Stem;
},
{
place = (608,145);
type = Stem;
}
);
layerId = "C557D8BE-4A15-4F65-8734-97D132B34265";
shapes = (
{
closed = 1;
nodes = (
(603,-14,o),
(753,147,o),
(753,348,cs),
(753,548,o),
(603,712,o),
(402,712,cs),
(201,712,o),
(50,550,o),
(50,348,cs),
(50,147,o),
(203,-14,o),
(402,-14,cs)
);
},
{
closed = 1;
nodes = (
(247,72,o),
(149,199,o),
(149,348,cs),
(149,496,o),
(247,625,o),
(402,625,cs),
(559,625,o),
(655,497,o),
(655,348,cs),
(655,199,o),
(558,72,o),
(402,72,cs)
);
},
{
closed = 1;
nodes = (
(385,800,l),
(434,800,l),
(499,934,l),
(418,934,l)
);
}
);
width = 778;
}
);
leftKerningGroup = C2;
rightKerningGroup = D;
unicode = 211;
},
{
glyphname = Ocircumflex;
layers = (
{
anchors = (
{
name = t.uni030C.alt;
position = "{484, 700}";
}
);
hints = (
{
horizontal = 1;
place = (-13,130);
type = Stem;
},
{
horizontal = 1;
place = (583,130);
type = Stem;
},
{
horizontal = 1;
place = (746,174);
type = Stem;
},
{
place = (25,145);
type = Stem;
},
{
place = (608,145);
type = Stem;
}
);
layerId = "C557D8BE-4A15-4F65-8734-97D132B34265";
shapes = (
{
closed = 1;
nodes = (
(286,800,l),
(348,800,l),
(402,924,l),
(458,800,l),
(518,800,l),
(445,934,l),
(361,934,l)
);
},
{
closed = 1;
nodes = (
(603,-14,o),
(753,147,o),
(753,348,cs),
(753,548,o),
(603,712,o),
(402,712,cs),
(201,712,o),
(50,550,o),
(50,348,cs),
(50,147,o),
(203,-14,o),
(402,-14,cs)
);
},
{
closed = 1;
nodes = (
(247,72,o),
(149,199,o),
(149,348,cs),
(149,496,o),
(247,625,o),
(402,625,cs),
(559,625,o),
(655,497,o),
(655,348,cs),
(655,199,o),
(558,72,o),
(402,72,cs)
);
}
);
width = 778;
}
);
leftKerningGroup = C2;
rightKerningGroup = D;
unicode = 212;
},
{
glyphname = uni1ED0;
layers = (
{
anchors = (
{
name = t.uni030C.alt;
position = "{484, 700}";
}
);
hints = (
{
horizontal = 1;
place = (-13,130);
type = Stem;
},
{
horizontal = 1;
place = (583,130);
type = Stem;
},
{
horizontal = 1;
place = (746,174);
type = Stem;
},
{
horizontal = 1;
place = (848,72);
type = Stem;
},
{
horizontal = 1;
place = (848,174);
type = Stem;
},
{
place = (25,145);
type = Stem;
},
{
place = (608,145);
type = Stem;
}
);
layerId = "C557D8BE-4A15-4F65-8734-97D132B34265";
shapes = (
{
closed = 1;
nodes = (
(549,909,l),
(597,909,l),
(663,1043,l),
(581,1043,l)
);
},
{
closed = 1;
nodes = (
(286,800,l),
(348,800,l),
(402,924,l),
(458,800,l),
(518,800,l),
(445,934,l),
(361,934,l)
);
},
{
closed = 1;
nodes = (
(603,-14,o),
(753,147,o),
(753,348,cs),
(753,548,o),
(603,712,o),
(402,712,cs),
(201,712,o),
(50,550,o),
(50,348,cs),
(50,147,o),
(203,-14,o),
(402,-14,cs)
);
},
{
closed = 1;
nodes = (
(247,72,o),
(149,199,o),
(149,348,cs),
(149,496,o),
(247,625,o),
(402,625,cs),
(559,625,o),
(655,497,o),
(655,348,cs),
(655,199,o),
(558,72,o),
(402,72,cs)
);
}
);
width = 778;
}
);
leftKerningGroup = C2;
rightKerningGroup = D;
unicode = 7888;
},
{
glyphname = uni1ED8;
layers = (
{
anchors = (
{
name = t.uni030C.alt;
position = "{484, 700}";
}
);
hints = (
{
horizontal = 1;
place = (-213,159);
type = Stem;
},
{
horizontal = 1;
place = (-13,130);
type = Stem;
},
{
horizontal = 1;
place = (583,130);
type = Stem;
},
{
horizontal = 1;
place = (746,174);
type = Stem;
},
{
place = (25,145);
type = Stem;
},
{
place = (309,162);
type = Stem;
},
{
place = (608,145);
type = Stem;
}
);
layerId = "C557D8BE-4A15-4F65-8734-97D132B34265";
shapes = (
{
closed = 1;
nodes = (
(437,-228,o),
(461,-204,o),
(461,-169,cs),
(461,-136,o),
(436,-111,o),
(402,-111,cs),
(370,-111,o),
(345,-137,o),
(345,-169,cs),
(345,-202,o),
(370,-228,o),
(402,-228,cs)
);
},
{
closed = 1;
nodes = (
(286,800,l),
(348,800,l),
(402,924,l),
(458,800,l),
(518,800,l),
(445,934,l),
(361,934,l)
);
},
{
closed = 1;
nodes = (
(603,-14,o),
(753,147,o),
(753,348,cs),
(753,548,o),
(603,712,o),
(402,712,cs),
(201,712,o),
(50,550,o),
(50,348,cs),
(50,147,o),
(203,-14,o),
(402,-14,cs)
);
},
{
closed = 1;
nodes = (
(247,72,o),
(149,199,o),
(149,348,cs),
(149,496,o),
(247,625,o),
(402,625,cs),
(559,625,o),
(655,497,o),
(655,348,cs),
(655,199,o),
(558,72,o),
(402,72,cs)
);
}
);
width = 778;
}
);
leftKerningGroup = C2;
rightKerningGroup = D;
unicode = 7896;
},
{
glyphname = uni1ED2;
layers = (
{
anchors = (
{
name = t.uni030C.alt;
position = "{484, 700}";
}
);
hints = (
{
horizontal = 1;
place = (-13,130);
type = Stem;
},
{
horizontal = 1;
place = (583,130);
type = Stem;
},
{
horizontal = 1;
place = (746,174);
type = Stem;
},
{
horizontal = 1;
place = (848,174);
type = Stem;
},
{
place = (25,145);
type = Stem;
},
{
place = (608,145);
type = Stem;
}
);
layerId = "C557D8BE-4A15-4F65-8734-97D132B34265";
shapes = (
{
closed = 1;
nodes = (
(286,800,l),
(348,800,l),
(402,924,l),
(458,800,l),
(518,800,l),
(445,934,l),
(361,934,l)
);
},
{
closed = 1;
nodes = (
(205,909,l),
(257,909,l),
(231,1043,l),
(132,1043,l)
);
},
{
closed = 1;
nodes = (
(603,-14,o),
(753,147,o),
(753,348,cs),
(753,548,o),
(603,712,o),
(402,712,cs),
(201,712,o),
(50,550,o),
(50,348,cs),
(50,147,o),
(203,-14,o),
(402,-14,cs)
);
},
{
closed = 1;
nodes = (
(247,72,o),
(149,199,o),
(149,348,cs),
(149,496,o),
(247,625,o),
(402,625,cs),
(559,625,o),
(655,497,o),
(655,348,cs),
(655,199,o),
(558,72,o),
(402,72,cs)
);
}
);
width = 778;
}
);
leftKerningGroup = C2;
rightKerningGroup = D;
unicode = 7890;
},
{
glyphname = uni1ED4;
layers = (
{
anchors = (
{
name = t.uni030C.alt;
position = "{484, 700}";
}
);
hints = (
{
horizontal = 1;
place = (-13,130);
type = Stem;
},
{
horizontal = 1;
place = (583,130);
type = Stem;
},
{
horizontal = 1;
place = (746,174);
type = Stem;
},
{
horizontal = 1;
place = (929,75);
type = Stem;
},
{
horizontal = 1;
place = (1031,108);
type = Stem;
},
{
horizontal = 1;
place = (1061,78);
type = Stem;
},
{
place = (25,145);
type = Stem;
},
{
place = (271,84);
type = Stem;
},
{
place = (412,87);
type = Stem;
},
{
place = (608,145);
type = Stem;
}
);
layerId = "C557D8BE-4A15-4F65-8734-97D132B34265";
shapes = (
{
closed = 1;
nodes = (
(376,999,l),
(384,997,o),
(392,996,o),
(400,996,cs),
(456,996,o),
(490,1029,o),
(490,1086,cs),
(490,1139,o),
(449,1168,o),
(397,1168,cs),
(356,1168,o),
(320,1145,o),
(310,1105,c),
(346,1105,l),
(355,1125,o),
(374,1138,o),
(396,1138,cs),
(426,1138,o),
(452,1113,o),
(452,1083,cs),
(452,1045,o),
(426,1024,o),
(390,1024,cs),
(388,1024,o),
(385,1024,o),
(383,1024,c)
);
},
{
closed = 1;
nodes = (
(286,800,l),
(348,800,l),
(402,924,l),
(458,800,l),
(518,800,l),
(445,934,l),
(361,934,l)
);
},
{
closed = 1;
nodes = (
(603,-14,o),
(753,147,o),
(753,348,cs),
(753,548,o),
(603,712,o),
(402,712,cs),
(201,712,o),
(50,550,o),
(50,348,cs),
(50,147,o),
(203,-14,o),
(402,-14,cs)
);
},
{
closed = 1;
nodes = (
(247,72,o),
(149,199,o),
(149,348,cs),
(149,496,o),
(247,625,o),
(402,625,cs),
(559,625,o),
(655,497,o),
(655,348,cs),
(655,199,o),
(558,72,o),
(402,72,cs)
);
}
);
width = 778;
}
);
leftKerningGroup = C2;
rightKerningGroup = D;
unicode = 7892;
},
{
glyphname = uni1ED6;
layers = (
{
anchors = (
{
name = t.uni030C.alt;
position = "{484, 700}";
}
);
hints = (
{
horizontal = 1;
place = (-13,130);
type = Stem;
},
{
horizontal = 1;
place = (583,130);
type = Stem;
},
{
horizontal = 1;
place = (746,174);
type = Stem;
},
{
horizontal = 1;
place = (929,92);
type = Stem;
},
{
horizontal = 1;
place = (929,143);
type = Stem;
},
{
horizontal = 1;
place = (993,90);
type = Stem;
},
{
place = (25,145);
type = Stem;
},
{
place = (188,86);
type = Stem;
},
{
place = (505,87);
type = Stem;
},
{
place = (608,145);
type = Stem;
}
);
layerId = "C557D8BE-4A15-4F65-8734-97D132B34265";
shapes = (
{
closed = 1;
nodes = (
(260,1011,l),
(269,1044,o),
(295,1065,o),
(331,1065,cs),
(347,1065,o),
(361,1060,o),
(373,1054,c),
(379,1050,o),
(385,1046,o),
(391,1042,cs),
(396,1038,o),
(402,1034,o),
(409,1030,c),
(431,1012,o),
(453,996,o),
(487,996,cs),
(550,996,o),
(579,1038,o),
(584,1097,c),
(546,1097,l),
(541,1067,o),
(521,1042,o),
(486,1042,cs),
(472,1042,o),
(459,1047,o),
(448,1053,cs),
(442,1056,o),
(437,1060,o),
(431,1064,cs),
(426,1068,o),
(420,1073,o),
(415,1077,cs),
(392,1093,o),
(368,1108,o),
(332,1108,cs),
(272,1108,o),
(231,1070,o),
(222,1011,c)
);
},
{
closed = 1;
nodes = (
(286,800,l),
(348,800,l),
(402,924,l),
(458,800,l),
(518,800,l),
(445,934,l),
(361,934,l)
);
},
{
closed = 1;
nodes = (
(603,-14,o),
(753,147,o),
(753,348,cs),
(753,548,o),
(603,712,o),
(402,712,cs),
(201,712,o),
(50,550,o),
(50,348,cs),
(50,147,o),
(203,-14,o),
(402,-14,cs)
);
},
{
closed = 1;
nodes = (
(247,72,o),
(149,199,o),
(149,348,cs),
(149,496,o),
(247,625,o),
(402,625,cs),
(559,625,o),
(655,497,o),
(655,348,cs),
(655,199,o),
(558,72,o),
(402,72,cs)
);
}
);
width = 778;
}
);
leftKerningGroup = C2;
rightKerningGroup = D;
unicode = 7894;
},
{
glyphname = Odieresis;
layers = (
{
anchors = (
{
name = t.uni030C.alt;
position = "{484, 700}";
}
);
hints = (
{
horizontal = 1;
place = (-13,130);
type = Stem;
},
{
horizontal = 1;
place = (583,130);
type = Stem;
},
{
horizontal = 1;
place = (743,159);
type = Stem;
},
{
place = (25,145);
type = Stem;
},
{
place = (203,162);
type = Stem;
},
{
place = (415,162);
type = Stem;
},
{
place = (608,145);
type = Stem;
}
);
layerId = "C557D8BE-4A15-4F65-8734-97D132B34265";
shapes = (
{
closed = 1;
nodes = (
(603,-14,o),
(753,147,o),
(753,348,cs),
(753,548,o),
(603,712,o),
(402,712,cs),
(201,712,o),
(50,550,o),
(50,348,cs),
(50,147,o),
(203,-14,o),
(402,-14,cs)
);
},
{
closed = 1;
nodes = (
(247,72,o),
(149,199,o),
(149,348,cs),
(149,496,o),
(247,625,o),
(402,625,cs),
(559,625,o),
(655,497,o),
(655,348,cs),
(655,199,o),
(558,72,o),
(402,72,cs)
);
},
{
closed = 1;
nodes = (
(235,823,o),
(260,797,o),
(293,797,cs),
(328,797,o),
(351,822,o),
(351,856,cs),
(351,890,o),
(327,915,o),
(293,915,cs),
(261,915,o),
(235,889,o),
(235,856,cs)
);
},
{
closed = 1;
nodes = (
(547,797,o),
(571,822,o),
(571,856,cs),
(571,890,o),
(546,915,o),
(513,915,cs),
(480,915,o),
(455,889,o),
(455,856,cs),
(455,823,o),
(479,797,o),
(513,797,cs)
);
}
);
width = 778;
}
);
leftKerningGroup = C2;
rightKerningGroup = D;
unicode = 214;
},
{
glyphname = uni1ECC;
layers = (
{
anchors = (
{
name = t.uni030C.alt;
position = "{484, 700}";
}
);
hints = (
{
horizontal = 1;
place = (-213,159);
type = Stem;
},
{
horizontal = 1;
place = (-13,130);
type = Stem;
},
{
horizontal = 1;
place = (583,130);
type = Stem;
},
{
place = (25,145);
type = Stem;
},
{
place = (309,162);
type = Stem;
},
{
place = (608,145);
type = Stem;
}
);
layerId = "C557D8BE-4A15-4F65-8734-97D132B34265";
shapes = (
{
closed = 1;
nodes = (
(603,-14,o),
(753,147,o),
(753,348,cs),
(753,548,o),
(603,712,o),
(402,712,cs),
(201,712,o),
(50,550,o),
(50,348,cs),
(50,147,o),
(203,-14,o),
(402,-14,cs)
);
},
{
closed = 1;
nodes = (
(247,72,o),
(149,199,o),
(149,348,cs),
(149,496,o),
(247,625,o),
(402,625,cs),
(559,625,o),
(655,497,o),
(655,348,cs),
(655,199,o),
(558,72,o),
(402,72,cs)
);
},
{
closed = 1;
nodes = (
(437,-228,o),
(461,-204,o),
(461,-169,cs),
(461,-136,o),
(436,-111,o),
(402,-111,cs),
(370,-111,o),
(345,-137,o),
(345,-169,cs),
(345,-202,o),
(370,-228,o),
(402,-228,cs)
);
}
);
width = 778;
}
);
leftKerningGroup = C2;
rightKerningGroup = D;
unicode = 7884;
},
{
glyphname = Ograve;
layers = (
{
anchors = (
{
name = t.uni030C.alt;
position = "{484, 700}";
}
);
hints = (
{
horizontal = 1;
place = (-13,130);
type = Stem;
},
{
horizontal = 1;
place = (583,130);
type = Stem;
},
{
horizontal = 1;
place = (746,174);
type = Stem;
},
{
place = (25,145);
type = Stem;
},
{
place = (608,145);
type = Stem;
}
);
layerId = "C557D8BE-4A15-4F65-8734-97D132B34265";
shapes = (
{
closed = 1;
nodes = (
(603,-14,o),
(753,147,o),
(753,348,cs),
(753,548,o),
(603,712,o),
(402,712,cs),
(201,712,o),
(50,550,o),
(50,348,cs),
(50,147,o),
(203,-14,o),
(402,-14,cs)
);
},
{
closed = 1;
nodes = (
(247,72,o),
(149,199,o),
(149,348,cs),
(149,496,o),
(247,625,o),
(402,625,cs),
(559,625,o),
(655,497,o),
(655,348,cs),
(655,199,o),
(558,72,o),
(402,72,cs)
);
},
{
closed = 1;
nodes = (
(373,800,l),
(425,800,l),
(399,934,l),
(300,934,l)
);
}
);
width = 778;
}
);
leftKerningGroup = C2;
rightKerningGroup = D;
unicode = 210;
},
{
glyphname = uni1ECE;
layers = (
{
anchors = (
{
name = t.uni030C.alt;
position = "{484, 700}";
}
);
hints = (
{
horizontal = 1;
place = (-13,130);
type = Stem;
},
{
horizontal = 1;
place = (583,130);
type = Stem;
},
{
horizontal = 1;
place = (737,75);
type = Stem;
},
{
horizontal = 1;
place = (839,108);
type = Stem;
},
{
horizontal = 1;
place = (869,78);
type = Stem;
},
{
place = (25,145);
type = Stem;
},
{
place = (271,84);
type = Stem;
},
{
place = (412,87);
type = Stem;
},
{
place = (608,145);
type = Stem;
}
);
layerId = "C557D8BE-4A15-4F65-8734-97D132B34265";
shapes = (
{
closed = 1;
nodes = (
(376,793,l),
(384,791,o),
(392,790,o),
(400,790,cs),
(456,790,o),
(490,823,o),
(490,880,cs),
(490,933,o),
(449,962,o),
(397,962,cs),
(356,962,o),
(321,939,o),
(310,900,c),
(346,900,l),
(356,920,o),
(375,932,o),
(396,932,cs),
(426,932,o),
(452,907,o),
(452,877,cs),
(452,839,o),
(426,818,o),
(390,818,cs),
(388,818,o),
(385,818,o),
(383,818,c)
);
},
{
closed = 1;
nodes = (
(603,-14,o),
(753,147,o),
(753,348,cs),
(753,548,o),
(603,712,o),
(402,712,cs),
(201,712,o),
(50,550,o),
(50,348,cs),
(50,147,o),
(203,-14,o),
(402,-14,cs)
);
},
{
closed = 1;
nodes = (
(247,72,o),
(149,199,o),
(149,348,cs),
(149,496,o),
(247,625,o),
(402,625,cs),
(559,625,o),
(655,497,o),
(655,348,cs),
(655,199,o),
(558,72,o),
(402,72,cs)
);
}
);
width = 778;
}
);
leftKerningGroup = C2;
rightKerningGroup = D;
unicode = 7886;
},
{
glyphname = Ohorn;
layers = (
{
anchors = (
{
name = t.uni030C.alt;
position = "{484, 700}";
}
);
hints = (
{
horizontal = 1;
place = (-13,130);
type = Stem;
},
{
horizontal = 1;
place = (583,114);
type = Stem;
},
{
horizontal = 1;
place = (583,130);
type = Stem;
},
{
place = (25,145);
type = Stem;
},
{
place = (589,114);
type = Stem;
},
{
place = (608,145);
type = Stem;
}
);
layerId = "C557D8BE-4A15-4F65-8734-97D132B34265";
shapes = (
{
closed = 1;
nodes = (
(598,657,l),
(607,661,l),
(616,666,o),
(624,670,o),
(633,674,c),
(685,703,o),
(701,746,o),
(701,807,cs),
(701,825,l),
(635,825,l),
(637,743,o),
(621,694,o),
(522,694,cs),
(515,694,o),
(510,695,o),
(503,697,cs),
(499,698,o),
(494,700,o),
(488,701,c),
(461,709,o),
(431,712,o),
(402,712,cs),
(201,712,o),
(50,550,o),
(50,348,cs),
(50,147,o),
(203,-14,o),
(402,-14,cs),
(603,-14,o),
(753,147,o),
(753,348,cs),
(753,461,o),
(709,555,o),
(627,630,cs)
);
},
{
closed = 1;
nodes = (
(247,72,o),
(149,199,o),
(149,348,cs),
(149,496,o),
(247,625,o),
(402,625,cs),
(559,625,o),
(655,497,o),
(655,348,cs),
(655,199,o),
(558,72,o),
(402,72,cs)
);
}
);
width = 778;
}
);
leftKerningGroup = C2;
rightKerningGroup = Ohorn;
unicode = 416;
},
{
glyphname = uni1EDA;
layers = (
{
anchors = (
{
name = t.uni030C.alt;
position = "{484, 700}";
}
);
hints = (
{
horizontal = 1;
place = (-13,130);
type = Stem;
},
{
horizontal = 1;
place = (583,114);
type = Stem;
},
{
horizontal = 1;
place = (583,130);
type = Stem;
},
{
horizontal = 1;
place = (746,174);
type = Stem;
},
{
place = (25,145);
type = Stem;
},
{
place = (589,114);
type = Stem;
},
{
place = (608,145);
type = Stem;
}
);
layerId = "C557D8BE-4A15-4F65-8734-97D132B34265";
shapes = (
{
closed = 1;
nodes = (
(385,800,l),
(434,800,l),
(499,934,l),
(418,934,l)
);
},
{
closed = 1;
nodes = (
(598,657,l),
(607,661,l),
(616,666,o),
(624,670,o),
(633,674,c),
(685,703,o),
(701,746,o),
(701,807,cs),
(701,825,l),
(635,825,l),
(637,743,o),
(621,694,o),
(522,694,cs),
(515,694,o),
(510,695,o),
(503,697,cs),
(499,698,o),
(494,700,o),
(488,701,c),
(461,709,o),
(431,712,o),
(402,712,cs),
(201,712,o),
(50,550,o),
(50,348,cs),
(50,147,o),
(203,-14,o),
(402,-14,cs),
(603,-14,o),
(753,147,o),
(753,348,cs),
(753,461,o),
(709,555,o),
(627,630,cs)
);
},
{
closed = 1;
nodes = (
(247,72,o),
(149,199,o),
(149,348,cs),
(149,496,o),
(247,625,o),
(402,625,cs),
(559,625,o),
(655,497,o),
(655,348,cs),
(655,199,o),
(558,72,o),
(402,72,cs)
);
}
);
width = 778;
}
);
leftKerningGroup = C2;
rightKerningGroup = D;
unicode = 7898;
},
{
glyphname = uni1EE2;
layers = (
{
anchors = (
{
name = t.uni030C.alt;
position = "{484, 700}";
}
);
hints = (
{
horizontal = 1;
place = (-213,159);
type = Stem;
},
{
horizontal = 1;
place = (-13,130);
type = Stem;
},
{
horizontal = 1;
place = (583,114);
type = Stem;
},
{
horizontal = 1;
place = (583,130);
type = Stem;
},
{
place = (25,145);
type = Stem;
},
{
place = (309,162);
type = Stem;
},
{
place = (589,114);
type = Stem;
},
{
place = (608,145);
type = Stem;
}
);
layerId = "C557D8BE-4A15-4F65-8734-97D132B34265";
shapes = (
{
closed = 1;
nodes = (
(437,-228,o),
(461,-204,o),
(461,-169,cs),
(461,-136,o),
(436,-111,o),
(402,-111,cs),
(370,-111,o),
(345,-137,o),
(345,-169,cs),
(345,-202,o),
(370,-228,o),
(402,-228,cs)
);
},
{
closed = 1;
nodes = (
(598,657,l),
(607,661,l),
(616,666,o),
(624,670,o),
(633,674,c),
(685,703,o),
(701,746,o),
(701,807,cs),
(701,825,l),
(635,825,l),
(637,743,o),
(621,694,o),
(522,694,cs),
(515,694,o),
(510,695,o),
(503,697,cs),
(499,698,o),
(494,700,o),
(488,701,c),
(461,709,o),
(431,712,o),
(402,712,cs),
(201,712,o),
(50,550,o),
(50,348,cs),
(50,147,o),
(203,-14,o),
(402,-14,cs),
(603,-14,o),
(753,147,o),
(753,348,cs),
(753,461,o),
(709,555,o),
(627,630,cs)
);
},
{
closed = 1;
nodes = (
(247,72,o),
(149,199,o),
(149,348,cs),
(149,496,o),
(247,625,o),
(402,625,cs),
(559,625,o),
(655,497,o),
(655,348,cs),
(655,199,o),
(558,72,o),
(402,72,cs)
);
}
);
width = 778;
}
);
leftKerningGroup = C2;
rightKerningGroup = D;
unicode = 7906;
},
{
glyphname = uni1EDC;
layers = (
{
anchors = (
{
name = t.uni030C.alt;
position = "{484, 700}";
}
);
hints = (
{
horizontal = 1;
place = (-13,130);
type = Stem;
},
{
horizontal = 1;
place = (583,114);
type = Stem;
},
{
horizontal = 1;
place = (583,130);
type = Stem;
},
{
horizontal = 1;
place = (746,174);
type = Stem;
},
{
place = (25,145);
type = Stem;
},
{
place = (589,114);
type = Stem;
},
{
place = (608,145);
type = Stem;
}
);
layerId = "C557D8BE-4A15-4F65-8734-97D132B34265";
shapes = (
{
closed = 1;
nodes = (
(373,800,l),
(425,800,l),
(399,934,l),
(300,934,l)
);
},
{
closed = 1;
nodes = (
(598,657,l),
(607,661,l),
(616,666,o),
(624,670,o),
(633,674,c),
(685,703,o),
(701,746,o),
(701,807,cs),
(701,825,l),
(635,825,l),
(637,743,o),
(621,694,o),
(522,694,cs),
(515,694,o),
(510,695,o),
(503,697,cs),
(499,698,o),
(494,700,o),
(488,701,c),
(461,709,o),
(431,712,o),
(402,712,cs),
(201,712,o),
(50,550,o),
(50,348,cs),
(50,147,o),
(203,-14,o),
(402,-14,cs),
(603,-14,o),
(753,147,o),
(753,348,cs),
(753,461,o),
(709,555,o),
(627,630,cs)
);
},
{
closed = 1;
nodes = (
(247,72,o),
(149,199,o),
(149,348,cs),
(149,496,o),
(247,625,o),
(402,625,cs),
(559,625,o),
(655,497,o),
(655,348,cs),
(655,199,o),
(558,72,o),
(402,72,cs)
);
}
);
width = 778;
}
);
leftKerningGroup = C2;
rightKerningGroup = D;
unicode = 7900;
},
{
glyphname = uni1EDE;
layers = (
{
anchors = (
{
name = t.uni030C.alt;
position = "{484, 700}";
}
);
hints = (
{
horizontal = 1;
place = (-13,130);
type = Stem;
},
{
horizontal = 1;
place = (583,114);
type = Stem;
},
{
horizontal = 1;
place = (583,130);
type = Stem;
},
{
horizontal = 1;
place = (737,75);
type = Stem;
},
{
horizontal = 1;
place = (839,108);
type = Stem;
},
{
horizontal = 1;
place = (869,78);
type = Stem;
},
{
place = (25,145);
type = Stem;
},
{
place = (271,84);
type = Stem;
},
{
place = (412,87);
type = Stem;
},
{
place = (589,114);
type = Stem;
},
{
place = (608,145);
type = Stem;
}
);
layerId = "C557D8BE-4A15-4F65-8734-97D132B34265";
shapes = (
{
closed = 1;
nodes = (
(376,793,l),
(384,791,o),
(392,790,o),
(400,790,cs),
(456,790,o),
(490,823,o),
(490,880,cs),
(490,933,o),
(449,962,o),
(397,962,cs),
(356,962,o),
(321,939,o),
(310,900,c),
(346,900,l),
(356,920,o),
(375,932,o),
(396,932,cs),
(426,932,o),
(452,907,o),
(452,877,cs),
(452,839,o),
(426,818,o),
(390,818,cs),
(388,818,o),
(385,818,o),
(383,818,c)
);
},
{
closed = 1;
nodes = (
(598,657,l),
(607,661,l),
(616,666,o),
(624,670,o),
(633,674,c),
(685,703,o),
(701,746,o),
(701,807,cs),
(701,825,l),
(635,825,l),
(637,743,o),
(621,694,o),
(522,694,cs),
(515,694,o),
(510,695,o),
(503,697,cs),
(499,698,o),
(494,700,o),
(488,701,c),
(461,709,o),
(431,712,o),
(402,712,cs),
(201,712,o),
(50,550,o),
(50,348,cs),
(50,147,o),
(203,-14,o),
(402,-14,cs),
(603,-14,o),
(753,147,o),
(753,348,cs),
(753,461,o),
(709,555,o),
(627,630,cs)
);
},
{
closed = 1;
nodes = (
(247,72,o),
(149,199,o),
(149,348,cs),
(149,496,o),
(247,625,o),
(402,625,cs),
(559,625,o),
(655,497,o),
(655,348,cs),
(655,199,o),
(558,72,o),
(402,72,cs)
);
}
);
width = 778;
}
);
leftKerningGroup = C2;
rightKerningGroup = D;
unicode = 7902;
},
{
glyphname = uni1EE0;
layers = (
{
anchors = (
{
name = t.uni030C.alt;
position = "{484, 700}";
}
);
hints = (
{
horizontal = 1;
place = (-13,130);
type = Stem;
},
{
horizontal = 1;
place = (583,114);
type = Stem;
},
{
horizontal = 1;
place = (583,130);
type = Stem;
},
{
horizontal = 1;
place = (737,81);
type = Stem;
},
{
horizontal = 1;
place = (737,92);
type = Stem;
},
{
horizontal = 1;
place = (737,143);
type = Stem;
},
{
horizontal = 1;
place = (801,90);
type = Stem;
},
{
place = (25,145);
type = Stem;
},
{
place = (188,86);
type = Stem;
},
{
place = (505,87);
type = Stem;
},
{
place = (589,114);
type = Stem;
},
{
place = (608,145);
type = Stem;
}
);
layerId = "C557D8BE-4A15-4F65-8734-97D132B34265";
shapes = (
{
closed = 1;
nodes = (
(260,805,l),
(269,838,o),
(295,859,o),
(331,859,cs),
(347,859,o),
(361,854,o),
(373,848,c),
(379,844,o),
(385,840,o),
(391,836,cs),
(397,832,o),
(402,828,o),
(409,824,c),
(431,806,o),
(453,790,o),
(487,790,cs),
(550,790,o),
(579,832,o),
(584,891,c),
(546,891,l),
(541,862,o),
(521,836,o),
(486,836,cs),
(472,836,o),
(459,841,o),
(448,847,cs),
(442,850,o),
(437,854,o),
(431,858,c),
(426,863,o),
(420,867,o),
(415,871,cs),
(392,887,o),
(368,902,o),
(332,902,cs),
(272,902,o),
(231,864,o),
(222,805,c)
);
},
{
closed = 1;
nodes = (
(598,657,l),
(607,661,l),
(616,666,o),
(624,670,o),
(633,674,c),
(685,703,o),
(701,746,o),
(701,807,cs),
(701,825,l),
(635,825,l),
(637,743,o),
(621,694,o),
(522,694,cs),
(515,694,o),
(510,695,o),
(503,697,cs),
(499,698,o),
(494,700,o),
(488,701,c),
(461,709,o),
(431,712,o),
(402,712,cs),
(201,712,o),
(50,550,o),
(50,348,cs),
(50,147,o),
(203,-14,o),
(402,-14,cs),
(603,-14,o),
(753,147,o),
(753,348,cs),
(753,461,o),
(709,555,o),
(627,630,cs)
);
},
{
closed = 1;
nodes = (
(247,72,o),
(149,199,o),
(149,348,cs),
(149,496,o),
(247,625,o),
(402,625,cs),
(559,625,o),
(655,497,o),
(655,348,cs),
(655,199,o),
(558,72,o),
(402,72,cs)
);
}
);
width = 778;
}
);
leftKerningGroup = C2;
rightKerningGroup = D;
unicode = 7904;
},
{
glyphname = Ohungarumlaut;
layers = (
{
anchors = (
{
name = t.uni030C.alt;
position = "{484, 700}";
}
);
hints = (
{
horizontal = 1;
place = (-13,130);
type = Stem;
},
{
horizontal = 1;
place = (583,130);
type = Stem;
},
{
horizontal = 1;
place = (746,174);
type = Stem;
},
{
place = (25,145);
type = Stem;
},
{
place = (608,145);
type = Stem;
}
);
layerId = "C557D8BE-4A15-4F65-8734-97D132B34265";
shapes = (
{
closed = 1;
nodes = (
(603,-14,o),
(753,147,o),
(753,348,cs),
(753,548,o),
(603,712,o),
(402,712,cs),
(201,712,o),
(50,550,o),
(50,348,cs),
(50,147,o),
(203,-14,o),
(402,-14,cs)
);
},
{
closed = 1;
nodes = (
(247,72,o),
(149,199,o),
(149,348,cs),
(149,496,o),
(247,625,o),
(402,625,cs),
(559,625,o),
(655,497,o),
(655,348,cs),
(655,199,o),
(558,72,o),
(402,72,cs)
);
},
{
closed = 1;
nodes = (
(304,800,l),
(329,800,l),
(400,934,l),
(327,934,l)
);
},
{
closed = 1;
nodes = (
(474,800,l),
(499,800,l),
(571,934,l),
(498,934,l)
);
}
);
width = 778;
}
);
leftKerningGroup = C2;
rightKerningGroup = D;
unicode = 336;
},
{
glyphname = Omacron;
layers = (
{
anchors = (
{
name = t.uni030C.alt;
position = "{484, 700}";
}
);
hints = (
{
horizontal = 1;
place = (-13,130);
type = Stem;
},
{
horizontal = 1;
place = (583,130);
type = Stem;
},
{
horizontal = 1;
place = (778,90);
type = Stem;
},
{
place = (25,145);
type = Stem;
},
{
place = (238,306);
type = Stem;
},
{
place = (608,145);
type = Stem;
}
);
layerId = "C557D8BE-4A15-4F65-8734-97D132B34265";
shapes = (
{
closed = 1;
nodes = (
(603,-14,o),
(753,147,o),
(753,348,cs),
(753,548,o),
(603,712,o),
(402,712,cs),
(201,712,o),
(50,550,o),
(50,348,cs),
(50,147,o),
(203,-14,o),
(402,-14,cs)
);
},
{
closed = 1;
nodes = (
(247,72,o),
(149,199,o),
(149,348,cs),
(149,496,o),
(247,625,o),
(402,625,cs),
(559,625,o),
(655,497,o),
(655,348,cs),
(655,199,o),
(558,72,o),
(402,72,cs)
);
},
{
closed = 1;
nodes = (
(271,834,l),
(537,834,l),
(537,878,l),
(271,878,l)
);
}
);
width = 778;
}
);
leftKerningGroup = C2;
rightKerningGroup = D;
unicode = 332;
},
{
glyphname = Oslash;
layers = (
{
anchors = (
{
name = t.uni030C.alt;
position = "{484, 700}";
}
);
hints = (
{
horizontal = 1;
place = (-13,130);
type = Stem;
},
{
horizontal = 1;
place = (583,130);
type = Stem;
},
{
place = (25,145);
type = Stem;
},
{
place = (608,145);
type = Stem;
}
);
layerId = "C557D8BE-4A15-4F65-8734-97D132B34265";
shapes = (
{
closed = 1;
nodes = (
(91,-43,l),
(112,-43,l),
(188,59,l),
(193,55,ls),
(251,9,o),
(330,-14,o),
(402,-14,cs),
(603,-14,o),
(753,147,o),
(753,348,cs),
(753,458,o),
(708,559,o),
(626,632,c),
(622,636,l),
(704,749,l),
(685,749,l),
(607,645,l),
(602,650,l),
(552,690,o),
(466,712,o),
(402,712,cs),
(201,712,o),
(50,550,o),
(50,348,cs),
(50,250,o),
(87,152,o),
(158,85,cs),
(162,81,o),
(166,77,o),
(171,73,cs),
(176,69,l)
);
},
{
closed = 1;
nodes = (
(241,131,l),
(567,565,l),
(573,559,l),
(628,499,o),
(655,429,o),
(655,348,cs),
(655,199,o),
(558,72,o),
(402,72,cs),
(346,72,o),
(291,90,o),
(247,126,c)
);
},
{
closed = 1;
nodes = (
(228,140,l),
(208,167,ls),
(168,221,o),
(149,280,o),
(149,348,cs),
(149,496,o),
(247,625,o),
(402,625,cs),
(456,625,o),
(504,612,o),
(549,580,c),
(555,575,l)
);
}
);
width = 778;
}
);
leftKerningGroup = C2;
rightKerningGroup = Ohorn;
unicode = 216;
},
{
glyphname = Otilde;
layers = (
{
anchors = (
{
name = t.uni030C.alt;
position = "{484, 700}";
}
);
hints = (
{
horizontal = 1;
place = (-13,130);
type = Stem;
},
{
horizontal = 1;
place = (583,130);
type = Stem;
},
{
horizontal = 1;
place = (737,92);
type = Stem;
},
{
horizontal = 1;
place = (737,143);
type = Stem;
},
{
horizontal = 1;
place = (801,90);
type = Stem;
},
{
place = (25,145);
type = Stem;
},
{
place = (188,86);
type = Stem;
},
{
place = (505,87);
type = Stem;
},
{
place = (608,145);
type = Stem;
}
);
layerId = "C557D8BE-4A15-4F65-8734-97D132B34265";
shapes = (
{
closed = 1;
nodes = (
(260,805,l),
(269,838,o),
(295,859,o),
(331,859,cs),
(347,859,o),
(361,854,o),
(373,848,c),
(379,844,o),
(385,840,o),
(391,836,cs),
(397,832,o),
(402,828,o),
(409,824,c),
(431,806,o),
(453,790,o),
(487,790,cs),
(550,790,o),
(579,832,o),
(584,891,c),
(546,891,l),
(541,862,o),
(521,836,o),
(486,836,cs),
(472,836,o),
(459,841,o),
(448,847,cs),
(442,850,o),
(437,854,o),
(431,858,c),
(426,863,o),
(420,867,o),
(415,871,cs),
(392,887,o),
(368,902,o),
(332,902,cs),
(272,902,o),
(231,864,o),
(222,805,c)
);
},
{
closed = 1;
nodes = (
(603,-14,o),
(753,147,o),
(753,348,cs),
(753,548,o),
(603,712,o),
(402,712,cs),
(201,712,o),
(50,550,o),
(50,348,cs),
(50,147,o),
(203,-14,o),
(402,-14,cs)
);
},
{
closed = 1;
nodes = (
(247,72,o),
(149,199,o),
(149,348,cs),
(149,496,o),
(247,625,o),
(402,625,cs),
(559,625,o),
(655,497,o),
(655,348,cs),
(655,199,o),
(558,72,o),
(402,72,cs)
);
}
);
width = 778;
}
);
leftKerningGroup = C2;
rightKerningGroup = D;
unicode = 213;
},
{
glyphname = OE;
layers = (
{
hints = (
{
horizontal = 1;
place = (-13,130);
type = Stem;
},
{
horizontal = 1;
place = (0,126);
type = Stem;
},
{
horizontal = 1;
place = (295,122);
type = Stem;
},
{
horizontal = 1;
place = (574,126);
type = Stem;
},
{
horizontal = 1;
place = (583,130);
type = Stem;
},
{
place = (25,145);
type = Stem;
},
{
place = (601,120);
type = Stem;
},
{
place = (605,116);
type = Stem;
}
);
layerId = "C557D8BE-4A15-4F65-8734-97D132B34265";
shapes = (
{
closed = 1;
nodes = (
(652,0,l),
(1002,0,l),
(1002,83,l),
(721,83,l),
(721,316,l),
(994,316,l),
(994,395,l),
(721,395,l),
(721,616,l),
(1000,616,l),
(1000,697,l),
(652,697,l),
(652,555,l),
(639,572,ls),
(628,586,o),
(618,602,o),
(606,616,cs),
(552,684,o),
(478,712,o),
(392,712,cs),
(195,712,o),
(50,542,o),
(50,348,cs),
(50,153,o),
(196,-14,o),
(392,-14,cs),
(478,-14,o),
(552,13,o),
(606,81,cs),
(618,95,o),
(628,110,o),
(639,124,c),
(652,142,l)
);
},
{
closed = 1;
nodes = (
(247,72,o),
(149,199,o),
(149,348,cs),
(149,496,o),
(247,625,o),
(402,625,cs),
(565,625,o),
(647,499,o),
(647,348,cs),
(647,197,o),
(564,72,o),
(402,72,cs)
);
}
);
width = 1032;
}
);
leftKerningGroup = C2;
rightKerningGroup = E;
unicode = 338;
},
{
glyphname = P;
layers = (
{
hints = (
{
horizontal = 1;
place = (0,21);
target = up;
type = BottomGhost;
},
{
horizontal = 1;
place = (254,126);
type = Stem;
},
{
horizontal = 1;
place = (575,125);
type = Stem;
},
{
place = (50,140);
type = Stem;
},
{
place = (397,142);
type = Stem;
}
);
layerId = "C557D8BE-4A15-4F65-8734-97D132B34265";
shapes = (
{
closed = 1;
nodes = (
(75,0,l),
(169,0,l),
(169,272,l),
(294,272,ls),
(436,272,o),
(530,337,o),
(530,487,cs),
(530,636,o),
(434,697,o),
(294,697,cs),
(75,697,l)
);
},
{
closed = 1;
nodes = (
(169,355,l),
(169,617,l),
(286,617,ls),
(368,617,o),
(435,580,o),
(435,486,cs),
(435,392,o),
(369,355,o),
(286,355,cs)
);
}
);
width = 549;
}
);
leftKerningGroup = B;
unicode = 80;
},
{
glyphname = Thorn;
layers = (
{
hints = (
{
horizontal = 1;
place = (0,21);
target = up;
type = BottomGhost;
},
{
horizontal = 1;
place = (119,126);
type = Stem;
},
{
horizontal = 1;
place = (456,126);
type = Stem;
},
{
horizontal = 1;
place = (700,-20);
target = down;
type = TopGhost;
},
{
place = (50,138);
type = Stem;
},
{
place = (50,140);
type = Stem;
},
{
place = (398,142);
type = Stem;
}
);
layerId = "C557D8BE-4A15-4F65-8734-97D132B34265";
shapes = (
{
closed = 1;
nodes = (
(75,0,l),
(169,0,l),
(169,127,l),
(295,127,ls),
(438,127,o),
(531,202,o),
(531,351,cs),
(531,500,o),
(438,571,o),
(295,571,cs),
(167,571,l),
(167,697,l),
(75,697,l)
);
},
{
closed = 1;
nodes = (
(169,210,l),
(169,489,l),
(287,489,ls),
(375,489,o),
(436,445,o),
(436,350,cs),
(436,255,o),
(375,210,o),
(287,210,cs)
);
}
);
width = 553;
}
);
leftKerningGroup = B;
unicode = 222;
},
{
glyphname = Q;
layers = (
{
anchors = (
{
name = t.uni030C.alt;
position = "{484, 700}";
}
);
hints = (
{
horizontal = 1;
place = (-13,130);
type = Stem;
},
{
horizontal = 1;
place = (583,130);
type = Stem;
},
{
place = (25,145);
type = Stem;
},
{
place = (608,145);
type = Stem;
}
);
layerId = "C557D8BE-4A15-4F65-8734-97D132B34265";
shapes = (
{
closed = 1;
nodes = (
(566,23,l),
(623,-61,l),
(718,-61,l),
(633,72,l),
(638,76,l),
(639,79,o),
(642,81,o),
(644,82,cs),
(646,84,o),
(647,85,o),
(649,87,cs),
(717,154,o),
(753,252,o),
(753,348,cs),
(753,548,o),
(603,712,o),
(402,712,cs),
(201,712,o),
(50,550,o),
(50,348,cs),
(50,147,o),
(203,-14,o),
(402,-14,cs),
(454,-14,o),
(498,-2,o),
(546,17,c),
(551,18,o),
(556,20,o),
(561,22,c)
);
},
{
closed = 1;
nodes = (
(447,224,l),
(525,101,l),
(518,98,l),
(480,83,o),
(444,72,o),
(402,72,cs),
(247,72,o),
(149,199,o),
(149,348,cs),
(149,496,o),
(247,625,o),
(402,625,cs),
(559,625,o),
(655,497,o),
(655,348,cs),
(655,276,o),
(634,219,o),
(595,161,cs),
(589,152,l),
(543,224,l)
);
}
);
width = 778;
}
);
leftKerningGroup = C2;
unicode = 81;
},
{
glyphname = R;
layers = (
{
hints = (
{
horizontal = 1;
place = (0,21);
target = up;
type = BottomGhost;
},
{
horizontal = 1;
place = (273,126);
type = Stem;
},
{
horizontal = 1;
place = (574,127);
type = Stem;
},
{
place = (50,140);
type = Stem;
},
{
place = (387,142);
type = Stem;
}
);
layerId = "C557D8BE-4A15-4F65-8734-97D132B34265";
shapes = (
{
closed = 1;
nodes = (
(75,0,l),
(169,0,l),
(169,293,l),
(239,293,l),
(241,289,ls),
(246,278,o),
(251,267,o),
(255,256,c),
(260,246,o),
(265,236,o),
(271,226,cs),
(418,0,l),
(526,0,l),
(330,299,l),
(366,307,ls),
(467,330,o),
(520,390,o),
(520,497,cs),
(520,638,o),
(419,698,o),
(287,698,cs),
(216,698,o),
(146,697,o),
(75,697,c)
);
},
{
closed = 1;
nodes = (
(169,375,l),
(169,616,l),
(276,616,ls),
(350,616,o),
(424,585,o),
(424,496,cs),
(424,405,o),
(350,375,o),
(276,375,cs)
);
}
);
width = 551;
}
);
leftKerningGroup = B;
rightKerningGroup = R;
unicode = 82;
},
{
glyphname = Racute;
layers = (
{
hints = (
{
horizontal = 1;
place = (0,21);
target = up;
type = BottomGhost;
},
{
horizontal = 1;
place = (273,126);
type = Stem;
},
{
horizontal = 1;
place = (574,127);
type = Stem;
},
{
horizontal = 1;
place = (746,174);
type = Stem;
},
{
place = (50,140);
type = Stem;
},
{
place = (387,142);
type = Stem;
}
);
layerId = "C557D8BE-4A15-4F65-8734-97D132B34265";
shapes = (
{
closed = 1;
nodes = (
(270,800,l),
(319,800,l),
(385,934,l),
(302,934,l)
);
},
{
closed = 1;
nodes = (
(75,0,l),
(169,0,l),
(169,293,l),
(239,293,l),
(241,289,ls),
(246,278,o),
(251,267,o),
(255,256,c),
(260,246,o),
(265,236,o),
(271,226,cs),
(418,0,l),
(526,0,l),
(330,299,l),
(366,307,ls),
(467,330,o),
(520,390,o),
(520,497,cs),
(520,638,o),
(419,698,o),
(287,698,cs),
(216,698,o),
(146,697,o),
(75,697,c)
);
},
{
closed = 1;
nodes = (
(169,375,l),
(169,616,l),
(276,616,ls),
(350,616,o),
(424,585,o),
(424,496,cs),
(424,405,o),
(350,375,o),
(276,375,cs)
);
}
);
width = 551;
}
);
leftKerningGroup = B;
rightKerningGroup = R;
unicode = 340;
},
{
glyphname = Rcaron;
layers = (
{
hints = (
{
horizontal = 1;
place = (0,21);
target = up;
type = BottomGhost;
},
{
horizontal = 1;
place = (273,126);
type = Stem;
},
{
horizontal = 1;
place = (574,127);
type = Stem;
},
{
horizontal = 1;
place = (746,174);
type = Stem;
},
{
place = (50,140);
type = Stem;
},
{
place = (387,142);
type = Stem;
}
);
layerId = "C557D8BE-4A15-4F65-8734-97D132B34265";
shapes = (
{
closed = 1;
nodes = (
(247,800,l),
(330,800,l),
(402,934,l),
(343,934,l),
(288,810,l),
(234,934,l),
(172,934,l)
);
},
{
closed = 1;
nodes = (
(75,0,l),
(169,0,l),
(169,293,l),
(239,293,l),
(241,289,ls),
(246,278,o),
(251,267,o),
(255,256,c),
(260,246,o),
(265,236,o),
(271,226,cs),
(418,0,l),
(526,0,l),
(330,299,l),
(366,307,ls),
(467,330,o),
(520,390,o),
(520,497,cs),
(520,638,o),
(419,698,o),
(287,698,cs),
(216,698,o),
(146,697,o),
(75,697,c)
);
},
{
closed = 1;
nodes = (
(169,375,l),
(169,616,l),
(276,616,ls),
(350,616,o),
(424,585,o),
(424,496,cs),
(424,405,o),
(350,375,o),
(276,375,cs)
);
}
);
width = 551;
}
);
leftKerningGroup = B;
rightKerningGroup = R;
unicode = 344;
},
{
glyphname = uni0156;
layers = (
{
hints = (
{
horizontal = 1;
place = (-200,155);
type = Stem;
},
{
horizontal = 1;
place = (0,21);
target = up;
type = BottomGhost;
},
{
horizontal = 1;
place = (273,126);
type = Stem;
},
{
horizontal = 1;
place = (574,127);
type = Stem;
},
{
place = (50,140);
type = Stem;
},
{
place = (387,142);
type = Stem;
}
);
layerId = "C557D8BE-4A15-4F65-8734-97D132B34265";
shapes = (
{
closed = 1;
nodes = (
(240,-214,l),
(270,-214,l),
(339,-101,l),
(263,-101,l)
);
},
{
closed = 1;
nodes = (
(75,0,l),
(169,0,l),
(169,293,l),
(239,293,l),
(241,289,ls),
(246,278,o),
(251,267,o),
(255,256,c),
(260,246,o),
(265,236,o),
(271,226,cs),
(418,0,l),
(526,0,l),
(330,299,l),
(366,307,ls),
(467,330,o),
(520,390,o),
(520,497,cs),
(520,638,o),
(419,698,o),
(287,698,cs),
(216,698,o),
(146,697,o),
(75,697,c)
);
},
{
closed = 1;
nodes = (
(169,375,l),
(169,616,l),
(276,616,ls),
(350,616,o),
(424,585,o),
(424,496,cs),
(424,405,o),
(350,375,o),
(276,375,cs)
);
}
);
width = 551;
}
);
leftKerningGroup = B;
rightKerningGroup = R;
unicode = 342;
},
{
glyphname = uni1E5C;
layers = (
{
hints = (
{
horizontal = 1;
place = (-213,159);
type = Stem;
},
{
horizontal = 1;
place = (0,21);
target = up;
type = BottomGhost;
},
{
horizontal = 1;
place = (273,126);
type = Stem;
},
{
horizontal = 1;
place = (574,127);
type = Stem;
},
{
horizontal = 1;
place = (778,90);
type = Stem;
},
{
place = (50,140);
type = Stem;
},
{
place = (128,306);
type = Stem;
},
{
place = (224,162);
type = Stem;
},
{
place = (387,142);
type = Stem;
}
);
layerId = "C557D8BE-4A15-4F65-8734-97D132B34265";
shapes = (
{
closed = 1;
nodes = (
(256,-203,o),
(281,-228,o),
(314,-228,cs),
(349,-228,o),
(372,-204,o),
(372,-169,cs),
(372,-136,o),
(348,-111,o),
(314,-111,cs),
(282,-111,o),
(256,-137,o),
(256,-169,cs)
);
},
{
closed = 1;
nodes = (
(156,834,l),
(421,834,l),
(421,878,l),
(156,878,l)
);
},
{
closed = 1;
nodes = (
(75,0,l),
(169,0,l),
(169,293,l),
(239,293,l),
(241,289,ls),
(246,278,o),
(251,267,o),
(255,256,c),
(260,246,o),
(265,236,o),
(271,226,cs),
(418,0,l),
(526,0,l),
(330,299,l),
(366,307,ls),
(467,330,o),
(520,390,o),
(520,497,cs),
(520,638,o),
(419,698,o),
(287,698,cs),
(216,698,o),
(146,697,o),
(75,697,c)
);
},
{
closed = 1;
nodes = (
(169,375,l),
(169,616,l),
(276,616,ls),
(350,616,o),
(424,585,o),
(424,496,cs),
(424,405,o),
(350,375,o),
(276,375,cs)
);
}
);
width = 551;
}
);
leftKerningGroup = B;
rightKerningGroup = R;
unicode = 7772;
},
{
glyphname = uni1E5E;
layers = (
{
hints = (
{
horizontal = 1;
place = (-181,90);
type = Stem;
},
{
horizontal = 1;
place = (0,21);
target = up;
type = BottomGhost;
},
{
horizontal = 1;
place = (273,126);
type = Stem;
},
{
horizontal = 1;
place = (574,127);
type = Stem;
},
{
place = (50,140);
type = Stem;
},
{
place = (152,38);
type = Stem;
},
{
place = (387,142);
type = Stem;
}
);
layerId = "C557D8BE-4A15-4F65-8734-97D132B34265";
shapes = (
{
closed = 1;
nodes = (
(181,-194,l),
(447,-194,l),
(447,-151,l),
(181,-151,l)
);
},
{
closed = 1;
nodes = (
(75,0,l),
(169,0,l),
(169,293,l),
(239,293,l),
(241,289,ls),
(246,278,o),
(251,267,o),
(255,256,c),
(260,246,o),
(265,236,o),
(271,226,cs),
(418,0,l),
(526,0,l),
(330,299,l),
(366,307,ls),
(467,330,o),
(520,390,o),
(520,497,cs),
(520,638,o),
(419,698,o),
(287,698,cs),
(216,698,o),
(146,697,o),
(75,697,c)
);
},
{
closed = 1;
nodes = (
(169,375,l),
(169,616,l),
(276,616,ls),
(350,616,o),
(424,585,o),
(424,496,cs),
(424,405,o),
(350,375,o),
(276,375,cs)
);
}
);
width = 551;
}
);
leftKerningGroup = B;
rightKerningGroup = R;
unicode = 7774;
},
{
glyphname = S;
layers = (
{
hints = (
{
horizontal = 1;
place = (-13,125);
type = Stem;
},
{
horizontal = 1;
place = (587,125);
type = Stem;
},
{
place = (54,143);
type = Stem;
},
{
place = (391,143);
type = Stem;
}
);
layerId = "C557D8BE-4A15-4F65-8734-97D132B34265";
shapes = (
{
closed = 1;
nodes = (
(45,113,l),
(101,27,o),
(184,-14,o),
(287,-14,cs),
(416,-14,o),
(527,49,o),
(527,188,cs),
(527,313,o),
(444,355,o),
(357,385,cs),
(335,393,o),
(313,400,o),
(292,407,cs),
(272,414,o),
(252,422,o),
(236,431,cs),
(202,451,o),
(177,477,o),
(177,521,cs),
(177,593,o),
(242,629,o),
(304,629,cs),
(363,629,o),
(402,601,o),
(434,555,c),
(515,607,l),
(463,677,o),
(400,711,o),
(312,711,cs),
(187,711,o),
(81,646,o),
(81,513,cs),
(81,407,o),
(149,355,o),
(246,327,cs),
(264,322,o),
(285,316,o),
(306,310,cs),
(326,304,o),
(346,296,o),
(364,285,c),
(402,264,o),
(430,232,o),
(430,179,cs),
(430,100,o),
(362,67,o),
(296,67,cs),
(222,67,o),
(163,106,o),
(126,167,c)
);
}
);
width = 556;
}
);
leftKerningGroup = S2;
rightKerningGroup = S;
unicode = 83;
},
{
glyphname = Sacute;
layers = (
{
hints = (
{
horizontal = 1;
place = (-13,125);
type = Stem;
},
{
horizontal = 1;
place = (587,125);
type = Stem;
},
{
horizontal = 1;
place = (746,174);
type = Stem;
},
{
place = (54,143);
type = Stem;
},
{
place = (391,143);
type = Stem;
}
);
layerId = "C557D8BE-4A15-4F65-8734-97D132B34265";
shapes = (
{
closed = 1;
nodes = (
(45,113,l),
(101,27,o),
(184,-14,o),
(287,-14,cs),
(416,-14,o),
(527,49,o),
(527,188,cs),
(527,313,o),
(444,355,o),
(357,385,cs),
(335,393,o),
(313,400,o),
(292,407,cs),
(272,414,o),
(252,422,o),
(236,431,cs),
(202,451,o),
(177,477,o),
(177,521,cs),
(177,593,o),
(242,629,o),
(304,629,cs),
(363,629,o),
(402,601,o),
(434,555,c),
(515,607,l),
(463,677,o),
(400,711,o),
(312,711,cs),
(187,711,o),
(81,646,o),
(81,513,cs),
(81,407,o),
(149,355,o),
(246,327,cs),
(264,322,o),
(285,316,o),
(306,310,cs),
(326,304,o),
(346,296,o),
(364,285,c),
(402,264,o),
(430,232,o),
(430,179,cs),
(430,100,o),
(362,67,o),
(296,67,cs),
(222,67,o),
(163,106,o),
(126,167,c)
);
},
{
closed = 1;
nodes = (
(291,800,l),
(340,800,l),
(406,934,l),
(324,934,l)
);
}
);
width = 556;
}
);
leftKerningGroup = S2;
rightKerningGroup = S;
unicode = 346;
},
{
glyphname = uniA78B;
layers = (
{
hints = (
{
horizontal = 1;
place = (700,-20);
target = down;
type = TopGhost;
},
{
place = (74,140);
type = Stem;
}
);
layerId = "C557D8BE-4A15-4F65-8734-97D132B34265";
shapes = (
{
closed = 1;
nodes = (
(122,207,l),
(171,207,l),
(185,456,ls),
(188,502,o),
(193,546,o),
(193,592,cs),
(193,697,l),
(99,697,l),
(99,592,ls),
(99,546,o),
(105,502,o),
(108,456,cs)
);
}
);
width = 288;
}
);
unicode = 42891;
},
{
glyphname = Scaron;
layers = (
{
hints = (
{
horizontal = 1;
place = (-13,125);
type = Stem;
},
{
horizontal = 1;
place = (587,125);
type = Stem;
},
{
horizontal = 1;
place = (746,174);
type = Stem;
},
{
place = (54,143);
type = Stem;
},
{
place = (391,143);
type = Stem;
}
);
layerId = "C557D8BE-4A15-4F65-8734-97D132B34265";
shapes = (
{
closed = 1;
nodes = (
(45,113,l),
(101,27,o),
(184,-14,o),
(287,-14,cs),
(416,-14,o),
(527,49,o),
(527,188,cs),
(527,313,o),
(444,355,o),
(357,385,cs),
(335,393,o),
(313,400,o),
(292,407,cs),
(272,414,o),
(252,422,o),
(236,431,cs),
(202,451,o),
(177,477,o),
(177,521,cs),
(177,593,o),
(242,629,o),
(304,629,cs),
(363,629,o),
(402,601,o),
(434,555,c),
(515,607,l),
(463,677,o),
(400,711,o),
(312,711,cs),
(187,711,o),
(81,646,o),
(81,513,cs),
(81,407,o),
(149,355,o),
(246,327,cs),
(264,322,o),
(285,316,o),
(306,310,cs),
(326,304,o),
(346,296,o),
(364,285,c),
(402,264,o),
(430,232,o),
(430,179,cs),
(430,100,o),
(362,67,o),
(296,67,cs),
(222,67,o),
(163,106,o),
(126,167,c)
);
},
{
closed = 1;
nodes = (
(267,800,l),
(351,800,l),
(424,934,l),
(364,934,l),
(309,810,l),
(254,934,l),
(193,934,l)
);
}
);
width = 556;
}
);
leftKerningGroup = S2;
rightKerningGroup = S;
unicode = 352;
},
{
glyphname = Scedilla;
layers = (
{
hints = (
{
horizontal = 1;
place = (-213,73);
type = Stem;
},
{
horizontal = 1;
place = (-13,125);
type = Stem;
},
{
horizontal = 1;
place = (587,125);
type = Stem;
},
{
place = (54,143);
type = Stem;
},
{
place = (284,79);
type = Stem;
},
{
place = (391,143);
type = Stem;
}
);
layerId = "C557D8BE-4A15-4F65-8734-97D132B34265";
shapes = (
{
closed = 1;
nodes = (
(211,-214,l),
(230,-226,o),
(246,-228,o),
(271,-228,cs),
(317,-228,o),
(350,-201,o),
(350,-155,cs),
(350,-115,o),
(330,-100,o),
(292,-93,c),
(283,-91,l),
(320,-12,l),
(324,-12,l),
(439,-3,o),
(527,67,o),
(527,188,cs),
(527,313,o),
(444,355,o),
(357,385,cs),
(335,393,o),
(313,400,o),
(292,407,cs),
(272,414,o),
(252,422,o),
(236,431,cs),
(202,451,o),
(177,477,o),
(177,521,cs),
(177,593,o),
(242,629,o),
(304,629,cs),
(363,629,o),
(402,601,o),
(434,555,c),
(515,607,l),
(463,677,o),
(400,711,o),
(312,711,cs),
(187,711,o),
(81,646,o),
(81,513,cs),
(81,407,o),
(149,354,o),
(246,327,cs),
(264,322,o),
(285,316,o),
(306,310,cs),
(326,304,o),
(346,296,o),
(364,285,c),
(402,264,o),
(430,231,o),
(430,179,cs),
(430,100,o),
(362,67,o),
(296,67,cs),
(222,67,o),
(163,106,o),
(126,167,c),
(46,113,l),
(100,30,o),
(177,-10,o),
(276,-14,cs),
(314,-15,l),
(280,-97,l),
(303,-103,o),
(320,-122,o),
(320,-147,cs),
(320,-181,o),
(292,-203,o),
(261,-203,cs),
(249,-203,o),
(237,-200,o),
(226,-195,c)
);
}
);
width = 556;
}
);
leftKerningGroup = S2;
rightKerningGroup = S;
unicode = 350;
},
{
glyphname = Scircumflex;
layers = (
{
hints = (
{
horizontal = 1;
place = (-13,125);
type = Stem;
},
{
horizontal = 1;
place = (587,125);
type = Stem;
},
{
horizontal = 1;
place = (746,174);
type = Stem;
},
{
place = (54,143);
type = Stem;
},
{
place = (391,143);
type = Stem;
}
);
layerId = "C557D8BE-4A15-4F65-8734-97D132B34265";
shapes = (
{
closed = 1;
nodes = (
(45,113,l),
(101,27,o),
(184,-14,o),
(287,-14,cs),
(416,-14,o),
(527,49,o),
(527,188,cs),
(527,313,o),
(444,355,o),
(357,385,cs),
(335,393,o),
(313,400,o),
(292,407,cs),
(272,414,o),
(252,422,o),
(236,431,cs),
(202,451,o),
(177,477,o),
(177,521,cs),
(177,593,o),
(242,629,o),
(304,629,cs),
(363,629,o),
(402,601,o),
(434,555,c),
(515,607,l),
(463,677,o),
(400,711,o),
(312,711,cs),
(187,711,o),
(81,646,o),
(81,513,cs),
(81,407,o),
(149,355,o),
(246,327,cs),
(264,322,o),
(285,316,o),
(306,310,cs),
(326,304,o),
(346,296,o),
(364,285,c),
(402,264,o),
(430,232,o),
(430,179,cs),
(430,100,o),
(362,67,o),
(296,67,cs),
(222,67,o),
(163,106,o),
(126,167,c)
);
},
{
closed = 1;
nodes = (
(193,800,l),
(254,800,l),
(309,924,l),
(364,800,l),
(424,800,l),
(351,934,l),
(267,934,l)
);
}
);
width = 556;
}
);
leftKerningGroup = S2;
rightKerningGroup = S;
unicode = 348;
},
{
glyphname = uni0218;
layers = (
{
hints = (
{
horizontal = 1;
place = (-200,155);
type = Stem;
},
{
horizontal = 1;
place = (-13,125);
type = Stem;
},
{
horizontal = 1;
place = (587,125);
type = Stem;
},
{
place = (54,143);
type = Stem;
},
{
place = (391,143);
type = Stem;
}
);
layerId = "C557D8BE-4A15-4F65-8734-97D132B34265";
shapes = (
{
closed = 1;
nodes = (
(45,113,l),
(101,27,o),
(184,-14,o),
(287,-14,cs),
(416,-14,o),
(527,49,o),
(527,188,cs),
(527,313,o),
(444,355,o),
(357,385,cs),
(335,393,o),
(313,400,o),
(292,407,cs),
(272,414,o),
(252,422,o),
(236,431,cs),
(202,451,o),
(177,477,o),
(177,521,cs),
(177,593,o),
(242,629,o),
(304,629,cs),
(363,629,o),
(402,601,o),
(434,555,c),
(515,607,l),
(463,677,o),
(400,711,o),
(312,711,cs),
(187,711,o),
(81,646,o),
(81,513,cs),
(81,407,o),
(149,355,o),
(246,327,cs),
(264,322,o),
(285,316,o),
(306,310,cs),
(326,304,o),
(346,296,o),
(364,285,c),
(402,264,o),
(430,232,o),
(430,179,cs),
(430,100,o),
(362,67,o),
(296,67,cs),
(222,67,o),
(163,106,o),
(126,167,c)
);
},
{
closed = 1;
nodes = (
(217,-214,l),
(247,-214,l),
(316,-101,l),
(241,-101,l)
);
}
);
width = 556;
}
);
leftKerningGroup = S2;
rightKerningGroup = S;
unicode = 536;
},
{
glyphname = uni1E62;
layers = (
{
hints = (
{
horizontal = 1;
place = (-213,159);
type = Stem;
},
{
horizontal = 1;
place = (-13,125);
type = Stem;
},
{
horizontal = 1;
place = (587,125);
type = Stem;
},
{
place = (54,143);
type = Stem;
},
{
place = (201,162);
type = Stem;
},
{
place = (391,143);
type = Stem;
}
);
layerId = "C557D8BE-4A15-4F65-8734-97D132B34265";
shapes = (
{
closed = 1;
nodes = (
(45,113,l),
(101,27,o),
(184,-14,o),
(287,-14,cs),
(416,-14,o),
(527,49,o),
(527,188,cs),
(527,313,o),
(444,355,o),
(357,385,cs),
(335,393,o),
(313,400,o),
(292,407,cs),
(272,414,o),
(252,422,o),
(236,431,cs),
(202,451,o),
(177,477,o),
(177,521,cs),
(177,593,o),
(242,629,o),
(304,629,cs),
(363,629,o),
(402,601,o),
(434,555,c),
(515,607,l),
(463,677,o),
(400,711,o),
(312,711,cs),
(187,711,o),
(81,646,o),
(81,513,cs),
(81,407,o),
(149,355,o),
(246,327,cs),
(264,322,o),
(285,316,o),
(306,310,cs),
(326,304,o),
(346,296,o),
(364,285,c),
(402,264,o),
(430,232,o),
(430,179,cs),
(430,100,o),
(362,67,o),
(296,67,cs),
(222,67,o),
(163,106,o),
(126,167,c)
);
},
{
closed = 1;
nodes = (
(233,-203,o),
(258,-228,o),
(291,-228,cs),
(326,-228,o),
(350,-204,o),
(350,-169,cs),
(350,-136,o),
(325,-111,o),
(291,-111,cs),
(259,-111,o),
(233,-137,o),
(233,-169,cs)
);
}
);
width = 556;
}
);
leftKerningGroup = S2;
rightKerningGroup = S;
unicode = 7778;
},
{
glyphname = uni1E9E;
layers = (
{
hints = (
{
horizontal = 1;
place = (-13,121);
type = Stem;
},
{
horizontal = 1;
place = (0,29);
type = Stem;
},
{
horizontal = 1;
place = (577,125);
type = Stem;
},
{
place = (45,139);
type = Stem;
},
{
place = (464,134);
type = Stem;
}
);
layerId = "C557D8BE-4A15-4F65-8734-97D132B34265";
shapes = (
{
closed = 1;
nodes = (
(70,0,l),
(163,0,l),
(163,428,ls),
(163,548,o),
(201,619,o),
(332,619,cs),
(494,619,l),
(483,607,ls),
(474,597,o),
(464,587,o),
(454,576,cs),
(444,566,o),
(435,556,o),
(429,544,c),
(304,329,l),
(394,333,o),
(504,320,o),
(504,196,cs),
(504,119,o),
(452,63,o),
(375,63,cs),
(349,63,o),
(324,69,o),
(300,83,c),
(253,12,l),
(295,-10,o),
(339,-14,o),
(388,-14,cs),
(508,-14,o),
(592,74,o),
(592,195,cs),
(592,300,o),
(538,362,o),
(437,380,cs),
(427,382,l),
(607,700,l),
(331,700,ls),
(158,700,o),
(70,615,o),
(70,439,cs)
);
}
);
width = 639;
}
);
leftKerningGroup = B;
unicode = 7838;
},
{
glyphname = uni018F;
layers = (
{
hints = (
{
horizontal = 1;
place = (-17,127);
type = Stem;
},
{
horizontal = 1;
place = (283,121);
type = Stem;
},
{
horizontal = 1;
place = (579,132);
type = Stem;
},
{
place = (22,708);
type = Stem;
}
);
layerId = "C557D8BE-4A15-4F65-8734-97D132B34265";
shapes = (
{
closed = 1;
nodes = (
(49,379,l),
(48,368,o),
(47,358,o),
(47,347,cs),
(47,148,o),
(184,-18,o),
(386,-18,cs),
(588,-18,o),
(730,148,o),
(730,347,cs),
(730,572,o),
(596,710,o),
(373,710,cs),
(273,710,o),
(164,668,o),
(103,586,c),
(184,522,l),
(229,581,o),
(300,621,o),
(374,621,cs),
(523,621,o),
(605,532,o),
(621,387,cs),
(622,379,l)
);
},
{
closed = 1;
nodes = (
(155,299,l),
(623,307,l),
(622,299,ls),
(609,172,o),
(529,65,o),
(392,65,cs),
(262,65,o),
(173,167,o),
(156,291,cs)
);
}
);
width = 755;
}
);
leftKerningGroup = C2;
rightKerningGroup = D;
unicode = 399;
},
{
glyphname = T;
layers = (
{
hints = (
{
horizontal = 1;
place = (0,21);
target = up;
type = BottomGhost;
},
{
horizontal = 1;
place = (574,126);
type = Stem;
},
{
place = (215,140);
type = Stem;
}
);
layerId = "C557D8BE-4A15-4F65-8734-97D132B34265";
shapes = (
{
closed = 1;
nodes = (
(248,0,l),
(341,0,l),
(341,616,l),
(549,616,l),
(549,697,l),
(40,697,l),
(40,616,l),
(248,616,l)
);
}
);
width = 570;
}
);
leftKerningGroup = T2;
rightKerningGroup = T;
unicode = 84;
},
{
glyphname = Tcaron;
layers = (
{
hints = (
{
horizontal = 1;
place = (0,21);
target = up;
type = BottomGhost;
},
{
horizontal = 1;
place = (574,126);
type = Stem;
},
{
horizontal = 1;
place = (746,174);
type = Stem;
},
{
place = (215,140);
type = Stem;
}
);
layerId = "C557D8BE-4A15-4F65-8734-97D132B34265";
shapes = (
{
closed = 1;
nodes = (
(248,0,l),
(341,0,l),
(341,616,l),
(549,616,l),
(549,697,l),
(40,697,l),
(40,616,l),
(248,616,l)
);
},
{
closed = 1;
nodes = (
(253,800,l),
(336,800,l),
(409,934,l),
(349,934,l),
(295,810,l),
(240,934,l),
(178,934,l)
);
}
);
width = 570;
}
);
leftKerningGroup = T2;
rightKerningGroup = T;
unicode = 356;
},
{
glyphname = uni0162;
layers = (
{
hints = (
{
horizontal = 1;
place = (-213,73);
type = Stem;
},
{
horizontal = 1;
place = (0,21);
target = up;
type = BottomGhost;
},
{
horizontal = 1;
place = (574,126);
type = Stem;
},
{
place = (215,140);
type = Stem;
},
{
place = (287,79);
type = Stem;
}
);
layerId = "C557D8BE-4A15-4F65-8734-97D132B34265";
shapes = (
{
closed = 1;
nodes = (
(214,-214,l),
(233,-226,o),
(249,-228,o),
(273,-228,cs),
(319,-228,o),
(353,-202,o),
(353,-155,cs),
(353,-131,o),
(340,-104,o),
(317,-98,cs),
(310,-96,o),
(303,-94,o),
(296,-93,c),
(287,-91,l),
(328,0,l),
(341,0,l),
(341,616,l),
(549,616,l),
(549,697,l),
(40,697,l),
(40,616,l),
(248,616,l),
(248,0,l),
(324,0,l),
(282,-97,l),
(306,-102,o),
(323,-121,o),
(323,-147,cs),
(323,-181,o),
(296,-203,o),
(264,-203,cs),
(252,-203,o),
(240,-200,o),
(229,-195,c)
);
}
);
width = 570;
}
);
leftKerningGroup = T2;
rightKerningGroup = T;
unicode = 354;
},
{
glyphname = uni021A;
layers = (
{
hints = (
{
horizontal = 1;
place = (-200,155);
type = Stem;
},
{
horizontal = 1;
place = (0,21);
target = up;
type = BottomGhost;
},
{
horizontal = 1;
place = (574,126);
type = Stem;
},
{
place = (215,140);
type = Stem;
}
);
layerId = "C557D8BE-4A15-4F65-8734-97D132B34265";
shapes = (
{
closed = 1;
nodes = (
(248,0,l),
(341,0,l),
(341,616,l),
(549,616,l),
(549,697,l),
(40,697,l),
(40,616,l),
(248,616,l)
);
},
{
closed = 1;
nodes = (
(220,-214,l),
(250,-214,l),
(319,-101,l),
(244,-101,l)
);
}
);
width = 570;
}
);
leftKerningGroup = T2;
rightKerningGroup = T;
unicode = 538;
},
{
glyphname = uni1E6C;
layers = (
{
hints = (
{
horizontal = 1;
place = (-213,159);
type = Stem;
},
{
horizontal = 1;
place = (0,21);
target = up;
type = BottomGhost;
},
{
horizontal = 1;
place = (574,126);
type = Stem;
},
{
place = (204,162);
type = Stem;
},
{
place = (215,140);
type = Stem;
}
);
layerId = "C557D8BE-4A15-4F65-8734-97D132B34265";
shapes = (
{
closed = 1;
nodes = (
(248,0,l),
(341,0,l),
(341,616,l),
(549,616,l),
(549,697,l),
(40,697,l),
(40,616,l),
(248,616,l)
);
},
{
closed = 1;
nodes = (
(236,-203,o),
(261,-228,o),
(295,-228,cs),
(329,-228,o),
(353,-204,o),
(353,-169,cs),
(353,-136,o),
(328,-111,o),
(295,-111,cs),
(262,-111,o),
(236,-137,o),
(236,-169,cs)
);
}
);
width = 570;
}
);
leftKerningGroup = T2;
rightKerningGroup = T;
unicode = 7788;
},
{
glyphname = uni1E6E;
layers = (
{
hints = (
{
horizontal = 1;
place = (-181,90);
type = Stem;
},
{
horizontal = 1;
place = (0,21);
target = up;
type = BottomGhost;
},
{
horizontal = 1;
place = (574,126);
type = Stem;
},
{
place = (215,140);
type = Stem;
}
);
layerId = "C557D8BE-4A15-4F65-8734-97D132B34265";
shapes = (
{
closed = 1;
nodes = (
(248,0,l),
(341,0,l),
(341,616,l),
(549,616,l),
(549,697,l),
(40,697,l),
(40,616,l),
(248,616,l)
);
},
{
closed = 1;
nodes = (
(162,-194,l),
(428,-194,l),
(428,-151,l),
(162,-151,l)
);
}
);
width = 570;
}
);
leftKerningGroup = T2;
rightKerningGroup = T;
unicode = 7790;
},
{
glyphname = U;
layers = (
{
anchors = (
{
name = t.uni030C.alt;
position = "{614, 700}";
}
);
hints = (
{
horizontal = 1;
place = (-13,128);
type = Stem;
},
{
horizontal = 1;
place = (700,-20);
target = down;
type = TopGhost;
},
{
place = (40,140);
type = Stem;
},
{
place = (466,140);
type = Stem;
}
);
layerId = "C557D8BE-4A15-4F65-8734-97D132B34265";
shapes = (
{
closed = 1;
nodes = (
(65,697,l),
(65,252,ls),
(65,90,o),
(173,-14,o),
(333,-14,cs),
(492,-14,o),
(600,90,o),
(600,252,cs),
(600,697,l),
(507,697,l),
(507,267,ls),
(507,155,o),
(454,70,o),
(333,70,cs),
(211,70,o),
(159,156,o),
(159,267,cs),
(159,697,l)
);
}
);
width = 646;
}
);
leftKerningGroup = U;
rightKerningGroup = J;
unicode = 85;
},
{
glyphname = Uacute;
layers = (
{
anchors = (
{
name = t.uni030C.alt;
position = "{614, 700}";
}
);
hints = (
{
horizontal = 1;
place = (-13,128);
type = Stem;
},
{
horizontal = 1;
place = (700,-20);
target = down;
type = TopGhost;
},
{
horizontal = 1;
place = (730,174);
type = Stem;
},
{
place = (40,140);
type = Stem;
},
{
place = (466,140);
type = Stem;
}
);
layerId = "C557D8BE-4A15-4F65-8734-97D132B34265";
shapes = (
{
closed = 1;
nodes = (
(65,697,l),
(65,252,ls),
(65,90,o),
(173,-14,o),
(333,-14,cs),
(492,-14,o),
(600,90,o),
(600,252,cs),
(600,697,l),
(507,697,l),
(507,267,ls),
(507,155,o),
(454,70,o),
(333,70,cs),
(211,70,o),
(159,156,o),
(159,267,cs),
(159,697,l)
);
},
{
closed = 1;
nodes = (
(315,783,l),
(364,783,l),
(430,917,l),
(348,917,l)
);
}
);
width = 646;
}
);
leftKerningGroup = U;
rightKerningGroup = J;
unicode = 218;
},
{
glyphname = Ubreve;
layers = (
{
anchors = (
{
name = t.uni030C.alt;
position = "{614, 700}";
}
);
hints = (
{
horizontal = 1;
place = (-13,128);
type = Stem;
},
{
horizontal = 1;
place = (700,-20);
target = down;
type = TopGhost;
},
{
horizontal = 1;
place = (721,83);
type = Stem;
},
{
horizontal = 1;
place = (721,139);
type = Stem;
},
{
place = (40,140);
type = Stem;
},
{
place = (163,107);
type = Stem;
},
{
place = (376,107);
type = Stem;
},
{
place = (466,140);
type = Stem;
}
);
layerId = "C557D8BE-4A15-4F65-8734-97D132B34265";
shapes = (
{
closed = 1;
nodes = (
(65,697,l),
(65,252,ls),
(65,90,o),
(173,-14,o),
(333,-14,cs),
(492,-14,o),
(600,90,o),
(600,252,cs),
(600,697,l),
(507,697,l),
(507,267,ls),
(507,155,o),
(454,70,o),
(333,70,cs),
(211,70,o),
(159,156,o),
(159,267,cs),
(159,697,l)
);
},
{
closed = 1;
nodes = (
(195,870,l),
(207,803,o),
(267,773,o),
(333,773,cs),
(398,773,o),
(459,803,o),
(471,870,c),
(411,870,l),
(402,833,o),
(370,810,o),
(333,810,cs),
(295,810,o),
(265,833,o),
(256,870,c)
);
}
);
width = 646;
}
);
leftKerningGroup = U;
rightKerningGroup = J;
unicode = 364;
},
{
glyphname = Ucircumflex;
layers = (
{
anchors = (
{
name = t.uni030C.alt;
position = "{614, 700}";
}
);
hints = (
{
horizontal = 1;
place = (-13,128);
type = Stem;
},
{
horizontal = 1;
place = (700,-20);
target = down;
type = TopGhost;
},
{
horizontal = 1;
place = (730,174);
type = Stem;
},
{
place = (40,140);
type = Stem;
},
{
place = (466,140);
type = Stem;
}
);
layerId = "C557D8BE-4A15-4F65-8734-97D132B34265";
shapes = (
{
closed = 1;
nodes = (
(65,697,l),
(65,252,ls),
(65,90,o),
(173,-14,o),
(333,-14,cs),
(492,-14,o),
(600,90,o),
(600,252,cs),
(600,697,l),
(507,697,l),
(507,267,ls),
(507,155,o),
(454,70,o),
(333,70,cs),
(211,70,o),
(159,156,o),
(159,267,cs),
(159,697,l)
);
},
{
closed = 1;
nodes = (
(217,783,l),
(278,783,l),
(333,906,l),
(388,783,l),
(448,783,l),
(374,917,l),
(291,917,l)
);
}
);
width = 646;
}
);
leftKerningGroup = U;
rightKerningGroup = J;
unicode = 219;
},
{
glyphname = Udieresis;
layers = (
{
anchors = (
{
name = t.uni030C.alt;
position = "{614, 700}";
}
);
hints = (
{
horizontal = 1;
place = (-13,128);
type = Stem;
},
{
horizontal = 1;
place = (700,-20);
target = down;
type = TopGhost;
},
{
horizontal = 1;
place = (727,159);
type = Stem;
},
{
place = (40,140);
type = Stem;
},
{
place = (136,44);
type = Stem;
},
{
place = (136,162);
type = Stem;
},
{
place = (348,162);
type = Stem;
},
{
place = (466,44);
type = Stem;
},
{
place = (466,140);
type = Stem;
}
);
layerId = "C557D8BE-4A15-4F65-8734-97D132B34265";
shapes = (
{
closed = 1;
nodes = (
(65,697,l),
(65,252,ls),
(65,90,o),
(173,-14,o),
(333,-14,cs),
(492,-14,o),
(600,90,o),
(600,252,cs),
(600,697,l),
(507,697,l),
(507,267,ls),
(507,155,o),
(454,70,o),
(333,70,cs),
(211,70,o),
(159,156,o),
(159,267,cs),
(159,697,l)
);
},
{
closed = 1;
nodes = (
(165,805,o),
(190,780,o),
(224,780,cs),
(258,780,o),
(281,804,o),
(281,839,cs),
(281,872,o),
(256,897,o),
(224,897,cs),
(191,897,o),
(165,872,o),
(165,839,cs)
);
},
{
closed = 1;
nodes = (
(384,805,o),
(409,780,o),
(443,780,cs),
(477,780,o),
(501,804,o),
(501,839,cs),
(501,873,o),
(476,897,o),
(443,897,cs),
(410,897,o),
(384,872,o),
(384,839,cs)
);
}
);
width = 646;
}
);
leftKerningGroup = U;
rightKerningGroup = J;
unicode = 220;
},
{
glyphname = uni1EE4;
layers = (
{
anchors = (
{
name = t.uni030C.alt;
position = "{614, 700}";
}
);
hints = (
{
horizontal = 1;
place = (-213,159);
type = Stem;
},
{
horizontal = 1;
place = (-13,128);
type = Stem;
},
{
horizontal = 1;
place = (700,-20);
target = down;
type = TopGhost;
},
{
place = (40,140);
type = Stem;
},
{
place = (242,162);
type = Stem;
},
{
place = (466,140);
type = Stem;
}
);
layerId = "C557D8BE-4A15-4F65-8734-97D132B34265";
shapes = (
{
closed = 1;
nodes = (
(65,697,l),
(65,252,ls),
(65,90,o),
(173,-14,o),
(333,-14,cs),
(492,-14,o),
(600,90,o),
(600,252,cs),
(600,697,l),
(507,697,l),
(507,267,ls),
(507,155,o),
(454,70,o),
(333,70,cs),
(211,70,o),
(159,156,o),
(159,267,cs),
(159,697,l)
);
},
{
closed = 1;
nodes = (
(367,-228,o),
(391,-204,o),
(391,-169,cs),
(391,-136,o),
(366,-111,o),
(333,-111,cs),
(300,-111,o),
(275,-137,o),
(275,-169,cs),
(275,-203,o),
(299,-228,o),
(333,-228,cs)
);
}
);
width = 646;
}
);
leftKerningGroup = U;
rightKerningGroup = J;
unicode = 7908;
},
{
glyphname = Ugrave;
layers = (
{
anchors = (
{
name = t.uni030C.alt;
position = "{614, 700}";
}
);
hints = (
{
horizontal = 1;
place = (-13,128);
type = Stem;
},
{
horizontal = 1;
place = (700,-20);
target = down;
type = TopGhost;
},
{
horizontal = 1;
place = (730,174);
type = Stem;
},
{
place = (40,140);
type = Stem;
},
{
place = (466,140);
type = Stem;
}
);
layerId = "C557D8BE-4A15-4F65-8734-97D132B34265";
shapes = (
{
closed = 1;
nodes = (
(65,697,l),
(65,252,ls),
(65,90,o),
(173,-14,o),
(333,-14,cs),
(492,-14,o),
(600,90,o),
(600,252,cs),
(600,697,l),
(507,697,l),
(507,267,ls),
(507,155,o),
(454,70,o),
(333,70,cs),
(211,70,o),
(159,156,o),
(159,267,cs),
(159,697,l)
);
},
{
closed = 1;
nodes = (
(302,783,l),
(355,783,l),
(329,917,l),
(230,917,l)
);
}
);
width = 646;
}
);
leftKerningGroup = U;
rightKerningGroup = J;
unicode = 217;
},
{
glyphname = uni1EE6;
layers = (
{
anchors = (
{
name = t.uni030C.alt;
position = "{614, 700}";
}
);
hints = (
{
horizontal = 1;
place = (-13,128);
type = Stem;
},
{
horizontal = 1;
place = (700,-20);
target = down;
type = TopGhost;
},
{
horizontal = 1;
place = (721,75);
type = Stem;
},
{
horizontal = 1;
place = (734,-20);
target = down;
type = TopGhost;
},
{
horizontal = 1;
place = (823,108);
type = Stem;
},
{
horizontal = 1;
place = (853,78);
type = Stem;
},
{
place = (40,140);
type = Stem;
},
{
place = (204,84);
type = Stem;
},
{
place = (345,87);
type = Stem;
},
{
place = (466,140);
type = Stem;
}
);
layerId = "C557D8BE-4A15-4F65-8734-97D132B34265";
shapes = (
{
closed = 1;
nodes = (
(65,697,l),
(65,252,ls),
(65,90,o),
(173,-14,o),
(333,-14,cs),
(492,-14,o),
(600,90,o),
(600,252,cs),
(600,697,l),
(507,697,l),
(507,267,ls),
(507,155,o),
(454,70,o),
(333,70,cs),
(211,70,o),
(159,156,o),
(159,267,cs),
(159,697,l)
);
},
{
closed = 1;
nodes = (
(305,777,l),
(308,776,o),
(311,775,o),
(314,775,c),
(320,774,o),
(326,773,o),
(331,773,cs),
(386,773,o),
(421,805,o),
(421,863,cs),
(421,916,o),
(379,945,o),
(328,945,cs),
(286,945,o),
(251,922,o),
(240,883,c),
(276,883,l),
(285,902,o),
(304,915,o),
(327,915,cs),
(357,915,o),
(381,890,o),
(381,859,cs),
(381,822,o),
(356,800,o),
(321,800,cs),
(319,800,o),
(315,800,o),
(313,800,c)
);
}
);
width = 646;
}
);
leftKerningGroup = U;
rightKerningGroup = J;
unicode = 7910;
},
{
glyphname = Uhorn;
layers = (
{
anchors = (
{
name = t.uni030C.alt;
position = "{614, 700}";
}
);
hints = (
{
horizontal = 1;
place = (-13,128);
type = Stem;
},
{
horizontal = 1;
place = (700,-20);
target = down;
type = TopGhost;
},
{
place = (40,140);
type = Stem;
},
{
place = (466,140);
type = Stem;
},
{
place = (598,114);
type = Stem;
}
);
layerId = "C557D8BE-4A15-4F65-8734-97D132B34265";
shapes = (
{
closed = 1;
nodes = (
(65,697,l),
(65,252,ls),
(65,90,o),
(173,-14,o),
(333,-14,cs),
(492,-14,o),
(600,90,o),
(600,252,cs),
(600,662,l),
(605,664,l),
(682,683,o),
(710,734,o),
(710,812,cs),
(710,828,l),
(644,828,l),
(643,714,o),
(612,697,o),
(507,697,c),
(507,267,ls),
(507,155,o),
(454,70,o),
(333,70,cs),
(211,70,o),
(159,156,o),
(159,267,cs),
(159,697,l)
);
}
);
width = 646;
}
);
leftKerningGroup = U;
unicode = 431;
},
{
glyphname = uni1EE8;
layers = (
{
anchors = (
{
name = t.uni030C.alt;
position = "{614, 700}";
}
);
hints = (
{
horizontal = 1;
place = (-13,128);
type = Stem;
},
{
horizontal = 1;
place = (700,-20);
target = down;
type = TopGhost;
},
{
horizontal = 1;
place = (730,174);
type = Stem;
},
{
place = (40,140);
type = Stem;
},
{
place = (466,140);
type = Stem;
},
{
place = (598,114);
type = Stem;
}
);
layerId = "C557D8BE-4A15-4F65-8734-97D132B34265";
shapes = (
{
closed = 1;
nodes = (
(65,697,l),
(65,252,ls),
(65,90,o),
(173,-14,o),
(333,-14,cs),
(492,-14,o),
(600,90,o),
(600,252,cs),
(600,662,l),
(605,664,l),
(682,683,o),
(710,734,o),
(710,812,cs),
(710,828,l),
(644,828,l),
(643,714,o),
(612,697,o),
(507,697,c),
(507,267,ls),
(507,155,o),
(454,70,o),
(333,70,cs),
(211,70,o),
(159,156,o),
(159,267,cs),
(159,697,l)
);
},
{
closed = 1;
nodes = (
(315,783,l),
(364,783,l),
(430,917,l),
(348,917,l)
);
}
);
width = 646;
}
);
leftKerningGroup = U;
rightKerningGroup = J;
unicode = 7912;
},
{
glyphname = uni1EF0;
layers = (
{
anchors = (
{
name = t.uni030C.alt;
position = "{614, 700}";
}
);
hints = (
{
horizontal = 1;
place = (-213,159);
type = Stem;
},
{
horizontal = 1;
place = (-13,128);
type = Stem;
},
{
horizontal = 1;
place = (700,-20);
target = down;
type = TopGhost;
},
{
place = (40,140);
type = Stem;
},
{
place = (242,162);
type = Stem;
},
{
place = (466,140);
type = Stem;
},
{
place = (598,114);
type = Stem;
}
);
layerId = "C557D8BE-4A15-4F65-8734-97D132B34265";
shapes = (
{
closed = 1;
nodes = (
(65,697,l),
(65,252,ls),
(65,90,o),
(173,-14,o),
(333,-14,cs),
(492,-14,o),
(600,90,o),
(600,252,cs),
(600,662,l),
(605,664,l),
(682,683,o),
(710,734,o),
(710,812,cs),
(710,828,l),
(644,828,l),
(643,714,o),
(612,697,o),
(507,697,c),
(507,267,ls),
(507,155,o),
(454,70,o),
(333,70,cs),
(211,70,o),
(159,156,o),
(159,267,cs),
(159,697,l)
);
},
{
closed = 1;
nodes = (
(367,-228,o),
(391,-204,o),
(391,-169,cs),
(391,-136,o),
(366,-111,o),
(333,-111,cs),
(300,-111,o),
(275,-137,o),
(275,-169,cs),
(275,-203,o),
(299,-228,o),
(333,-228,cs)
);
}
);
width = 646;
}
);
leftKerningGroup = U;
rightKerningGroup = J;
unicode = 7920;
},
{
glyphname = uni1EEA;
layers = (
{
anchors = (
{
name = t.uni030C.alt;
position = "{614, 700}";
}
);
hints = (
{
horizontal = 1;
place = (-13,128);
type = Stem;
},
{
horizontal = 1;
place = (700,-20);
target = down;
type = TopGhost;
},
{
horizontal = 1;
place = (730,174);
type = Stem;
},
{
place = (40,140);
type = Stem;
},
{
place = (466,140);
type = Stem;
},
{
place = (598,114);
type = Stem;
}
);
layerId = "C557D8BE-4A15-4F65-8734-97D132B34265";
shapes = (
{
closed = 1;
nodes = (
(65,697,l),
(65,252,ls),
(65,90,o),
(173,-14,o),
(333,-14,cs),
(492,-14,o),
(600,90,o),
(600,252,cs),
(600,662,l),
(605,664,l),
(682,683,o),
(710,734,o),
(710,812,cs),
(710,828,l),
(644,828,l),
(643,714,o),
(612,697,o),
(507,697,c),
(507,267,ls),
(507,155,o),
(454,70,o),
(333,70,cs),
(211,70,o),
(159,156,o),
(159,267,cs),
(159,697,l)
);
},
{
closed = 1;
nodes = (
(302,783,l),
(355,783,l),
(329,917,l),
(230,917,l)
);
}
);
width = 646;
}
);
leftKerningGroup = U;
rightKerningGroup = J;
unicode = 7914;
},
{
glyphname = uni1EEC;
layers = (
{
anchors = (
{
name = t.uni030C.alt;
position = "{614, 700}";
}
);
hints = (
{
horizontal = 1;
place = (-13,128);
type = Stem;
},
{
horizontal = 1;
place = (700,-20);
target = down;
type = TopGhost;
},
{
horizontal = 1;
place = (721,75);
type = Stem;
},
{
horizontal = 1;
place = (734,-20);
target = down;
type = TopGhost;
},
{
horizontal = 1;
place = (823,108);
type = Stem;
},
{
horizontal = 1;
place = (853,78);
type = Stem;
},
{
place = (40,140);
type = Stem;
},
{
place = (204,84);
type = Stem;
},
{
place = (345,87);
type = Stem;
},
{
place = (466,140);
type = Stem;
},
{
place = (598,114);
type = Stem;
}
);
layerId = "C557D8BE-4A15-4F65-8734-97D132B34265";
shapes = (
{
closed = 1;
nodes = (
(65,697,l),
(65,252,ls),
(65,90,o),
(173,-14,o),
(333,-14,cs),
(492,-14,o),
(600,90,o),
(600,252,cs),
(600,662,l),
(605,664,l),
(682,683,o),
(710,734,o),
(710,812,cs),
(710,828,l),
(644,828,l),
(643,714,o),
(612,697,o),
(507,697,c),
(507,267,ls),
(507,155,o),
(454,70,o),
(333,70,cs),
(211,70,o),
(159,156,o),
(159,267,cs),
(159,697,l)
);
},
{
closed = 1;
nodes = (
(305,777,l),
(308,776,o),
(311,775,o),
(314,775,c),
(320,774,o),
(326,773,o),
(331,773,cs),
(386,773,o),
(421,805,o),
(421,863,cs),
(421,916,o),
(379,945,o),
(328,945,cs),
(286,945,o),
(251,922,o),
(240,883,c),
(276,883,l),
(285,902,o),
(304,915,o),
(327,915,cs),
(357,915,o),
(381,890,o),
(381,859,cs),
(381,822,o),
(356,800,o),
(321,800,cs),
(319,800,o),
(315,800,o),
(313,800,c)
);
}
);
width = 646;
}
);
leftKerningGroup = U;
rightKerningGroup = J;
unicode = 7916;
},
{
glyphname = uni1EEE;
layers = (
{
anchors = (
{
name = t.uni030C.alt;
position = "{614, 700}";
}
);
hints = (
{
horizontal = 1;
place = (-13,128);
type = Stem;
},
{
horizontal = 1;
place = (700,-20);
target = down;
type = TopGhost;
},
{
horizontal = 1;
place = (721,92);
type = Stem;
},
{
horizontal = 1;
place = (721,143);
type = Stem;
},
{
horizontal = 1;
place = (785,90);
type = Stem;
},
{
place = (40,140);
type = Stem;
},
{
place = (121,59);
type = Stem;
},
{
place = (438,87);
type = Stem;
},
{
place = (466,140);
type = Stem;
},
{
place = (598,114);
type = Stem;
}
);
layerId = "C557D8BE-4A15-4F65-8734-97D132B34265";
shapes = (
{
closed = 1;
nodes = (
(65,697,l),
(65,252,ls),
(65,90,o),
(173,-14,o),
(333,-14,cs),
(492,-14,o),
(600,90,o),
(600,252,cs),
(600,662,l),
(605,664,l),
(682,683,o),
(710,734,o),
(710,812,cs),
(710,828,l),
(644,828,l),
(643,714,o),
(612,697,o),
(507,697,c),
(507,267,ls),
(507,155,o),
(454,70,o),
(333,70,cs),
(211,70,o),
(159,156,o),
(159,267,cs),
(159,697,l)
);
},
{
closed = 1;
nodes = (
(190,788,l),
(199,821,o),
(226,842,o),
(261,842,cs),
(277,842,o),
(291,837,o),
(303,831,c),
(309,827,o),
(315,823,o),
(322,819,cs),
(327,815,o),
(333,811,o),
(338,806,c),
(360,789,o),
(382,773,o),
(416,773,cs),
(479,773,o),
(509,815,o),
(514,874,c),
(476,874,l),
(470,844,o),
(450,819,o),
(415,819,cs),
(401,819,o),
(389,824,o),
(378,830,cs),
(367,837,o),
(356,845,o),
(344,853,c),
(321,871,o),
(296,886,o),
(262,886,cs),
(202,886,o),
(161,846,o),
(152,788,c)
);
}
);
width = 646;
}
);
leftKerningGroup = U;
rightKerningGroup = J;
unicode = 7918;
},
{
glyphname = Uhungarumlaut;
layers = (
{
anchors = (
{
name = t.uni030C.alt;
position = "{614, 700}";
}
);
hints = (
{
horizontal = 1;
place = (-13,128);
type = Stem;
},
{
horizontal = 1;
place = (700,-20);
target = down;
type = TopGhost;
},
{
horizontal = 1;
place = (730,174);
type = Stem;
},
{
place = (40,140);
type = Stem;
},
{
place = (466,140);
type = Stem;
}
);
layerId = "C557D8BE-4A15-4F65-8734-97D132B34265";
shapes = (
{
closed = 1;
nodes = (
(65,697,l),
(65,252,ls),
(65,90,o),
(173,-14,o),
(333,-14,cs),
(492,-14,o),
(600,90,o),
(600,252,cs),
(600,697,l),
(507,697,l),
(507,267,ls),
(507,155,o),
(454,70,o),
(333,70,cs),
(211,70,o),
(159,156,o),
(159,267,cs),
(159,697,l)
);
},
{
closed = 1;
nodes = (
(234,783,l),
(259,783,l),
(331,917,l),
(257,917,l)
);
},
{
closed = 1;
nodes = (
(404,783,l),
(430,783,l),
(501,917,l),
(429,917,l)
);
}
);
width = 646;
}
);
leftKerningGroup = U;
rightKerningGroup = J;
unicode = 368;
},
{
glyphname = Umacron;
layers = (
{
anchors = (
{
name = t.uni030C.alt;
position = "{614, 700}";
}
);
hints = (
{
horizontal = 1;
place = (-13,128);
type = Stem;
},
{
horizontal = 1;
place = (700,-20);
target = down;
type = TopGhost;
},
{
horizontal = 1;
place = (762,90);
type = Stem;
},
{
place = (40,140);
type = Stem;
},
{
place = (171,9);
type = Stem;
},
{
place = (466,11);
type = Stem;
},
{
place = (466,140);
type = Stem;
}
);
layerId = "C557D8BE-4A15-4F65-8734-97D132B34265";
shapes = (
{
closed = 1;
nodes = (
(65,697,l),
(65,252,ls),
(65,90,o),
(173,-14,o),
(333,-14,cs),
(492,-14,o),
(600,90,o),
(600,252,cs),
(600,697,l),
(507,697,l),
(507,267,ls),
(507,155,o),
(454,70,o),
(333,70,cs),
(211,70,o),
(159,156,o),
(159,267,cs),
(159,697,l)
);
},
{
closed = 1;
nodes = (
(201,818,l),
(467,818,l),
(467,861,l),
(201,861,l)
);
}
);
width = 646;
}
);
leftKerningGroup = U;
rightKerningGroup = J;
unicode = 362;
},
{
glyphname = Uogonek;
layers = (
{
anchors = (
{
name = t.uni030C.alt;
position = "{614, 700}";
}
);
hints = (
{
horizontal = 1;
place = (-214,101);
type = Stem;
},
{
horizontal = 1;
place = (-13,128);
type = Stem;
},
{
horizontal = 1;
place = (700,-20);
target = down;
type = TopGhost;
},
{
place = (40,140);
type = Stem;
},
{
place = (281,94);
type = Stem;
},
{
place = (466,140);
type = Stem;
}
);
layerId = "C557D8BE-4A15-4F65-8734-97D132B34265";
shapes = (
{
closed = 1;
nodes = (
(448,-174,l),
(407,-179,o),
(361,-154,o),
(361,-107,cs),
(361,-73,o),
(377,-53,o),
(400,-35,c),
(416,-20,o),
(433,-5,o),
(450,8,cs),
(454,11,o),
(459,13,o),
(463,14,c),
(466,16,o),
(470,17,o),
(474,19,cs),
(485,25,o),
(496,33,o),
(507,41,cs),
(571,93,o),
(600,169,o),
(600,252,cs),
(600,697,l),
(507,697,l),
(507,267,ls),
(507,155,o),
(454,70,o),
(333,70,cs),
(211,70,o),
(159,155,o),
(159,267,cs),
(159,697,l),
(65,697,l),
(65,252,ls),
(65,92,o),
(173,-14,o),
(331,-14,cs),
(391,-14,l),
(380,-27,ls),
(372,-36,o),
(363,-44,o),
(355,-52,c),
(348,-61,o),
(341,-68,o),
(335,-77,cs),
(323,-94,o),
(315,-112,o),
(315,-138,cs),
(315,-198,o),
(355,-229,o),
(413,-229,cs),
(430,-229,o),
(445,-227,o),
(460,-224,c)
);
}
);
width = 646;
}
);
leftKerningGroup = U;
rightKerningGroup = J;
unicode = 370;
},
{
glyphname = Uring;
layers = (
{
anchors = (
{
name = t.uni030C.alt;
position = "{614, 700}";
}
);
hints = (
{
horizontal = 1;
place = (-13,128);
type = Stem;
},
{
horizontal = 1;
place = (700,-20);
target = down;
type = TopGhost;
},
{
horizontal = 1;
place = (721,67);
type = Stem;
},
{
horizontal = 1;
place = (863,68);
type = Stem;
},
{
place = (40,140);
type = Stem;
},
{
place = (216,69);
type = Stem;
},
{
place = (359,71);
type = Stem;
},
{
place = (466,140);
type = Stem;
}
);
layerId = "C557D8BE-4A15-4F65-8734-97D132B34265";
shapes = (
{
closed = 1;
nodes = (
(380,773,o),
(418,812,o),
(418,859,cs),
(418,907,o),
(380,945,o),
(333,945,cs),
(286,945,o),
(248,906,o),
(248,859,cs),
(248,813,o),
(286,773,o),
(333,773,cs)
);
},
{
closed = 1;
nodes = (
(297,792,o),
(268,825,o),
(268,859,cs),
(268,894,o),
(297,926,o),
(333,926,cs),
(368,926,o),
(396,894,o),
(396,859,cs),
(396,825,o),
(369,792,o),
(333,792,cs)
);
},
{
closed = 1;
nodes = (
(65,697,l),
(65,252,ls),
(65,90,o),
(173,-14,o),
(333,-14,cs),
(492,-14,o),
(600,90,o),
(600,252,cs),
(600,697,l),
(507,697,l),
(507,267,ls),
(507,155,o),
(454,70,o),
(333,70,cs),
(211,70,o),
(159,156,o),
(159,267,cs),
(159,697,l)
);
}
);
width = 646;
}
);
leftKerningGroup = U;
rightKerningGroup = J;
unicode = 366;
},
{
glyphname = Utilde;
layers = (
{
anchors = (
{
name = t.uni030C.alt;
position = "{614, 700}";
}
);
hints = (
{
horizontal = 1;
place = (-13,128);
type = Stem;
},
{
horizontal = 1;
place = (700,-20);
target = down;
type = TopGhost;
},
{
horizontal = 1;
place = (721,92);
type = Stem;
},
{
horizontal = 1;
place = (721,143);
type = Stem;
},
{
horizontal = 1;
place = (785,90);
type = Stem;
},
{
place = (40,140);
type = Stem;
},
{
place = (121,59);
type = Stem;
},
{
place = (438,87);
type = Stem;
},
{
place = (466,140);
type = Stem;
}
);
layerId = "C557D8BE-4A15-4F65-8734-97D132B34265";
shapes = (
{
closed = 1;
nodes = (
(65,697,l),
(65,252,ls),
(65,90,o),
(173,-14,o),
(333,-14,cs),
(492,-14,o),
(600,90,o),
(600,252,cs),
(600,697,l),
(507,697,l),
(507,267,ls),
(507,155,o),
(454,70,o),
(333,70,cs),
(211,70,o),
(159,156,o),
(159,267,cs),
(159,697,l)
);
},
{
closed = 1;
nodes = (
(190,788,l),
(199,821,o),
(226,842,o),
(261,842,cs),
(277,842,o),
(291,837,o),
(303,831,c),
(309,827,o),
(315,823,o),
(322,819,cs),
(327,815,o),
(333,811,o),
(338,806,c),
(360,789,o),
(382,773,o),
(416,773,cs),
(479,773,o),
(509,815,o),
(514,874,c),
(476,874,l),
(470,844,o),
(450,819,o),
(415,819,cs),
(401,819,o),
(389,824,o),
(378,830,cs),
(367,837,o),
(356,845,o),
(344,853,c),
(321,871,o),
(296,886,o),
(262,886,cs),
(202,886,o),
(161,846,o),
(152,788,c)
);
}
);
width = 646;
}
);
leftKerningGroup = U;
rightKerningGroup = J;
unicode = 360;
},
{
glyphname = V;
layers = (
{
hints = (
{
horizontal = 1;
place = (0,21);
target = up;
type = BottomGhost;
},
{
horizontal = 1;
place = (700,-20);
target = down;
type = TopGhost;
},
{
place = (-17,691);
type = Stem;
}
);
layerId = "C557D8BE-4A15-4F65-8734-97D132B34265";
shapes = (
{
closed = 1;
nodes = (
(290,0,l),
(394,0,l),
(661,697,l),
(552,697,l),
(393,239,ls),
(382,209,o),
(374,178,o),
(367,148,c),
(342,19,l),
(335,55,ls),
(323,116,o),
(313,178,o),
(292,239,cs),
(132,697,l),
(21,697,l)
);
}
);
width = 657;
}
);
unicode = 86;
},
{
glyphname = W;
layers = (
{
hints = (
{
horizontal = 1;
place = (0,184);
type = Stem;
},
{
horizontal = 1;
place = (0,21);
target = up;
type = BottomGhost;
},
{
horizontal = 1;
place = (700,-20);
target = down;
type = TopGhost;
},
{
place = (-9,1062);
type = Stem;
}
);
layerId = "C557D8BE-4A15-4F65-8734-97D132B34265";
shapes = (
{
closed = 1;
nodes = (
(787,0,l),
(830,0,l),
(1055,697,l),
(945,697,l),
(834,293,ls),
(823,252,o),
(813,210,o),
(808,168,cs)
);
},
{
closed = 1;
nodes = (
(251,0,l),
(302,0,l),
(297,32,ls),
(283,119,o),
(272,207,o),
(248,293,cs),
(137,697,l),
(27,697,l)
);
},
{
closed = 1;
nodes = (
(307,0,l),
(345,0,l),
(487,406,ls),
(500,444,o),
(509,483,o),
(516,524,cs),
(523,564,o),
(528,605,o),
(534,644,cs),
(541,689,l),
(548,644,ls),
(554,605,o),
(559,564,o),
(566,524,cs),
(573,483,o),
(581,445,o),
(596,406,c),
(737,0,l),
(782,0,l),
(777,32,ls),
(770,75,o),
(765,119,o),
(757,163,cs),
(750,207,o),
(740,250,o),
(726,292,cs),
(588,697,l),
(494,697,l),
(356,292,ls),
(342,252,o),
(332,210,o),
(327,168,cs)
);
}
);
width = 1044;
}
);
leftKerningGroup = W2;
rightKerningGroup = W;
unicode = 87;
},
{
glyphname = Wacute;
layers = (
{
hints = (
{
horizontal = 1;
place = (0,184);
type = Stem;
},
{
horizontal = 1;
place = (0,21);
target = up;
type = BottomGhost;
},
{
horizontal = 1;
place = (700,-20);
target = down;
type = TopGhost;
},
{
horizontal = 1;
place = (746,174);
type = Stem;
},
{
place = (-9,1062);
type = Stem;
}
);
layerId = "C557D8BE-4A15-4F65-8734-97D132B34265";
shapes = (
{
closed = 1;
nodes = (
(787,0,l),
(830,0,l),
(1055,697,l),
(945,697,l),
(834,293,ls),
(823,252,o),
(813,210,o),
(808,168,cs)
);
},
{
closed = 1;
nodes = (
(251,0,l),
(302,0,l),
(297,32,ls),
(283,119,o),
(272,207,o),
(248,293,cs),
(137,697,l),
(27,697,l)
);
},
{
closed = 1;
nodes = (
(307,0,l),
(345,0,l),
(487,406,ls),
(500,444,o),
(509,483,o),
(516,524,cs),
(523,564,o),
(528,605,o),
(534,644,cs),
(541,689,l),
(548,644,ls),
(554,605,o),
(559,564,o),
(566,524,cs),
(573,483,o),
(581,445,o),
(596,406,c),
(737,0,l),
(782,0,l),
(777,32,ls),
(770,75,o),
(765,119,o),
(757,163,cs),
(750,207,o),
(740,250,o),
(726,292,cs),
(588,697,l),
(494,697,l),
(356,292,ls),
(342,252,o),
(332,210,o),
(327,168,cs)
);
},
{
closed = 1;
nodes = (
(529,800,l),
(578,800,l),
(644,934,l),
(561,934,l)
);
}
);
width = 1044;
}
);
leftKerningGroup = W2;
rightKerningGroup = W;
unicode = 7810;
},
{
glyphname = Wcircumflex;
layers = (
{
hints = (
{
horizontal = 1;
place = (0,184);
type = Stem;
},
{
horizontal = 1;
place = (0,21);
target = up;
type = BottomGhost;
},
{
horizontal = 1;
place = (700,-20);
target = down;
type = TopGhost;
},
{
horizontal = 1;
place = (746,174);
type = Stem;
},
{
place = (-9,1062);
type = Stem;
}
);
layerId = "C557D8BE-4A15-4F65-8734-97D132B34265";
shapes = (
{
closed = 1;
nodes = (
(787,0,l),
(830,0,l),
(1055,697,l),
(945,697,l),
(834,293,ls),
(823,252,o),
(813,210,o),
(808,168,cs)
);
},
{
closed = 1;
nodes = (
(251,0,l),
(302,0,l),
(297,32,ls),
(283,119,o),
(272,207,o),
(248,293,cs),
(137,697,l),
(27,697,l)
);
},
{
closed = 1;
nodes = (
(307,0,l),
(345,0,l),
(487,406,ls),
(500,444,o),
(509,483,o),
(516,524,cs),
(523,564,o),
(528,605,o),
(534,644,cs),
(541,689,l),
(548,644,ls),
(554,605,o),
(559,564,o),
(566,524,cs),
(573,483,o),
(581,445,o),
(596,406,c),
(737,0,l),
(782,0,l),
(777,32,ls),
(770,75,o),
(765,119,o),
(757,163,cs),
(750,207,o),
(740,250,o),
(726,292,cs),
(588,697,l),
(494,697,l),
(356,292,ls),
(342,252,o),
(332,210,o),
(327,168,cs)
);
},
{
closed = 1;
nodes = (
(431,800,l),
(493,800,l),
(547,924,l),
(602,800,l),
(661,800,l),
(589,934,l),
(506,934,l)
);
}
);
width = 1044;
}
);
leftKerningGroup = W2;
rightKerningGroup = W;
unicode = 372;
},
{
glyphname = Wdieresis;
layers = (
{
hints = (
{
horizontal = 1;
place = (0,184);
type = Stem;
},
{
horizontal = 1;
place = (0,21);
target = up;
type = BottomGhost;
},
{
horizontal = 1;
place = (700,-20);
target = down;
type = TopGhost;
},
{
horizontal = 1;
place = (743,159);
type = Stem;
},
{
place = (341,162);
type = Stem;
},
{
place = (553,162);
type = Stem;
}
);
layerId = "C557D8BE-4A15-4F65-8734-97D132B34265";
shapes = (
{
closed = 1;
nodes = (
(787,0,l),
(830,0,l),
(1055,697,l),
(945,697,l),
(834,293,ls),
(823,252,o),
(813,210,o),
(808,168,cs)
);
},
{
closed = 1;
nodes = (
(251,0,l),
(302,0,l),
(297,32,ls),
(283,119,o),
(272,207,o),
(248,293,cs),
(137,697,l),
(27,697,l)
);
},
{
closed = 1;
nodes = (
(307,0,l),
(345,0,l),
(487,406,ls),
(500,444,o),
(509,483,o),
(516,524,cs),
(523,564,o),
(528,605,o),
(534,644,cs),
(541,689,l),
(548,644,ls),
(554,605,o),
(559,564,o),
(566,524,cs),
(573,483,o),
(581,445,o),
(596,406,c),
(737,0,l),
(782,0,l),
(777,32,ls),
(770,75,o),
(765,119,o),
(757,163,cs),
(750,207,o),
(740,250,o),
(726,292,cs),
(588,697,l),
(494,697,l),
(356,292,ls),
(342,252,o),
(332,210,o),
(327,168,cs)
);
},
{
closed = 1;
nodes = (
(471,797,o),
(496,822,o),
(496,856,cs),
(496,890,o),
(470,915,o),
(437,915,cs),
(405,915,o),
(380,889,o),
(380,856,cs),
(380,823,o),
(404,797,o),
(437,797,cs)
);
},
{
closed = 1;
nodes = (
(599,823,o),
(624,797,o),
(657,797,cs),
(692,797,o),
(715,822,o),
(715,856,cs),
(715,890,o),
(691,915,o),
(657,915,cs),
(625,915,o),
(599,889,o),
(599,856,cs)
);
}
);
width = 1044;
}
);
leftKerningGroup = W2;
rightKerningGroup = W;
unicode = 7812;
},
{
glyphname = Wgrave;
layers = (
{
hints = (
{
horizontal = 1;
place = (0,184);
type = Stem;
},
{
horizontal = 1;
place = (0,21);
target = up;
type = BottomGhost;
},
{
horizontal = 1;
place = (700,-20);
target = down;
type = TopGhost;
},
{
horizontal = 1;
place = (746,174);
type = Stem;
},
{
place = (-9,1062);
type = Stem;
}
);
layerId = "C557D8BE-4A15-4F65-8734-97D132B34265";
shapes = (
{
closed = 1;
nodes = (
(787,0,l),
(830,0,l),
(1055,697,l),
(945,697,l),
(834,293,ls),
(823,252,o),
(813,210,o),
(808,168,cs)
);
},
{
closed = 1;
nodes = (
(251,0,l),
(302,0,l),
(297,32,ls),
(283,119,o),
(272,207,o),
(248,293,cs),
(137,697,l),
(27,697,l)
);
},
{
closed = 1;
nodes = (
(307,0,l),
(345,0,l),
(487,406,ls),
(500,444,o),
(509,483,o),
(516,524,cs),
(523,564,o),
(528,605,o),
(534,644,cs),
(541,689,l),
(548,644,ls),
(554,605,o),
(559,564,o),
(566,524,cs),
(573,483,o),
(581,445,o),
(596,406,c),
(737,0,l),
(782,0,l),
(777,32,ls),
(770,75,o),
(765,119,o),
(757,163,cs),
(750,207,o),
(740,250,o),
(726,292,cs),
(588,697,l),
(494,697,l),
(356,292,ls),
(342,252,o),
(332,210,o),
(327,168,cs)
);
},
{
closed = 1;
nodes = (
(517,800,l),
(569,800,l),
(543,934,l),
(444,934,l)
);
}
);
width = 1044;
}
);
leftKerningGroup = W2;
rightKerningGroup = W;
unicode = 7808;
},
{
glyphname = X;
layers = (
{
hints = (
{
horizontal = 1;
place = (0,21);
target = up;
type = BottomGhost;
},
{
horizontal = 1;
place = (700,-20);
target = down;
type = TopGhost;
},
{
place = (-10,631);
type = Stem;
}
);
layerId = "C557D8BE-4A15-4F65-8734-97D132B34265";
shapes = (
{
closed = 1;
nodes = (
(37,0,l),
(147,0,l),
(317,273,l),
(482,0,l),
(597,0,l),
(375,347,l),
(586,697,l),
(477,697,l),
(317,424,l),
(159,697,l),
(47,697,l),
(258,350,l)
);
}
);
width = 608;
}
);
unicode = 88;
},
{
glyphname = Y;
layers = (
{
hints = (
{
horizontal = 1;
place = (0,21);
target = up;
type = BottomGhost;
},
{
horizontal = 1;
place = (700,-20);
target = down;
type = TopGhost;
},
{
place = (211,140);
type = Stem;
}
);
layerId = "C557D8BE-4A15-4F65-8734-97D132B34265";
shapes = (
{
closed = 1;
nodes = (
(338,0,l),
(338,21,o),
(337,81,o),
(337,139,cs),
(337,205,o),
(337,274,o),
(339,280,cs),
(349,308,o),
(362,338,o),
(379,364,cs),
(394,387,o),
(409,410,o),
(423,434,c),
(565,697,l),
(466,697,l),
(365,498,ls),
(348,463,o),
(331,428,o),
(321,392,cs),
(294,300,l),
(288,325,ls),
(283,348,o),
(278,370,o),
(272,392,c),
(268,410,o),
(259,427,o),
(251,445,c),
(242,462,o),
(232,478,o),
(224,496,c),
(118,697,l),
(18,697,l),
(160,437,l),
(175,412,o),
(191,388,o),
(205,363,c),
(220,338,o),
(234,313,o),
(244,283,cs),
(246,277,o),
(246,207,o),
(246,141,cs),
(246,82,o),
(245,21,o),
(245,0,c)
);
}
);
width = 566;
}
);
rightKerningGroup = Y;
unicode = 89;
},
{
glyphname = Yacute;
layers = (
{
hints = (
{
horizontal = 1;
place = (0,21);
target = up;
type = BottomGhost;
},
{
horizontal = 1;
place = (700,-20);
target = down;
type = TopGhost;
},
{
horizontal = 1;
place = (746,174);
type = Stem;
},
{
place = (211,140);
type = Stem;
}
);
layerId = "C557D8BE-4A15-4F65-8734-97D132B34265";
shapes = (
{
closed = 1;
nodes = (
(338,0,l),
(338,21,o),
(337,81,o),
(337,139,cs),
(337,205,o),
(337,274,o),
(339,280,cs),
(349,308,o),
(362,338,o),
(379,364,cs),
(394,387,o),
(409,410,o),
(423,434,c),
(565,697,l),
(466,697,l),
(365,498,ls),
(348,463,o),
(331,428,o),
(321,392,cs),
(294,300,l),
(288,325,ls),
(283,348,o),
(278,370,o),
(272,392,c),
(268,410,o),
(259,427,o),
(251,445,c),
(242,462,o),
(232,478,o),
(224,496,c),
(118,697,l),
(18,697,l),
(160,437,l),
(175,412,o),
(191,388,o),
(205,363,c),
(220,338,o),
(234,313,o),
(244,283,cs),
(246,277,o),
(246,207,o),
(246,141,cs),
(246,82,o),
(245,21,o),
(245,0,c)
);
},
{
closed = 1;
nodes = (
(276,800,l),
(325,800,l),
(391,934,l),
(308,934,l)
);
}
);
width = 566;
}
);
leftKerningGroup = Yacute;
rightKerningGroup = Y;
unicode = 221;
},
{
glyphname = Ycircumflex;
layers = (
{
hints = (
{
horizontal = 1;
place = (0,21);
target = up;
type = BottomGhost;
},
{
horizontal = 1;
place = (700,-20);
target = down;
type = TopGhost;
},
{
horizontal = 1;
place = (746,174);
type = Stem;
},
{
place = (211,140);
type = Stem;
}
);
layerId = "C557D8BE-4A15-4F65-8734-97D132B34265";
shapes = (
{
closed = 1;
nodes = (
(338,0,l),
(338,21,o),
(337,81,o),
(337,139,cs),
(337,205,o),
(337,274,o),
(339,280,cs),
(349,308,o),
(362,338,o),
(379,364,cs),
(394,387,o),
(409,410,o),
(423,434,c),
(565,697,l),
(466,697,l),
(365,498,ls),
(348,463,o),
(331,428,o),
(321,392,cs),
(294,300,l),
(288,325,ls),
(283,348,o),
(278,370,o),
(272,392,c),
(268,410,o),
(259,427,o),
(251,445,c),
(242,462,o),
(232,478,o),
(224,496,c),
(118,697,l),
(18,697,l),
(160,437,l),
(175,412,o),
(191,388,o),
(205,363,c),
(220,338,o),
(234,313,o),
(244,283,cs),
(246,277,o),
(246,207,o),
(246,141,cs),
(246,82,o),
(245,21,o),
(245,0,c)
);
},
{
closed = 1;
nodes = (
(178,800,l),
(239,800,l),
(294,924,l),
(348,800,l),
(408,800,l),
(335,934,l),
(252,934,l)
);
}
);
width = 566;
}
);
leftKerningGroup = Yacute;
rightKerningGroup = Y;
unicode = 374;
},
{
glyphname = Ydieresis;
layers = (
{
hints = (
{
horizontal = 1;
place = (0,21);
target = up;
type = BottomGhost;
},
{
horizontal = 1;
place = (700,-20);
target = down;
type = TopGhost;
},
{
horizontal = 1;
place = (743,159);
type = Stem;
},
{
place = (96,162);
type = Stem;
},
{
place = (211,140);
type = Stem;
},
{
place = (308,162);
type = Stem;
}
);
layerId = "C557D8BE-4A15-4F65-8734-97D132B34265";
shapes = (
{
closed = 1;
nodes = (
(338,0,l),
(338,21,o),
(337,81,o),
(337,139,cs),
(337,205,o),
(337,274,o),
(339,280,cs),
(349,308,o),
(362,338,o),
(379,364,cs),
(394,387,o),
(409,410,o),
(423,434,c),
(565,697,l),
(466,697,l),
(365,498,ls),
(348,463,o),
(331,428,o),
(321,392,cs),
(294,300,l),
(288,325,ls),
(283,348,o),
(278,370,o),
(272,392,c),
(268,410,o),
(259,427,o),
(251,445,c),
(242,462,o),
(232,478,o),
(224,496,c),
(118,697,l),
(18,697,l),
(160,437,l),
(175,412,o),
(191,388,o),
(205,363,c),
(220,338,o),
(234,313,o),
(244,283,cs),
(246,277,o),
(246,207,o),
(246,141,cs),
(246,82,o),
(245,21,o),
(245,0,c)
);
},
{
closed = 1;
nodes = (
(218,797,o),
(242,822,o),
(242,856,cs),
(242,890,o),
(217,915,o),
(184,915,cs),
(151,915,o),
(126,889,o),
(126,856,cs),
(126,823,o),
(150,797,o),
(184,797,cs)
);
},
{
closed = 1;
nodes = (
(345,823,o),
(371,797,o),
(404,797,cs),
(438,797,o),
(461,822,o),
(461,856,cs),
(461,890,o),
(437,915,o),
(404,915,cs),
(372,915,o),
(345,889,o),
(345,856,cs)
);
}
);
width = 566;
}
);
leftKerningGroup = Yacute;
rightKerningGroup = Y;
unicode = 376;
},
{
glyphname = uni1E8E;
layers = (
{
hints = (
{
horizontal = 1;
place = (0,21);
target = up;
type = BottomGhost;
},
{
horizontal = 1;
place = (700,-20);
target = down;
type = TopGhost;
},
{
horizontal = 1;
place = (743,159);
type = Stem;
},
{
place = (202,162);
type = Stem;
},
{
place = (211,140);
type = Stem;
}
);
layerId = "C557D8BE-4A15-4F65-8734-97D132B34265";
shapes = (
{
closed = 1;
nodes = (
(338,0,l),
(338,21,o),
(337,81,o),
(337,139,cs),
(337,205,o),
(337,274,o),
(339,280,cs),
(349,308,o),
(362,338,o),
(379,364,cs),
(394,387,o),
(409,410,o),
(423,434,c),
(565,697,l),
(466,697,l),
(365,498,ls),
(348,463,o),
(331,428,o),
(321,392,cs),
(294,300,l),
(288,325,ls),
(283,348,o),
(278,370,o),
(272,392,c),
(268,410,o),
(259,427,o),
(251,445,c),
(242,462,o),
(232,478,o),
(224,496,c),
(118,697,l),
(18,697,l),
(160,437,l),
(175,412,o),
(191,388,o),
(205,363,c),
(220,338,o),
(234,313,o),
(244,283,cs),
(246,277,o),
(246,207,o),
(246,141,cs),
(246,82,o),
(245,21,o),
(245,0,c)
);
},
{
closed = 1;
nodes = (
(235,823,o),
(260,797,o),
(294,797,cs),
(328,797,o),
(352,822,o),
(352,856,cs),
(352,890,o),
(327,915,o),
(294,915,cs),
(261,915,o),
(235,889,o),
(235,856,cs)
);
}
);
width = 566;
}
);
leftKerningGroup = Yacute;
rightKerningGroup = Y;
unicode = 7822;
},
{
glyphname = uni1EF4;
layers = (
{
hints = (
{
horizontal = 1;
place = (-213,159);
type = Stem;
},
{
horizontal = 1;
place = (0,21);
target = up;
type = BottomGhost;
},
{
horizontal = 1;
place = (700,-20);
target = down;
type = TopGhost;
},
{
place = (203,162);
type = Stem;
},
{
place = (211,140);
type = Stem;
}
);
layerId = "C557D8BE-4A15-4F65-8734-97D132B34265";
shapes = (
{
closed = 1;
nodes = (
(338,0,l),
(338,21,o),
(337,81,o),
(337,139,cs),
(337,205,o),
(337,274,o),
(339,280,cs),
(349,308,o),
(362,338,o),
(379,364,cs),
(394,387,o),
(409,410,o),
(423,434,c),
(565,697,l),
(466,697,l),
(365,498,ls),
(348,463,o),
(331,428,o),
(321,392,cs),
(294,300,l),
(288,325,ls),
(283,348,o),
(278,370,o),
(272,392,c),
(268,410,o),
(259,427,o),
(251,445,c),
(242,462,o),
(232,478,o),
(224,496,c),
(118,697,l),
(18,697,l),
(160,437,l),
(175,412,o),
(191,388,o),
(205,363,c),
(220,338,o),
(234,313,o),
(244,283,cs),
(246,277,o),
(246,207,o),
(246,141,cs),
(246,82,o),
(245,21,o),
(245,0,c)
);
},
{
closed = 1;
nodes = (
(236,-203,o),
(261,-228,o),
(295,-228,cs),
(329,-228,o),
(353,-204,o),
(353,-169,cs),
(353,-136,o),
(328,-111,o),
(295,-111,cs),
(262,-111,o),
(236,-137,o),
(236,-169,cs)
);
}
);
width = 566;
}
);
leftKerningGroup = Yacute;
rightKerningGroup = Y;
unicode = 7924;
},
{
glyphname = Ygrave;
layers = (
{
hints = (
{
horizontal = 1;
place = (0,21);
target = up;
type = BottomGhost;
},
{
horizontal = 1;
place = (700,-20);
target = down;
type = TopGhost;
},
{
horizontal = 1;
place = (746,174);
type = Stem;
},
{
place = (211,140);
type = Stem;
}
);
layerId = "C557D8BE-4A15-4F65-8734-97D132B34265";
shapes = (
{
closed = 1;
nodes = (
(338,0,l),
(338,21,o),
(337,81,o),
(337,139,cs),
(337,205,o),
(337,274,o),
(339,280,cs),
(349,308,o),
(362,338,o),
(379,364,cs),
(394,387,o),
(409,410,o),
(423,434,c),
(565,697,l),
(466,697,l),
(365,498,ls),
(348,463,o),
(331,428,o),
(321,392,cs),
(294,300,l),
(288,325,ls),
(283,348,o),
(278,370,o),
(272,392,c),
(268,410,o),
(259,427,o),
(251,445,c),
(242,462,o),
(232,478,o),
(224,496,c),
(118,697,l),
(18,697,l),
(160,437,l),
(175,412,o),
(191,388,o),
(205,363,c),
(220,338,o),
(234,313,o),
(244,283,cs),
(246,277,o),
(246,207,o),
(246,141,cs),
(246,82,o),
(245,21,o),
(245,0,c)
);
},
{
closed = 1;
nodes = (
(263,800,l),
(316,800,l),
(290,934,l),
(191,934,l)
);
}
);
width = 566;
}
);
leftKerningGroup = Yacute;
rightKerningGroup = Y;
unicode = 7922;
},
{
glyphname = uni1EF6;
layers = (
{
hints = (
{
horizontal = 1;
place = (0,21);
target = up;
type = BottomGhost;
},
{
horizontal = 1;
place = (700,-20);
target = down;
type = TopGhost;
},
{
horizontal = 1;
place = (737,75);
type = Stem;
},
{
horizontal = 1;
place = (839,108);
type = Stem;
},
{
horizontal = 1;
place = (869,78);
type = Stem;
},
{
place = (164,84);
type = Stem;
},
{
place = (211,140);
type = Stem;
},
{
place = (305,87);
type = Stem;
}
);
layerId = "C557D8BE-4A15-4F65-8734-97D132B34265";
shapes = (
{
closed = 1;
nodes = (
(338,0,l),
(338,21,o),
(337,81,o),
(337,139,cs),
(337,205,o),
(337,274,o),
(339,280,cs),
(349,308,o),
(362,338,o),
(379,364,cs),
(394,387,o),
(409,410,o),
(423,434,c),
(565,697,l),
(466,697,l),
(365,498,ls),
(348,463,o),
(331,428,o),
(321,392,cs),
(294,300,l),
(288,325,ls),
(283,348,o),
(278,370,o),
(272,392,c),
(268,410,o),
(259,427,o),
(251,445,c),
(242,462,o),
(232,478,o),
(224,496,c),
(118,697,l),
(18,697,l),
(160,437,l),
(175,412,o),
(191,388,o),
(205,363,c),
(220,338,o),
(234,313,o),
(244,283,cs),
(246,277,o),
(246,207,o),
(246,141,cs),
(246,82,o),
(245,21,o),
(245,0,c)
);
},
{
closed = 1;
nodes = (
(267,793,l),
(275,791,o),
(284,790,o),
(292,790,cs),
(347,790,o),
(381,824,o),
(381,880,cs),
(381,933,o),
(340,962,o),
(289,962,cs),
(247,962,o),
(212,939,o),
(200,900,c),
(237,900,l),
(247,920,o),
(266,932,o),
(288,932,cs),
(317,932,o),
(342,906,o),
(342,877,cs),
(342,839,o),
(317,818,o),
(282,818,cs),
(280,818,o),
(277,818,o),
(274,818,c)
);
}
);
width = 566;
}
);
leftKerningGroup = Yacute;
rightKerningGroup = Y;
unicode = 7926;
},
{
glyphname = uni1EF8;
layers = (
{
hints = (
{
horizontal = 1;
place = (0,21);
target = up;
type = BottomGhost;
},
{
horizontal = 1;
place = (700,-20);
target = down;
type = TopGhost;
},
{
horizontal = 1;
place = (737,92);
type = Stem;
},
{
horizontal = 1;
place = (737,143);
type = Stem;
},
{
horizontal = 1;
place = (801,90);
type = Stem;
},
{
place = (81,86);
type = Stem;
},
{
place = (211,140);
type = Stem;
},
{
place = (398,87);
type = Stem;
}
);
layerId = "C557D8BE-4A15-4F65-8734-97D132B34265";
shapes = (
{
closed = 1;
nodes = (
(338,0,l),
(338,21,o),
(337,81,o),
(337,139,cs),
(337,205,o),
(337,274,o),
(339,280,cs),
(349,308,o),
(362,338,o),
(379,364,cs),
(394,387,o),
(409,410,o),
(423,434,c),
(565,697,l),
(466,697,l),
(365,498,ls),
(348,463,o),
(331,428,o),
(321,392,cs),
(294,300,l),
(288,325,ls),
(283,348,o),
(278,370,o),
(272,392,c),
(268,410,o),
(259,427,o),
(251,445,c),
(242,462,o),
(232,478,o),
(224,496,c),
(118,697,l),
(18,697,l),
(160,437,l),
(175,412,o),
(191,388,o),
(205,363,c),
(220,338,o),
(234,313,o),
(244,283,cs),
(246,277,o),
(246,207,o),
(246,141,cs),
(246,82,o),
(245,21,o),
(245,0,c)
);
},
{
closed = 1;
nodes = (
(151,805,l),
(160,838,o),
(186,859,o),
(221,859,cs),
(238,859,o),
(252,854,o),
(265,848,c),
(271,844,o),
(277,840,o),
(283,836,cs),
(288,832,o),
(294,828,o),
(299,824,cs),
(321,806,o),
(343,790,o),
(378,790,cs),
(441,790,o),
(470,831,o),
(476,891,c),
(436,891,l),
(431,862,o),
(411,836,o),
(377,836,cs),
(362,836,o),
(350,841,o),
(338,847,cs),
(327,853,o),
(317,863,o),
(305,871,cs),
(283,887,o),
(258,902,o),
(222,902,cs),
(163,902,o),
(121,863,o),
(112,805,c)
);
}
);
width = 566;
}
);
leftKerningGroup = Yacute;
rightKerningGroup = Y;
unicode = 7928;
},
{
glyphname = Z;
layers = (
{
hints = (
{
horizontal = 1;
place = (0,123);
type = Stem;
},
{
horizontal = 1;
place = (577,123);
type = Stem;
},
{
place = (10,564);
type = Stem;
}
);
layerId = "C557D8BE-4A15-4F65-8734-97D132B34265";
shapes = (
{
closed = 1;
nodes = (
(46,0,l),
(568,0,l),
(568,80,l),
(186,80,l),
(197,91,l),
(204,101,o),
(213,111,o),
(221,121,cs),
(229,133,o),
(237,143,o),
(243,154,cs),
(558,697,l),
(55,697,l),
(55,619,l),
(418,619,l),
(408,608,l),
(401,597,o),
(391,587,o),
(383,577,cs),
(375,567,o),
(367,556,o),
(361,544,c)
);
}
);
width = 588;
}
);
rightKerningGroup = Z;
unicode = 90;
},
{
glyphname = Zacute;
layers = (
{
hints = (
{
horizontal = 1;
place = (0,123);
type = Stem;
},
{
horizontal = 1;
place = (577,123);
type = Stem;
},
{
horizontal = 1;
place = (746,174);
type = Stem;
},
{
place = (10,564);
type = Stem;
}
);
layerId = "C557D8BE-4A15-4F65-8734-97D132B34265";
shapes = (
{
closed = 1;
nodes = (
(46,0,l),
(568,0,l),
(568,80,l),
(186,80,l),
(197,91,l),
(204,101,o),
(213,111,o),
(221,121,cs),
(229,133,o),
(237,143,o),
(243,154,cs),
(558,697,l),
(55,697,l),
(55,619,l),
(418,619,l),
(408,608,l),
(401,597,o),
(391,587,o),
(383,577,cs),
(375,567,o),
(367,556,o),
(361,544,c)
);
},
{
closed = 1;
nodes = (
(276,800,l),
(326,800,l),
(391,934,l),
(309,934,l)
);
}
);
width = 588;
}
);
leftKerningGroup = Zcaron;
rightKerningGroup = Z;
unicode = 377;
},
{
glyphname = Zcaron;
layers = (
{
hints = (
{
horizontal = 1;
place = (0,123);
type = Stem;
},
{
horizontal = 1;
place = (577,123);
type = Stem;
},
{
horizontal = 1;
place = (746,174);
type = Stem;
},
{
place = (10,564);
type = Stem;
}
);
layerId = "C557D8BE-4A15-4F65-8734-97D132B34265";
shapes = (
{
closed = 1;
nodes = (
(46,0,l),
(568,0,l),
(568,80,l),
(186,80,l),
(197,91,l),
(204,101,o),
(213,111,o),
(221,121,cs),
(229,133,o),
(237,143,o),
(243,154,cs),
(558,697,l),
(55,697,l),
(55,619,l),
(418,619,l),
(408,608,l),
(401,597,o),
(391,587,o),
(383,577,cs),
(375,567,o),
(367,556,o),
(361,544,c)
);
},
{
closed = 1;
nodes = (
(253,800,l),
(336,800,l),
(409,934,l),
(349,934,l),
(295,810,l),
(240,934,l),
(178,934,l)
);
}
);
width = 588;
}
);
leftKerningGroup = Zcaron;
rightKerningGroup = Z;
unicode = 381;
},
{
glyphname = Zdotaccent;
layers = (
{
hints = (
{
horizontal = 1;
place = (0,123);
type = Stem;
},
{
horizontal = 1;
place = (577,123);
type = Stem;
},
{
horizontal = 1;
place = (743,159);
type = Stem;
},
{
place = (204,162);
type = Stem;
}
);
layerId = "C557D8BE-4A15-4F65-8734-97D132B34265";
shapes = (
{
closed = 1;
nodes = (
(46,0,l),
(568,0,l),
(568,80,l),
(186,80,l),
(197,91,l),
(204,101,o),
(213,111,o),
(221,121,cs),
(229,133,o),
(237,143,o),
(243,154,cs),
(558,697,l),
(55,697,l),
(55,619,l),
(418,619,l),
(408,608,l),
(401,597,o),
(391,587,o),
(383,577,cs),
(375,567,o),
(367,556,o),
(361,544,c)
);
},
{
closed = 1;
nodes = (
(236,823,o),
(261,797,o),
(295,797,cs),
(329,797,o),
(353,822,o),
(353,856,cs),
(353,890,o),
(328,915,o),
(295,915,cs),
(262,915,o),
(236,889,o),
(236,856,cs)
);
}
);
width = 588;
}
);
leftKerningGroup = Zcaron;
rightKerningGroup = Z;
unicode = 379;
},
{
glyphname = uni1E92;
layers = (
{
hints = (
{
horizontal = 1;
place = (-213,159);
type = Stem;
},
{
horizontal = 1;
place = (0,123);
type = Stem;
},
{
horizontal = 1;
place = (577,123);
type = Stem;
},
{
place = (224,162);
type = Stem;
}
);
layerId = "C557D8BE-4A15-4F65-8734-97D132B34265";
shapes = (
{
closed = 1;
nodes = (
(46,0,l),
(568,0,l),
(568,80,l),
(186,80,l),
(197,91,l),
(204,101,o),
(213,111,o),
(221,121,cs),
(229,133,o),
(237,143,o),
(243,154,cs),
(558,697,l),
(55,697,l),
(55,619,l),
(418,619,l),
(408,608,l),
(401,597,o),
(391,587,o),
(383,577,cs),
(375,567,o),
(367,556,o),
(361,544,c)
);
},
{
closed = 1;
nodes = (
(257,-203,o),
(282,-228,o),
(316,-228,cs),
(350,-228,o),
(373,-204,o),
(373,-169,cs),
(373,-136,o),
(349,-111,o),
(316,-111,cs),
(283,-111,o),
(257,-137,o),
(257,-169,cs)
);
}
);
width = 588;
}
);
leftKerningGroup = Zcaron;
rightKerningGroup = Z;
unicode = 7826;
},
{
glyphname = uni1E94;
layers = (
{
hints = (
{
horizontal = 1;
place = (-181,90);
type = Stem;
},
{
horizontal = 1;
place = (0,123);
type = Stem;
},
{
horizontal = 1;
place = (577,123);
type = Stem;
},
{
place = (10,564);
type = Stem;
},
{
place = (152,306);
type = Stem;
}
);
layerId = "C557D8BE-4A15-4F65-8734-97D132B34265";
shapes = (
{
closed = 1;
nodes = (
(46,0,l),
(568,0,l),
(568,80,l),
(186,80,l),
(197,91,l),
(204,101,o),
(213,111,o),
(221,121,cs),
(229,133,o),
(237,143,o),
(243,154,cs),
(558,697,l),
(55,697,l),
(55,619,l),
(418,619,l),
(408,608,l),
(401,597,o),
(391,587,o),
(383,577,cs),
(375,567,o),
(367,556,o),
(361,544,c)
);
},
{
closed = 1;
nodes = (
(182,-194,l),
(448,-194,l),
(448,-151,l),
(182,-151,l)
);
}
);
width = 588;
}
);
leftKerningGroup = Zcaron;
rightKerningGroup = Z;
unicode = 7828;
},
{
glyphname = uni013B.loclMAH;
layers = (
{
anchors = (
{
name = t.uni030C.alt;
position = "{278, 700}";
}
);
hints = (
{
horizontal = 1;
place = (-200,155);
type = Stem;
},
{
horizontal = 1;
place = (0,126);
type = Stem;
},
{
horizontal = 1;
place = (700,-20);
target = down;
type = TopGhost;
},
{
place = (50,140);
type = Stem;
}
);
layerId = "C557D8BE-4A15-4F65-8734-97D132B34265";
shapes = (
{
closed = 1;
nodes = (
(75,0,l),
(440,0,l),
(440,83,l),
(169,83,l),
(169,697,l),
(75,697,l)
);
},
{
closed = 1;
nodes = (
(195,-214,l),
(227,-214,l),
(295,-101,l),
(219,-101,l)
);
}
);
width = 476;
}
);
leftKerningGroup = B;
rightKerningGroup = L;
},
